<?xml version="1.0" encoding="UTF-8" standalone="no"?>
<!DOCTYPE svg PUBLIC "-//W3C//DTD SVG 1.1//EN" "http://www.w3.org/Graphics/SVG/1.1/DTD/svg11.dtd">
<svg width="100%" height="100%" viewBox="0 0 23575 5406" version="1.1" xmlns="http://www.w3.org/2000/svg" xmlns:xlink="http://www.w3.org/1999/xlink" xml:space="preserve" xmlns:serif="http://www.serif.com/" style="fill-rule:evenodd;clip-rule:evenodd;stroke-linejoin:round;stroke-miterlimit:2;">
    <g transform="matrix(4.16667,0,0,4.16667,0,0)">
        <path d="M1264.7,46.513L1249.46,19.547L1305.68,0.21C1305.68,0.21 1323.72,29.224 1330.02,31.188C1594.18,16.601 1761.21,210.842 1761.21,210.842L1787.69,199.125L1840.39,254.449L1819.32,268.055C1819.32,268.055 1991.93,438.779 1872.93,600.322C1878.41,607.53 1907.43,646.708 1907.43,646.708L1848.5,667.69L1816.7,633.926C1816.7,633.926 1597.87,685.717 1357.15,485.904C1342.81,491.393 1182.82,548.681 1182.82,548.681C1182.82,548.681 1385.51,842.921 1101.19,1054.37C1089.47,1040.61 1060.38,1008.8 1054.96,1001.59C1316.41,781.125 1108.48,522.295 1108.48,522.295C1108.48,522.295 1467.06,398.863 1499.02,388.784C1698.68,486.886 1734.09,373.45 1653.11,280.753C1572.46,188.223 1385.51,165.437 1428.05,300.753C1418.05,305.343 1044.15,425.166 1027.76,429.597C739.743,177.236 435.76,220.023 435.76,220.023L397.565,170.028C397.565,170.028 728.027,112.823 1032.18,377.059C1043,373.45 1208.32,324.276 1218.31,320.668C1104.8,113.637 1264.7,46.513 1264.7,46.513Z" style="fill:rgb(51,55,56);fill-rule:nonzero;"/>
        <path d="M290.365,190.85C290.365,190.85 309.458,220.846 320.36,241.827C-32.888,366.072 126.111,711.13 126.111,711.13C126.111,711.13 53.497,732.926 41.856,737.358C-131.652,285.344 290.365,190.85 290.365,190.85Z" style="fill:rgb(51,55,56);fill-rule:nonzero;"/>
        <path d="M117.097,861.93C120.706,860.948 197.743,835.544 197.743,835.544C197.743,835.544 529.196,1157.81 948.747,1062.57C949.561,1065.19 986.69,1117.82 986.69,1117.82C986.69,1117.82 562.716,1297.64 117.097,861.93Z" style="fill:rgb(51,55,56);fill-rule:nonzero;"/>
        <path d="M562.548,467.129C656.807,439.022 779.004,490.57 826.213,562.126C870.476,629.167 870.476,716.703 790.645,748.335C710.898,779.976 563.858,744.567 503.044,657.199C447.56,577.208 481.492,491.149 562.548,467.129Z" style="fill:rgb(51,55,56);fill-rule:nonzero;"/>
        <path d="M2641.71,267.221L2561.65,87.956L2481.08,267.221L2641.71,267.221ZM2543.52,41.629L2580.78,41.629L2741.41,396.634L2698.61,396.634L2657.32,303.477L2465.47,303.477L2423.67,396.634L2382.88,396.634L2543.52,41.629Z" style="fill:rgb(237,74,58);fill-rule:nonzero;"/>
        <path d="M2802.85,327.648L2802.85,170.539L2766.59,170.539L2766.59,136.296L2802.85,136.296L2802.85,57.742L2841.62,57.742L2841.62,136.296L2924.21,136.296L2924.21,170.539L2841.62,170.539L2841.62,322.613C2841.62,354.336 2859.25,365.918 2885.43,365.918C2898.53,365.918 2909.6,363.4 2923.2,356.854L2923.2,390.088C2909.6,397.138 2895,401.168 2876.37,401.168C2834.57,401.168 2802.85,380.521 2802.85,327.648Z" style="fill:rgb(237,74,58);fill-rule:nonzero;"/>
        <path d="M3175.98,252.115C3171.96,204.781 3144.76,163.489 3092.9,163.489C3047.58,163.489 3013.34,201.255 3008.3,252.115L3175.98,252.115ZM2969.02,267.221L2969.02,266.214C2969.02,191.184 3021.9,130.757 3093.9,130.757C3170.95,130.757 3215.26,192.191 3215.26,268.228C3215.26,273.263 3215.26,276.285 3214.76,280.817L3008.3,280.817C3013.84,337.215 3053.62,368.939 3099.95,368.939C3135.7,368.939 3160.88,354.336 3182.03,332.179L3206.2,353.833C3180.01,383.039 3148.29,402.677 3098.94,402.677C3027.44,402.677 2969.02,347.791 2969.02,267.221Z" style="fill:rgb(237,74,58);fill-rule:nonzero;"/>
        <rect x="3286.77" y="29.04" width="38.77" height="367.594" style="fill:rgb(237,74,58);fill-rule:nonzero;"/>
        <path d="M3419.2,136.296L3457.97,136.296L3457.97,396.634L3419.2,396.634L3419.2,136.296ZM3416.68,36.594L3460.99,36.594L3460.99,79.396L3416.68,79.396L3416.68,36.594Z" style="fill:rgb(237,74,58);fill-rule:nonzero;"/>
        <path d="M3738.95,252.115C3734.92,204.781 3707.73,163.489 3655.86,163.489C3610.54,163.489 3576.3,201.255 3571.27,252.115L3738.95,252.115ZM3531.99,267.221L3531.99,266.214C3531.99,191.184 3584.86,130.757 3656.87,130.757C3733.91,130.757 3778.23,192.191 3778.23,268.228C3778.23,273.263 3778.23,276.285 3777.72,280.817L3571.27,280.817C3576.81,337.215 3616.59,368.939 3662.91,368.939C3698.67,368.939 3723.84,354.336 3744.99,332.179L3769.16,353.833C3742.98,383.039 3711.25,402.677 3661.91,402.677C3590.4,402.677 3531.99,347.791 3531.99,267.221Z" style="fill:rgb(237,74,58);fill-rule:nonzero;"/>
        <path d="M3846.21,136.296L3884.98,136.296L3884.98,204.277C3904.12,160.97 3941.88,129.751 3991.23,131.765L3991.23,173.56L3988.21,173.56C3931.31,173.56 3884.98,214.347 3884.98,292.902L3884.98,396.634L3846.21,396.634L3846.21,136.296Z" style="fill:rgb(237,74,58);fill-rule:nonzero;"/>
        <path d="M4215.82,170.539L4180.06,170.539L4180.06,136.8L4215.82,136.8L4215.82,114.14C4215.82,84.432 4223.87,61.772 4238.48,47.168C4251.57,34.075 4270.7,27.025 4294.37,27.025C4312.5,27.025 4324.58,29.04 4337.17,33.572L4337.17,67.311C4323.07,63.281 4312.5,60.764 4299.41,60.764C4269.19,60.764 4254.09,78.892 4254.09,116.154L4254.09,137.304L4336.67,137.304L4336.67,170.539L4254.59,170.539L4254.59,396.634L4215.82,396.634L4215.82,170.539Z" style="fill:rgb(237,74,58);fill-rule:nonzero;"/>
        <path d="M4516.94,49.182L4561.76,49.182L4561.76,97.02L4516.94,97.02L4516.94,49.182ZM4428.82,49.182L4473.63,49.182L4473.63,97.02L4428.82,97.02L4428.82,49.182ZM4381.99,297.938L4381.99,136.296L4420.76,136.296L4420.76,288.371C4420.76,336.713 4446.95,366.925 4492.77,366.925C4537.08,366.925 4570.82,334.194 4570.82,285.349L4570.82,136.296L4609.09,136.296L4609.09,396.634L4570.82,396.634L4570.82,351.315C4553.2,379.513 4526.51,402.173 4481.69,402.173C4418.75,402.173 4381.99,359.875 4381.99,297.938Z" style="fill:rgb(237,74,58);fill-rule:nonzero;"/>
        <path d="M4696.21,136.296L4734.98,136.296L4734.98,204.277C4754.12,160.97 4791.88,129.751 4841.23,131.765L4841.23,173.56L4838.21,173.56C4781.31,173.56 4734.98,214.347 4734.98,292.902L4734.98,396.634L4696.21,396.634L4696.21,136.296Z" style="fill:rgb(237,74,58);fill-rule:nonzero;"/>
        <path d="M2408.56,505.745L2670.92,505.745L2670.92,562.143L2470.5,562.143L2470.5,658.322L2648.26,658.322L2648.26,714.72L2470.5,714.72L2470.5,858.234L2408.56,858.234L2408.56,505.745Z" style="fill:rgb(51,55,56);fill-rule:nonzero;"/>
        <path d="M2932.26,726.806L2932.26,725.798C2932.26,678.968 2898.52,640.194 2850.69,640.194C2801.84,640.194 2770.62,678.464 2770.62,724.791L2770.62,725.798C2770.62,772.126 2804.36,810.9 2851.69,810.9C2901.04,810.9 2932.26,772.629 2932.26,726.806ZM2709.69,726.806L2709.69,725.798C2709.69,649.761 2770.12,586.817 2851.69,586.817C2933.27,586.817 2993.19,648.754 2993.19,724.791L2993.19,725.798C2993.19,801.332 2932.77,864.276 2850.69,864.276C2769.61,864.276 2709.69,802.339 2709.69,726.806Z" style="fill:rgb(51,55,56);fill-rule:nonzero;"/>
        <path d="M3055.13,592.356L3116.06,592.356L3116.06,652.279C3132.68,612.499 3163.4,585.306 3210.23,587.321L3210.23,651.776L3206.7,651.776C3153.33,651.776 3116.06,686.521 3116.06,757.019L3116.06,858.234L3055.13,858.234L3055.13,592.356Z" style="fill:rgb(51,55,56);fill-rule:nonzero;"/>
        <path d="M3263.1,592.356L3324.03,592.356L3324.03,632.64C3341.15,608.974 3364.31,586.817 3405.1,586.817C3443.37,586.817 3470.57,605.449 3484.67,633.648C3505.81,605.449 3534.01,586.817 3574.3,586.817C3632.21,586.817 3667.46,623.577 3667.46,688.535L3667.46,858.234L3606.53,858.234L3606.53,707.168C3606.53,664.869 3586.89,642.209 3552.65,642.209C3519.41,642.209 3495.74,665.372 3495.74,708.173L3495.74,858.234L3434.81,858.234L3434.81,706.664C3434.81,665.372 3414.67,642.209 3380.93,642.209C3347.19,642.209 3324.03,667.386 3324.03,708.173L3324.03,858.234L3263.1,858.234L3263.1,592.356Z" style="fill:rgb(51,55,56);fill-rule:nonzero;"/>
        <path d="M3942.91,712.203L3942.91,711.195C3942.91,667.89 3907.15,638.179 3864.85,638.179C3822.56,638.179 3789.32,667.386 3789.32,711.195L3789.32,712.203C3789.32,755.508 3823.06,785.218 3864.85,785.218C3907.15,785.218 3942.91,755.508 3942.91,712.203ZM3740.98,908.086L3763.64,862.261C3792.34,879.886 3822.05,890.461 3858.31,890.461C3912.69,890.461 3942.4,862.261 3942.4,808.884L3942.4,788.24C3920.25,816.942 3892.55,837.084 3848.74,837.084C3786.3,837.084 3727.89,790.757 3727.89,712.707L3727.89,711.699C3727.89,633.144 3786.8,586.817 3848.74,586.817C3893.56,586.817 3921.25,607.463 3941.9,632.137L3941.9,592.356L4002.83,592.356L4002.83,803.849C4002.83,848.666 3991.25,881.9 3969.09,904.057C3944.92,928.228 3907.66,939.81 3859.82,939.81C3816.01,939.81 3775.22,928.731 3740.98,908.086Z" style="fill:rgb(51,55,56);fill-rule:nonzero;"/>
        <path d="M4261.66,706.664C4257.63,667.386 4234.46,636.67 4194.18,636.67C4156.92,636.67 4130.73,665.372 4125.19,706.664L4261.66,706.664ZM4064.77,726.302L4064.77,725.295C4064.77,649.257 4118.65,586.817 4194.68,586.817C4279.28,586.817 4322.08,653.287 4322.08,729.827C4322.08,735.366 4321.58,740.905 4321.07,746.948L4125.7,746.948C4132.24,790.254 4162.96,814.424 4202.24,814.424C4231.95,814.424 4253.1,803.345 4274.24,782.701L4310,814.424C4284.82,844.637 4250.07,864.276 4201.23,864.276C4124.19,864.276 4064.77,808.381 4064.77,726.302Z" style="fill:rgb(51,55,56);fill-rule:nonzero;"/>
        <path d="M4596.52,725.798L4596.52,724.791C4596.52,673.429 4561.77,639.691 4520.48,639.691C4479.19,639.691 4442.93,673.932 4442.93,724.791L4442.93,725.798C4442.93,776.658 4479.19,810.9 4520.48,810.9C4562.28,810.9 4596.52,778.168 4596.52,725.798ZM4444.44,816.942L4444.44,858.234L4383.51,858.234L4383.51,490.638L4444.44,490.638L4444.44,636.67C4464.08,608.974 4491.78,586.817 4535.08,586.817C4597.52,586.817 4658.45,636.166 4658.45,724.791L4658.45,725.798C4658.45,813.921 4598.03,863.773 4535.08,863.773C4490.77,863.773 4463.08,841.617 4444.44,816.942Z" style="fill:rgb(51,55,56);fill-rule:nonzero;"/>
        <path d="M4718.38,761.55L4718.38,592.356L4779.31,592.356L4779.31,743.423C4779.31,784.714 4799.95,807.879 4836.21,807.879C4871.46,807.879 4896.13,783.707 4896.13,742.416L4896.13,592.356L4957.57,592.356L4957.57,858.234L4896.13,858.234L4896.13,816.942C4879.01,842.12 4854.34,863.773 4813.05,863.773C4753.12,863.773 4718.38,823.488 4718.38,761.55Z" style="fill:rgb(51,55,56);fill-rule:nonzero;"/>
        <path d="M5033.6,592.356L5094.53,592.356L5094.53,633.144C5111.66,608.47 5136.33,586.817 5177.62,586.817C5237.54,586.817 5272.29,627.101 5272.29,688.535L5272.29,858.234L5211.36,858.234L5211.36,707.168C5211.36,665.876 5190.71,642.209 5154.46,642.209C5119.21,642.209 5094.53,666.882 5094.53,708.173L5094.53,858.234L5033.6,858.234L5033.6,592.356Z" style="fill:rgb(51,55,56);fill-rule:nonzero;"/>
        <path d="M5547.23,712.203L5547.23,711.195C5547.23,667.89 5511.48,638.179 5469.18,638.179C5426.88,638.179 5393.65,667.386 5393.65,711.195L5393.65,712.203C5393.65,755.508 5427.39,785.218 5469.18,785.218C5511.48,785.218 5547.23,755.508 5547.23,712.203ZM5345.31,908.086L5367.97,862.261C5396.67,879.886 5426.38,890.461 5462.64,890.461C5517.02,890.461 5546.73,862.261 5546.73,808.884L5546.73,788.24C5524.57,816.942 5496.88,837.084 5453.07,837.084C5390.63,837.084 5332.21,790.757 5332.21,712.707L5332.21,711.699C5332.21,633.144 5391.13,586.817 5453.07,586.817C5497.88,586.817 5525.58,607.463 5546.23,632.137L5546.23,592.356L5607.16,592.356L5607.16,803.849C5607.16,848.666 5595.57,881.9 5573.42,904.057C5549.25,928.228 5511.98,939.81 5464.15,939.81C5420.34,939.81 5379.55,928.731 5345.31,908.086Z" style="fill:rgb(51,55,56);fill-rule:nonzero;"/>
        <path d="M2439.84,1073.01L2406.09,1073.01L2406.09,1273.8L2439.84,1273.8L2439.84,1184.46L2516.67,1184.46L2516.67,1273.8L2550.42,1273.8L2550.42,1073.01L2516.67,1073.01L2516.67,1155.36L2439.84,1155.36L2439.84,1073.01Z" style="fill:rgb(51,55,56);fill-rule:nonzero;"/>
        <path d="M2584.76,1231.02C2584.76,1260.12 2604.55,1276.42 2636.56,1276.42C2654.31,1276.42 2663.33,1271.76 2670.31,1260.41L2670.31,1273.8L2700.87,1273.8L2700.87,1176.03C2700.87,1137.32 2680.79,1125.68 2643.54,1125.68C2614.73,1125.68 2599.02,1132.67 2588.54,1149.84L2610.95,1165.55C2617.93,1154.2 2625.79,1152.45 2641.5,1152.45C2663.33,1152.45 2670.31,1157.4 2670.31,1175.73L2670.31,1187.96L2638.89,1187.96C2607.75,1187.96 2584.76,1199.89 2584.76,1231.02ZM2670.31,1218.8C2670.31,1244.12 2658.96,1249.94 2640.05,1249.94C2625.21,1249.94 2615.31,1244.41 2615.31,1231.02C2615.31,1218.22 2622.88,1211.82 2641.21,1211.82L2670.31,1211.82L2670.31,1218.8Z" style="fill:rgb(51,55,56);fill-rule:nonzero;"/>
        <path d="M2736.95,1273.8L2768.09,1273.8L2768.09,1185.92C2768.09,1166.42 2778.85,1153.33 2798.06,1153.33C2814.06,1153.33 2825.7,1160.6 2825.7,1186.21L2825.7,1273.8L2856.55,1273.8L2856.55,1182.72C2856.55,1140.81 2833.56,1125.68 2803.59,1125.68C2784.38,1125.68 2773.91,1132.67 2767.5,1141.4L2767.5,1128.3L2736.95,1128.3L2736.95,1273.8Z" style="fill:rgb(51,55,56);fill-rule:nonzero;"/>
        <path d="M2979.64,1138.49C2971.49,1130.05 2959.85,1125.68 2944.72,1125.68C2909.51,1125.68 2886.81,1148.96 2886.81,1190.87L2886.81,1210.65C2886.81,1248.78 2906.02,1276.42 2944.72,1276.42C2960.72,1276.42 2971.78,1271.76 2979.64,1263.62L2979.64,1273.8L3010.49,1273.8L3010.49,1073.01L2979.64,1073.01L2979.64,1138.49ZM2948.79,1249.65C2926.39,1249.65 2917.66,1231.9 2917.66,1209.2L2917.66,1192.32C2917.66,1167 2927.84,1152.75 2948.79,1152.75C2968.87,1152.75 2979.64,1166.71 2979.64,1190.58L2979.64,1209.2C2979.64,1231.9 2972.07,1249.65 2948.79,1249.65Z" style="fill:rgb(51,55,56);fill-rule:nonzero;"/>
        <path d="M3134.45,1174.86L3169.95,1273.8L3195.56,1273.8L3236.88,1128.3L3204.29,1128.3L3179.85,1220.55L3145.22,1128.3L3121.36,1128.3L3088.76,1219.97L3064.32,1128.3L3032.02,1128.3L3073.05,1273.8L3098.95,1273.8L3134.45,1174.86Z" style="fill:rgb(51,55,56);fill-rule:nonzero;"/>
        <path d="M3343.39,1235.39C3337.57,1244.41 3330.58,1249.65 3313.41,1249.65C3290.42,1249.65 3281.69,1231.9 3281.69,1209.2L3281.69,1208.62L3368.7,1208.62L3368.7,1192.61C3368.7,1149.54 3349.79,1125.68 3309.92,1125.68C3271.8,1125.68 3250.85,1148.09 3250.85,1190.87L3250.85,1210.65C3250.85,1249.36 3272.96,1276.42 3314.58,1276.42C3340.18,1276.42 3356.48,1269.44 3366.67,1251.68L3343.39,1235.39ZM3309.92,1152.75C3327.67,1152.75 3336.4,1163.51 3337.57,1184.76L3281.99,1184.76C3283.44,1164.97 3291.88,1152.75 3309.92,1152.75Z" style="fill:rgb(51,55,56);fill-rule:nonzero;"/>
        <path d="M3505.18,1147.22C3496.16,1132.96 3483.36,1125.68 3464.73,1125.68C3447.56,1125.68 3437.67,1132.96 3432.14,1141.4L3432.14,1128.3L3401.59,1128.3L3401.59,1273.8L3432.72,1273.8L3432.72,1185.92C3432.72,1164.97 3443.78,1153.33 3459.49,1153.33C3469.39,1153.33 3475.79,1157.98 3480.45,1164.68L3505.18,1147.22Z" style="fill:rgb(51,55,56);fill-rule:nonzero;"/>
        <path d="M3601.51,1128.3L3552.91,1185.05L3552.91,1073.01L3521.77,1073.01L3521.77,1273.8L3552.91,1273.8L3552.91,1226.08L3562.8,1215.02L3610.82,1273.8L3648.36,1273.8L3584.05,1190.87L3639.63,1128.3L3601.51,1128.3Z" style="fill:rgb(51,55,56);fill-rule:nonzero;"/>
        <rect x="3740.89" y="1154.2" width="36.666" height="36.666" style="fill:rgb(51,55,56);fill-rule:nonzero;"/>
        <path d="M4053.42,1273.8L3976.89,1153.91L4040.33,1073.01L3999.01,1073.01L3925.09,1169.91L3925.09,1073.01L3891.34,1073.01L3891.34,1273.8L3925.09,1273.8L3925.09,1220.26L3954.77,1182.14L4012.97,1273.8L4053.42,1273.8Z" style="fill:rgb(51,55,56);fill-rule:nonzero;"/>
        <path d="M4192.52,1128.3L4161.68,1128.3L4161.68,1216.18C4161.68,1236.26 4151.2,1249.07 4132,1249.07C4115.7,1249.07 4104.06,1241.79 4104.06,1215.89L4104.06,1128.3L4072.92,1128.3L4072.92,1219.09C4072.92,1261 4096.2,1276.42 4126.18,1276.42C4146.55,1276.42 4155.28,1271.18 4161.97,1260.71L4161.97,1273.8L4192.52,1273.8L4192.52,1128.3Z" style="fill:rgb(51,55,56);fill-rule:nonzero;"/>
        <path d="M4228.9,1273.8L4260.03,1273.8L4260.03,1185.92C4260.03,1166.42 4270.8,1153.33 4290.01,1153.33C4306.01,1153.33 4317.65,1160.6 4317.65,1186.21L4317.65,1273.8L4348.5,1273.8L4348.5,1182.72C4348.5,1140.81 4325.51,1125.68 4295.53,1125.68C4276.33,1125.68 4265.85,1132.67 4259.45,1141.4L4259.45,1128.3L4228.9,1128.3L4228.9,1273.8Z" style="fill:rgb(51,55,56);fill-rule:nonzero;"/>
        <path d="M4488.46,1149.84C4477.11,1131.79 4458.2,1125.68 4434.34,1125.68C4398.84,1125.68 4379.92,1143.14 4379.92,1169.04C4379.92,1199.6 4403.2,1211.24 4430.85,1214.73C4453.54,1217.64 4461.11,1221.13 4461.11,1233.06C4461.11,1243.25 4451.8,1249.07 4435.79,1249.07C4416.59,1249.07 4407.86,1244.41 4401.16,1235.39L4377.59,1252.27C4389.52,1268.27 4406.4,1276.42 4436.08,1276.42C4473.62,1276.42 4491.96,1258.96 4491.96,1232.19C4491.96,1201.34 4471,1189.99 4438.7,1186.21C4421.82,1184.17 4411.06,1180.39 4411.06,1168.17C4411.06,1157.69 4420.66,1153.33 4433.76,1153.33C4451.22,1153.33 4458.49,1157.4 4465.48,1166.42L4488.46,1149.84Z" style="fill:rgb(51,55,56);fill-rule:nonzero;"/>
        <path d="M4511.45,1155.07L4530.08,1155.07L4530.08,1227.53C4530.08,1261.87 4542.59,1273.8 4577.51,1273.8L4591.77,1273.8L4591.77,1245.87L4579.84,1245.87C4563.54,1245.87 4560.92,1238.59 4560.92,1221.71L4560.92,1155.07L4591.77,1155.07L4591.77,1128.3L4560.92,1128.3L4560.92,1096.29L4530.08,1096.29L4530.08,1128.3L4511.45,1128.3L4511.45,1155.07Z" style="fill:rgb(51,55,56);fill-rule:nonzero;"/>
        <rect x="4692.45" y="1154.2" width="36.666" height="36.666" style="fill:rgb(51,55,56);fill-rule:nonzero;"/>
        <path d="M5004.98,1273.8L4928.45,1153.91L4991.89,1073.01L4950.57,1073.01L4876.65,1169.91L4876.65,1073.01L4842.9,1073.01L4842.9,1273.8L4876.65,1273.8L4876.65,1220.26L4906.33,1182.14L4964.53,1273.8L5004.98,1273.8Z" style="fill:rgb(51,55,56);fill-rule:nonzero;"/>
        <path d="M5144.09,1128.3L5113.24,1128.3L5113.24,1216.18C5113.24,1236.26 5102.76,1249.07 5083.56,1249.07C5067.26,1249.07 5055.62,1241.79 5055.62,1215.89L5055.62,1128.3L5024.48,1128.3L5024.48,1219.09C5024.48,1261 5047.76,1276.42 5077.74,1276.42C5098.11,1276.42 5106.84,1271.18 5113.53,1260.71L5113.53,1273.8L5144.09,1273.8L5144.09,1128.3Z" style="fill:rgb(51,55,56);fill-rule:nonzero;"/>
        <path d="M5180.45,1228.11C5180.45,1261.58 5195.88,1273.8 5233.71,1273.8L5233.71,1246.45C5214.5,1246.45 5211.59,1236.55 5211.59,1220.84L5211.59,1073.01L5180.45,1073.01L5180.45,1228.11Z" style="fill:rgb(51,55,56);fill-rule:nonzero;"/>
        <path d="M5253.79,1155.07L5272.41,1155.07L5272.41,1227.53C5272.41,1261.87 5284.93,1273.8 5319.85,1273.8L5334.1,1273.8L5334.1,1245.87L5322.17,1245.87C5305.88,1245.87 5303.26,1238.59 5303.26,1221.71L5303.26,1155.07L5334.1,1155.07L5334.1,1128.3L5303.26,1128.3L5303.26,1096.29L5272.41,1096.29L5272.41,1128.3L5253.79,1128.3L5253.79,1155.07Z" style="fill:rgb(51,55,56);fill-rule:nonzero;"/>
        <path d="M5482.22,1128.3L5451.37,1128.3L5451.37,1216.18C5451.37,1236.26 5440.9,1249.07 5421.69,1249.07C5405.4,1249.07 5393.76,1241.79 5393.76,1215.89L5393.76,1128.3L5362.62,1128.3L5362.62,1219.09C5362.62,1261 5385.9,1276.42 5415.87,1276.42C5436.24,1276.42 5444.97,1271.18 5451.66,1260.71L5451.66,1273.8L5482.22,1273.8L5482.22,1128.3Z" style="fill:rgb(51,55,56);fill-rule:nonzero;"/>
        <path d="M5622.19,1147.22C5613.16,1132.96 5600.36,1125.68 5581.74,1125.68C5564.57,1125.68 5554.67,1132.96 5549.15,1141.4L5549.15,1128.3L5518.59,1128.3L5518.59,1273.8L5549.73,1273.8L5549.73,1185.92C5549.73,1164.97 5560.78,1153.33 5576.5,1153.33C5586.39,1153.33 5592.8,1157.98 5597.45,1164.68L5622.19,1147.22Z" style="fill:rgb(51,55,56);fill-rule:nonzero;"/>
    </g>
</svg>
