<?xml version="1.0" encoding="utf-8"?>
<!-- Generator: Adobe Illustrator 25.0.1, SVG Export Plug-In . SVG Version: 6.00 Build 0)  -->
<svg version="1.1" id="Ebene_1" xmlns="http://www.w3.org/2000/svg" xmlns:xlink="http://www.w3.org/1999/xlink" x="0px" y="0px"
	 viewBox="0 0 318.3 124.1" style="enable-background:new 0 0 318.3 124.1;" xml:space="preserve">
<style type="text/css">
	.st0{fill:#FF9900;}
	.st1{fill:#FFFFFF;}
	.st2{font-family:'CorporateAPro-Bold';}
	.st3{font-size:46.363px;}
	.st4{letter-spacing:4;}
	.st5{letter-spacing:2;}
	.st6{clip-path:url(#SVGID_2_);fill:#FFFFFF;}
</style>
<rect class="st0" width="318.3" height="124.1"/>
<text transform="matrix(1 0 0 1 32.8193 66.265)"><tspan x="0" y="0" class="st1 st2 st3 st4">E</tspan><tspan x="31.2" y="0" class="st1 st2 st3 st4">.</tspan><tspan x="47.5" y="0" class="st1 st2 st3 st5">B</tspan><tspan x="77.9" y="0" class="st1 st2 st3">R</tspan><tspan x="108.2" y="0" class="st1 st2 st3 st5">Ü</tspan><tspan x="142.6" y="0" class="st1 st2 st3 st5">S</tspan><tspan x="170.4" y="0" class="st1 st2 st3 st5">TL</tspan><tspan x="227.7" y="0" class="st1 st2 st3">E</tspan></text>
<g>
	<defs>
		<rect id="SVGID_1_" width="318.3" height="124.1"/>
	</defs>
	<clipPath id="SVGID_2_">
		<use xlink:href="#SVGID_1_"  style="overflow:visible;"/>
	</clipPath>
	<path class="st6" d="M238.7,91V79.5c0-1.2,0.2-1.4,1.7-1.4v-0.7c-0.9,0-1.3,0.1-2.1,0.1c-0.7,0-1.2,0-2.1-0.1v0.7
		c1.5,0,1.7,0.2,1.7,1.4V86l-6.5-8.6c-0.8,0-1.3,0.1-1.9,0.1c-0.6,0-1.1,0-1.9-0.1v0.7c0.7,0,1.1,0.2,1.7,0.8v9.7
		c0,1.2-0.2,1.3-1.7,1.4v0.7c0.9,0,1.4-0.1,2.1-0.1c0.7,0,1.1,0,2,0.1V90c-1.5,0-1.7-0.2-1.7-1.4v-8.8l5.8,7.8
		c0.2,0.2,0.3,0.4,0.5,0.7c0.3,0.4,0.6,0.7,0.8,1.1c0.4,0.5,0.7,1,1.1,1.6H238.7z M224.7,87h-0.6c-0.2,0.7-0.4,1.1-0.8,1.7
		c-0.6,0.9-1.2,1.2-2.3,1.2h-1c-0.9,0-1.1-0.2-1.1-1v-4.7h2.2c0.9,0,1.1,0.3,1.2,1.6h0.7v-4h-0.7c-0.1,1.4-0.3,1.6-1.2,1.6h-2.2
		v-5.2h2.4c1.6,0,2.2,0.6,2.7,2.7h0.6l-0.6-3.5h-9.4v0.7c1.5,0,1.7,0.2,1.7,1.4v9c0,1.2-0.2,1.3-1.7,1.4v0.7h9.6L224.7,87z
		 M197.9,79l3.6,8.6c0.2,0.5,0.4,1,0.6,1.4c0.1,0.2,0.2,0.5,0.4,1.2h0.4c0.4-1.2,0.5-1.6,0.8-2.4l3.6-8.8l0.2,9.5v0.1
		c0,1.1-0.3,1.3-1.7,1.3v0.7c1.3-0.1,2-0.1,3-0.1c1,0,1.7,0,3,0.1V90c-1.4,0-1.7-0.2-1.7-1.4l-0.2-9.1v-0.1c0-1,0.2-1.2,1.7-1.3
		v-0.7c-0.9,0.1-1.3,0.1-2.1,0.1c-0.9,0-1.4,0-2.3-0.1l-3.6,8.7l-3.6-8.7c-0.9,0.1-1.5,0.1-2.3,0.1c-0.8,0-1.3,0-2.2-0.1v0.7
		c1.4,0,1.7,0.2,1.7,1.3l0,0.1l-0.2,9.1c0,1.2-0.2,1.3-1.7,1.4v0.7c1,0,1.5-0.1,2.2-0.1c0.6,0,1.1,0,2,0.1V90
		c-1.4,0-1.7-0.3-1.7-1.2v-0.2L197.9,79z M183.7,83.4v-3.9c0-1.2,0.2-1.4,1.7-1.4v-0.7c-1.3,0.1-2,0.1-3,0.1c-1,0-1.7,0-2.9-0.1v0.7
		c1.5,0,1.7,0.2,1.7,1.4v9.1c0,1.2-0.2,1.3-1.7,1.4v0.7c1.2-0.1,1.9-0.1,2.9-0.1c1,0,1.7,0,3,0.1V90c-1.5,0-1.7-0.2-1.7-1.4v-4.4
		h4.7v4.4c0,1.2-0.2,1.3-1.7,1.4v0.7c1.3-0.1,2-0.1,3-0.1c1,0,1.7,0,2.9,0.1V90c-1.4,0-1.7-0.2-1.7-1.4v-9.1c0-1.2,0.2-1.4,1.7-1.4
		v-0.7c-1.2,0.1-1.9,0.1-2.9,0.1c-1,0-1.7,0-3-0.1v0.7c1.5,0,1.7,0.2,1.7,1.4v3.9H183.7z M176.5,87h-0.6c-0.2,0.7-0.4,1.1-0.8,1.7
		c-0.6,0.9-1.2,1.2-2.3,1.2h-1c-0.9,0-1.1-0.2-1.1-1v-4.7h2.2c0.9,0,1.1,0.3,1.2,1.6h0.7v-4H174c-0.1,1.4-0.3,1.6-1.2,1.6h-2.2v-5.2
		h2.4c1.6,0,2.2,0.6,2.7,2.7h0.6l-0.6-3.5h-9.4v0.7c1.5,0,1.7,0.2,1.7,1.4v9c0,1.2-0.2,1.3-1.7,1.4v0.7h9.6L176.5,87z M161.9,91
		V79.5c0-1.2,0.2-1.4,1.7-1.4v-0.7c-0.9,0-1.3,0.1-2.1,0.1c-0.7,0-1.2,0-2.1-0.1v0.7c1.5,0,1.7,0.2,1.7,1.4V86l-6.5-8.6
		c-0.8,0-1.3,0.1-1.9,0.1c-0.6,0-1.1,0-1.9-0.1v0.7c0.7,0,1.1,0.2,1.7,0.8v9.7c0,1.2-0.2,1.3-1.7,1.4v0.7c0.9,0,1.4-0.1,2.1-0.1
		c0.7,0,1.1,0,2,0.1V90c-1.5,0-1.7-0.2-1.7-1.4v-8.8l5.8,7.8c0.2,0.2,0.3,0.4,0.5,0.7c0.3,0.4,0.6,0.7,0.8,1.1
		c0.4,0.5,0.7,1,1.1,1.6H161.9z M140.8,83.9v-5.7h1.1c0.9,0,1.5,0.2,1.9,0.7c0.4,0.5,0.6,1.3,0.6,2.2c0,1-0.2,1.7-0.7,2.2
		c-0.4,0.5-1,0.6-1.9,0.6H140.8z M140.7,84.7h0.5c1,0,1.4,0.3,2,1.6l1.4,3.2c0.3,0.6,0.4,0.8,0.6,1.2c0.8,0,1.1-0.1,1.7-0.1
		s0.9,0,1.7,0.1V90c-0.9,0-1.1-0.2-1.6-1.3l-1.1-2.3c-0.6-1.2-0.9-1.6-1.9-1.9c0.8-0.2,1.2-0.3,1.7-0.6c0.9-0.5,1.5-1.6,1.5-2.7
		c0-1.2-0.6-2.3-1.6-2.9c-0.8-0.5-1.6-0.7-3.1-0.7h-5.8v0.7c1.5,0,1.7,0.2,1.7,1.4v9c0,1.2-0.2,1.3-1.7,1.4v0.7c1.3-0.1,2-0.1,3-0.1
		c1,0,1.7,0,2.9,0.1V90c-1.4,0-1.7-0.2-1.7-1.4V84.7z M133.5,87h-0.6c-0.2,0.7-0.4,1.1-0.8,1.7c-0.6,0.9-1.2,1.2-2.3,1.2h-1
		c-0.9,0-1.1-0.2-1.1-1v-4.7h2.2c0.9,0,1.1,0.3,1.2,1.6h0.7v-4H131c-0.1,1.4-0.3,1.6-1.2,1.6h-2.2v-5.2h2.4c1.6,0,2.2,0.6,2.7,2.7
		h0.6l-0.6-3.5h-9.4v0.7c1.5,0,1.7,0.2,1.7,1.4v9c0,1.2-0.2,1.3-1.7,1.4v0.7h9.6L133.5,87z M116.6,78.2h0.6c1.6,0,2.3,0.8,2.8,2.9
		h0.7l-0.6-3.7h-9.6l-0.6,3.7h0.7c0.5-2.1,1.2-2.9,2.9-2.9h0.6v10.4c0,1.2-0.2,1.3-1.7,1.4v0.7c1.2-0.1,1.9-0.1,3-0.1
		c1.1,0,1.8,0,3,0.1V90c-1.5,0-1.7-0.2-1.7-1.4V78.2z M105.7,91V79.5c0-1.2,0.2-1.4,1.7-1.4v-0.7c-0.9,0-1.3,0.1-2.1,0.1
		c-0.7,0-1.2,0-2.1-0.1v0.7c1.5,0,1.7,0.2,1.7,1.4V86l-6.5-8.6c-0.8,0-1.3,0.1-1.9,0.1c-0.6,0-1.1,0-1.9-0.1v0.7
		c0.7,0,1.1,0.2,1.7,0.8v9.7c0,1.2-0.2,1.3-1.7,1.4v0.7c0.9,0,1.4-0.1,2.1-0.1c0.7,0,1.1,0,2,0.1V90c-1.5,0-1.7-0.2-1.7-1.4v-8.8
		l5.8,7.8c0.2,0.2,0.3,0.4,0.5,0.7c0.3,0.4,0.6,0.7,0.8,1.1c0.4,0.5,0.7,1,1.1,1.6H105.7z M87.9,78.1c1.4,0,1.7,0.2,1.7,1.4v6.3
		c0,1.3-0.1,2-0.4,2.6c-0.5,0.9-1.6,1.4-2.9,1.4c-1.9,0-2.9-1-2.9-3.1v-7.1c0-1.2,0.2-1.4,1.7-1.4v-0.7c-1.3,0.1-2,0.1-3,0.1
		c-1,0-1.7,0-3-0.1v0.7c1.5,0,1.7,0.2,1.7,1.4v6.6c0,1.5,0.3,2.4,1,3.2c0.8,1,2.2,1.5,3.8,1.5c1.7,0,3.1-0.6,3.9-1.7
		c0.6-0.9,0.8-1.7,0.8-3.2v-6.4c0-1.2,0.2-1.4,1.7-1.4v-0.7c-0.9,0-1.3,0.1-2.1,0.1c-0.7,0-1.2,0-2-0.1V78.1z M72.5,78.1
		c1.4,0,1.7,0.2,1.7,1.4v6.3c0,1.3-0.1,2-0.4,2.6c-0.5,0.9-1.6,1.4-2.9,1.4c-1.9,0-2.9-1-2.9-3.1v-7.1c0-1.2,0.2-1.4,1.7-1.4v-0.7
		c-1.3,0.1-2,0.1-3,0.1c-1,0-1.7,0-3-0.1v0.7c1.5,0,1.7,0.2,1.7,1.4v6.6c0,1.5,0.3,2.4,1,3.2c0.9,1,2.2,1.5,3.8,1.5
		c1.7,0,3.1-0.6,3.9-1.7c0.6-0.9,0.8-1.7,0.8-3.2v-6.4c0-1.2,0.2-1.4,1.7-1.4v-0.7c-0.9,0-1.3,0.1-2.1,0.1c-0.7,0-1.2,0-2-0.1V78.1z
		 M53.2,86.3l2-5.2l1.7,5.2H53.2z M57.2,87.1l0.5,1.6c0.1,0.2,0.2,0.6,0.2,0.7c0,0.4-0.2,0.5-1.4,0.5v0.7c1.2-0.1,1.9-0.1,3-0.1
		c1.1,0,1.8,0,3,0.1V90c-1.2-0.1-1.6-0.3-2-1.4l-4.3-11.7L51.7,88c-0.7,1.7-1,1.9-2.3,2v0.7c1-0.1,1.5-0.1,2.1-0.1s1,0,2.1,0.1V90
		c-1.1,0-1.4-0.2-1.4-0.6c0-0.2,0.1-0.5,0.2-0.9l0.5-1.4H57.2z M40.6,84.1H42c1,0,1.5,0.2,1.8,0.6c0.4,0.5,0.6,1.3,0.6,2.3
		c0,2-0.7,2.9-2.3,2.9h-0.7c-0.7,0-0.9-0.2-0.9-0.8V84.1z M40.6,83.4v-5.2h1.2c1.4,0,2,0.7,2,2.6c0,1.9-0.6,2.6-2.2,2.6H40.6z
		 M36.4,77.4v0.7c1.5,0,1.7,0.2,1.7,1.4v9c0,1.2-0.2,1.3-1.7,1.4v0.7h5.4c1.3,0,2.3-0.2,3.2-0.5c1.3-0.5,2.1-1.8,2.1-3.3
		c0-1.8-1.1-3.1-2.9-3.3c1.6-0.5,2.3-1.4,2.3-2.9c0-1.1-0.5-2.1-1.4-2.6c-0.7-0.5-1.5-0.6-2.9-0.6H36.4z"/>
</g>
</svg>
