<?xml version="1.0" encoding="utf-8"?>
<!-- Generator: Adobe Illustrator 21.1.0, SVG Export Plug-In . SVG Version: 6.00 Build 0)  -->
<svg version="1.1" id="Ebene_1" xmlns="http://www.w3.org/2000/svg" xmlns:xlink="http://www.w3.org/1999/xlink" x="0px" y="0px"
	 viewBox="0 0 150 62" style="enable-background:new 0 0 150 62;" xml:space="preserve">
<style type="text/css">
	.st0{fill:none;stroke:#000000;stroke-width:1.5;}
	.st1{fill-rule:evenodd;clip-rule:evenodd;}
</style>
<path d="M0,32.6h4.9v4.8c0.6-1,1.8-1.6,3.4-1.6c1.4,0,2.9,0.5,3.7,1.4c0.9,1,1.3,2.1,1.3,4.7v7.9H8.4v-7C8.4,40.9,8,40,6.6,40
	c-1.5,0-1.8,0.8-1.8,2.6v7.1H0V32.6"/>
<path d="M26.6,44.6c-1.2,2.8-3.9,5.2-6.6,5.2c-3.9,0-7-3-7-7c0-3.9,3-7,6.8-7c3.9,0,6.9,3.1,6.9,7.2c0,0.4,0,0.6-0.1,1H17
	c0.2,0.9,1.2,1.8,2.7,1.8c1,0,1.6-0.3,2.4-1l0.2-0.2H26.6 M22.9,41.4c-0.2-0.8-1.5-1.8-2.9-1.8c-1.6,0-2.7,0.9-3,1.8H22.9z"/>
<path d="M40.5,44.1c-0.8,3.2-3.6,5.7-6.9,5.7c-4,0-7-3.1-7-7s3-7,7-7c3.3,0,6.3,2.5,7,5.7l-4.5,0c-0.4-1-1.3-1.5-2.4-1.5
	c-1.6,0-2.7,1.2-2.7,2.9c0,1.6,1.1,2.7,2.6,2.7c1.1,0,1.8-0.4,2.5-1.5L40.5,44.1"/>
<polyline points="59.5,36.9 60.9,36.9 60.9,39.8 59.5,39.8 59.5,49.7 54.8,49.7 54.8,39.8 53.3,39.8 53.3,36.9 54.8,36.9 54.8,32.6 
	59.5,32.6 59.5,36.9 "/>
<path d="M40.4,32.6h4.9v4.8c0.6-1,1.8-1.6,3.4-1.6c1.4,0,2.9,0.5,3.7,1.4c0.9,1,1.3,2.1,1.3,4.7v7.9h-4.9v-7c0-1.8-0.4-2.7-1.8-2.7
	c-1.5,0-1.8,0.8-1.8,2.6v7.1h-4.9V32.6"/>
<path d="M4.9,57.5c-0.4,1-1.3,1.7-2.4,1.7C1.1,59.2,0,58,0,56.6C0,55.1,1.1,54,2.6,54C3.9,54,5,55.1,5,56.6c0,0.1,0,0.3,0,0.5H0.9
	c0.2,0.8,0.8,1.4,1.6,1.4c0.6,0,1.1-0.3,1.4-0.8H4.9 M4.1,56.3c0-0.8-0.8-1.5-1.6-1.5c-0.4,0-0.9,0.2-1.2,0.5
	c-0.2,0.3-0.3,0.5-0.4,0.9H4.1z"/>
<path d="M6.9,53.6H6v-1.1h0.9V53.6z M6.9,59.1H6v-4.9h0.9V59.1z"/>
<path d="M11.5,59.1v-2.7c0-1-0.4-1.5-1.2-1.5c-0.8,0-1.3,0.6-1.3,1.5v2.7H8.1v-4.9h0.9v0.5c0.3-0.4,0.8-0.7,1.5-0.7
	c1.2,0,2.1,0.8,2.1,2v3H11.5"/>
<path d="M13.6,59.1v-4.9h0.9v0.4c0.3-0.4,0.7-0.6,1.3-0.6V55c-0.8,0.1-1.2,0.5-1.2,1.4v2.7H13.6"/>
<path d="M17.3,53.6h-0.9v-1.1h0.9V53.6z M17.3,59.1h-0.9v-4.9h0.9V59.1z"/>
<path d="M23.1,57.5c-0.4,1.1-1.3,1.8-2.4,1.8c-1.4,0-2.5-1.1-2.5-2.6c0-1.4,1.1-2.6,2.5-2.6c1.1,0,2.2,0.8,2.4,1.8h-1
	c-0.4-0.7-0.8-0.9-1.4-0.9c-0.9,0-1.6,0.8-1.6,1.7c0,1,0.7,1.8,1.6,1.8c0.6,0,1.1-0.4,1.4-0.9H23.1"/>
<path d="M27.5,59.1v-2.8c0-1-0.4-1.4-1.2-1.4c-0.8,0-1.3,0.6-1.3,1.4v2.8H24v-6.6h0.9v2.2c0.3-0.4,0.8-0.6,1.4-0.6c1.2,0,2,0.8,2,2
	v3.1H27.5"/>
<polyline points="30.6,59.1 29.6,59.1 29.6,55 29,55 29,54.2 29.6,54.2 29.6,52.5 30.6,52.5 30.6,54.2 31.4,54.2 31.4,55 30.6,55 
	30.6,59.1 "/>
<path d="M33,54.2v2.7c0,1,0.4,1.5,1.2,1.5c0.8,0,1.3-0.6,1.3-1.5v-2.7h0.9v4.9h-0.9v-0.5c-0.2,0.4-0.8,0.7-1.5,0.7
	c-1.2,0-2.1-0.8-2.1-2v-3H33"/>
<path d="M41.1,59.1v-2.7c0-1-0.4-1.5-1.2-1.5c-0.8,0-1.3,0.6-1.3,1.5v2.7h-0.9v-4.9h0.9v0.5c0.3-0.4,0.8-0.7,1.5-0.7
	c1.2,0,2.1,0.8,2.1,2v3H41.1"/>
<path d="M48.2,58.5c0,1.4-1.1,2.5-2.7,2.5c-1.1,0-2-0.6-2.4-1.6h1c0.4,0.5,0.8,0.7,1.4,0.7c1.1,0,1.8-0.7,1.8-1.7v-0.1
	c-0.5,0.6-1,0.8-1.8,0.8c-1.4,0-2.6-1.2-2.6-2.6c0-1.4,1.2-2.6,2.7-2.6c0.8,0,1.3,0.2,1.8,0.7v-0.6h0.9V58.5 M43.8,56.6
	c0,1,0.8,1.7,1.7,1.7c1,0,1.7-0.8,1.7-1.8c0-0.9-0.8-1.7-1.7-1.7C44.6,54.9,43.8,55.6,43.8,56.6z"/>
<path d="M54,57.5c-0.4,1-1.3,1.7-2.4,1.7c-1.4,0-2.5-1.2-2.5-2.6c0-1.5,1.1-2.6,2.6-2.6c1.4,0,2.5,1.2,2.5,2.6c0,0.1,0,0.3,0,0.5
	h-4.1c0.2,0.8,0.8,1.4,1.6,1.4c0.6,0,1.1-0.3,1.4-0.8H54 M53.3,56.3c0-0.8-0.8-1.5-1.6-1.5c-0.4,0-0.9,0.2-1.2,0.5
	c-0.2,0.3-0.3,0.5-0.4,0.9H53.3z"/>
<path d="M58.6,59.1v-2.7c0-1-0.4-1.5-1.2-1.5c-0.8,0-1.3,0.6-1.3,1.5v2.7h-0.9v-4.9H56v0.5c0.3-0.4,0.8-0.7,1.5-0.7
	c1.2,0,2.1,0.8,2.1,2v3H58.6"/>
<line class="st0" x1="74.7" y1="0" x2="74.7" y2="61.1"/>
<g>
	<g>
		<path d="M128.6,6.2C128.6,6.2,128.7,6.2,128.6,6.2L128.6,6.2z"/>
		<path d="M128.4,6.4C128.4,6.4,128.4,6.4,128.4,6.4L128.4,6.4z"/>
		<path d="M128.8,8C128.8,8,128.8,8,128.8,8C128.8,8,128.8,8,128.8,8z"/>
		<path d="M129.9,6.4c-0.1-0.1-0.2-0.2-0.4-0.2C129.4,6,129,6.4,129,6c-0.2,0-0.5,0-0.7,0c0,0-0.4,0.2-0.4-0.1c0,0-1.1-0.5-1.1-0.5
			c-0.6,0-0.4,1.3-0.7,1.3c0,0.5-0.5,1-0.5,1.5c-0.1,0-0.3,1.3-0.4,1.3c-0.1,0.6,0.5,0.4,0.5,0.7c0.2,0,0.7,0.3,0.8,0.2
			c0.3,0,0.4-1,0.4-1.2c-0.1-0.1,0,0.1-0.1,0.1c-0.2,0.2,0-0.3,0-0.1c0,0,0.3-0.3,0.2-0.3c0-0.4,0.4-0.8,0.4-1.2
			c0.1-0.1,0.2-0.3,0.3-0.3c0-0.1,0.7,0,0.8,0c0,0,0.1,0.6,0.1,0.7c0-0.1,0.2-0.5,0.2-0.1c0,0,0.2,0.1,0.3,0.1
			c0.1-0.3,0.9-0.1,1-0.4C130.8,7.6,129.9,6.5,129.9,6.4z M128.4,6.4C128.7,6.4,128.2,6.6,128.4,6.4L128.4,6.4z M128.7,6.3
			c0,0-0.1,0-0.1,0C128.6,6.2,128.6,6.3,128.7,6.3C128.7,6.2,128.8,6.2,128.7,6.3z M128.8,7.3C128.8,7.3,128.8,7.3,128.8,7.3
			c-0.1,0,0.2-0.4,0.2,0C128.9,7.3,128.8,7.5,128.8,7.3z"/>
	</g>
	<path class="st1" d="M113.4,3.9c0,0.2,0.2,0.3,0.2,0.6c0.2,0-0.1,0.6-0.1,0.5c-0.2,0-0.5,0.2-0.7,0.2c0,0.2-0.6-0.1-0.6-0.1
		c0-0.3-0.5-1.1,0.1-1.1C112.2,3.9,113.3,3.8,113.4,3.9C113.4,3.9,113.3,3.9,113.4,3.9z"/>
	<path class="st1" d="M110.2,9.7c0,0-0.4-0.4-0.4-0.4c-0.1,0-0.8-0.2-0.8-0.1c-0.2,0-1,0.1-1,0.2c-0.4,0-0.6,0.1-0.4-0.3
		c0.1,0,0.4-0.2,0.5,0c0.1,0,0.3-0.2,0.4-0.2c0-0.1,0.8-0.3,0.8-0.5c0.3,0-0.4-0.6-0.5-0.7c0,0-0.8-0.3-0.8-0.2c0,0,0,0,0,0
		c-0.3,0-0.5,0.1-0.8,0.1c0,0-0.4,0.3-0.5,0.3c-0.2,0.4-0.7,0.5-0.8,1c-0.1,0-0.1,0.9,0,0.9c0,0.3,0.3,0.5,0.4,0.7
		c0.3,0.1,0.6,0.3,0.9,0.3c0.1,0,1-0.1,1-0.2c0.1,0,0.8-0.2,0.8,0.1c0.1,0-0.1,0.4-0.2,0.4c0,0.1-0.4,0-0.5,0c0-0.3-1,0.4-1.1,0.4
		c0,0.1-0.2,0.2-0.2,0.4c0,0,0.2,0.2,0.3,0.2c0,0.2,0.6,0.2,0.6,0.4c0.1-0.1,0.6,0,0.7,0c0,0,0.5-0.2,0.5-0.2c0,0.1,0.7-0.4,0.7-0.4
		c0,0,0.4-0.6,0.5-0.7C110.5,11,110.7,10,110.2,9.7z"/>
	<path class="st1" d="M130.4,8.1c-0.1,0-0.8,0.2-0.8,0.3c0.2,0.1,0.5-0.1,0.7-0.1c0,0.1-0.4,1.3-0.4,1.3c0,0.1-0.5,1.4-0.5,1.4
		c-0.3,0.2-0.4,0.2-0.7,0.1c0-0.2-0.7-0.1-0.7-0.3c-0.3-0.1,0.4-1.5,0.4-1.7c0,0,0.2-0.5,0.2-0.5c0-0.4,0.6-0.2,0.7-0.4
		c0.1-0.1,0.6-0.1,0.6-0.2C130.3,7.9,130.4,7.6,130.4,8.1C130.4,8.1,130.4,8.1,130.4,8.1z"/>
	<g>
		<path class="st1" d="M112.9,6C112.9,6,112.9,6,112.9,6C112.9,6,112.9,6,112.9,6z"/>
		<path class="st1" d="M114.6,8.7c-0.1,0-0.7-3-0.8-3.3c-0.1,0-0.2-0.1-0.4-0.1c0,0-0.3,0.1-0.3,0.1c-0.2,0.1-1,0.1-0.8,0.5
			c0.1,0.5,0.5,1.2,0.5,1.7c0,0,0.4,1.6,0.4,1.7c0.2,0,0.1,0.8,0.2,0.9c0,0.1,1-0.1,1-0.1C115.2,10,114.6,9.1,114.6,8.7z M112.9,6.1
			C112.9,6.1,113,6.2,112.9,6.1C112.8,6.1,112.8,6,112.9,6.1C112.9,6,112.9,6,112.9,6.1C112.9,6,112.9,6.1,112.9,6.1z"/>
	</g>
	<g>
		<path class="st1" d="M118.7,8C118.7,8,118.7,8,118.7,8C118.7,8,118.7,8,118.7,8z"/>
		<path class="st1" d="M121.3,9.9C121.2,9.9,121.3,9.9,121.3,9.9L121.3,9.9z"/>
		<path class="st1" d="M121.3,8.3C121.3,8.4,121.3,8.3,121.3,8.3L121.3,8.3z"/>
		<path class="st1" d="M121.5,8.5C121.5,8.5,121.5,8.5,121.5,8.5C121.5,8.5,121.5,8.5,121.5,8.5z"/>
		<path class="st1" d="M121.9,4.8C121.9,4.8,121.9,4.8,121.9,4.8L121.9,4.8z"/>
		<path class="st1" d="M120.6,10.1C120.6,10.1,120.7,10.1,120.6,10.1C120.7,10.1,120.6,10.1,120.6,10.1z"/>
		<path class="st1" d="M121.9,6.7C121.9,6.7,121.9,6.7,121.9,6.7L121.9,6.7z"/>
		<path class="st1" d="M122,8.5C122,8.5,122,8.5,122,8.5C122,8.5,122,8.5,122,8.5z"/>
		<path class="st1" d="M122.5,7.9c0-0.1-0.1-1.2-0.2-1.2c0-0.1-0.3,0.1-0.3,0c-0.1,0,0.1-0.1,0.1-0.1c0.1,0,0.3-0.1,0.3-0.2
			c0,0,0.1-1.9,0-1.9c0-0.2-1.4-0.1-1.5,0c0,0.3-0.4,0.1-0.4,0c0,0,0,0,0,0c-0.4,0-1.6-0.4-1.8,0.1c-0.4,0-1,0.6-1.1,1
			c-0.4,0.3-0.4,1.2-0.4,1.6c0.1,0.3,0.3,1.7,0.8,1.7c0.1,0.4,1,0.6,1.3,0.6c0.1,0.2,0.9-0.1,1.1-0.1c0,0,0.6-0.5,0.5-0.1
			c0,0.2-0.2,0.5-0.4,0.6c-0.1,0-0.4,0.3-0.4,0.2c-0.2,0-0.4,0-0.6,0c0-0.1-0.6-0.3-0.6-0.4c-0.5,0-1,0-1.4,0
			c-0.1,0.2-0.3,0.2-0.1,0.5c0.1,0,0.2,0.6,0.3,0.6c0.1,0.3,0.9,0.6,1.1,0.6c0,0.1,1.1,0.2,1.2,0.1c0,0,0.2-0.3,0.2-0.3
			c0.2,0,0.4,0,0.1,0.2c0.1,0.4,0.8-0.3,0.8-0.4c-0.1,0.2,0.7-0.3,0.6-0.3c0.1-0.2,0.3-0.2,0.3-0.5c0.1-0.3,0.3-0.6,0.3-0.9
			C122.4,9.1,122.4,7.9,122.5,7.9z M120.7,10.1C120.9,10.1,120.6,10.3,120.7,10.1C120.7,10.1,120.7,10.1,120.7,10.1z M120.6,10.9
			c0-0.1,0.1-0.1,0.1-0.1c0,0,0,0,0,0C120.8,10.8,120.9,11,120.6,10.9z M119,5.3c0,0.1-0.3,0.2-0.3,0C118.8,5.3,118.9,5.3,119,5.3z
			 M118.4,8.2c-0.2,0.3-0.1-0.2-0.1-0.1c0,0,0,0,0,0C118.4,8.1,118.5,8.2,118.4,8.2z M118.6,8.1c0-0.1,0.2-0.1,0.2-0.1c0,0,0,0,0,0
			C118.9,8,118.7,8.2,118.6,8.1z M120.4,8.3L120.4,8.3C120.6,8.3,120.4,8.6,120.4,8.3z M119.9,7.9c-0.1-0.1-0.8,0-0.8-0.3
			c-0.1-0.1-0.2-0.5-0.2-0.6c0,0,0-0.7,0.2-0.7c0-0.1,0.7-0.5,0.6-0.5c0,0,0,0,0,0c0-0.2,0.7-0.2,0.7-0.3c0.5,0-0.2,0.1,0,0.5
			C121.2,6.2,120.9,7.9,119.9,7.9z M120.9,5.3c-0.5,0,0.3-0.2,0.4-0.2c0,0,0.7-0.2,0.7-0.2c0.1,0,0.1,0.1,0,0.1
			C122,5.1,120.9,5.4,120.9,5.3z M121.4,6.9c0,0,0.4-0.1,0.5-0.2c0.1,0-0.2,0.4-0.4,0.3c0-0.1-0.3,0-0.3,0
			C120.7,7,121.4,6.9,121.4,6.9z M121.5,8.6c-0.1,0-0.1-0.1-0.1-0.1c0,0,0,0,0,0C121.6,8.5,121.6,8.5,121.5,8.6z M121.3,8.3
			C121.6,8.4,121.1,8.6,121.3,8.3L121.3,8.3z M121,8.3C121.1,8.3,121,8.6,121,8.3C121,8.3,121,8.3,121,8.3z M121.2,10
			c-0.1,0-0.4-0.1-0.2-0.1c0,0,0.2,0,0.2,0C121.4,9.9,121.2,10,121.2,10z M121.5,10.4C122,10.4,121.1,10.7,121.5,10.4L121.5,10.4z
			 M121.8,8.6c0-0.1,0.1-0.1,0.1-0.1c0,0,0,0,0,0C122.1,8.5,122,8.7,121.8,8.6z"/>
		<path class="st1" d="M118.7,5.3C118.7,5.3,118.8,5.3,118.7,5.3L118.7,5.3z"/>
		<path class="st1" d="M121.5,10.4C121.5,10.4,121.5,10.4,121.5,10.4L121.5,10.4z"/>
	</g>
	<path d="M104.9,13.9c0-0.4-0.4,0-0.5,0c0,0.1-0.4,0.4-0.5,0.6c-0.2,0-0.3,0.8-0.3,0.9c-0.3,0.2-0.5,0.6-1,0.5c0,0-0.3-0.2-0.1-0.3
		c0.1-0.1,0.2-0.2,0.2-0.2c0.3,0,0.6-1.1,0.9-1.1c0-0.1,0.8-0.9,0.9-1c0-0.5-0.8-0.8-1.2-0.8c0-0.2-0.6,0.1-0.7,0.3
		c-0.2,0-0.7,0.4-0.9,0.3c0-0.1-0.2-0.1-0.2-0.1c-0.1-0.1,0.2-0.1,0.2-0.1c0.1,0,0.2-0.1,0.4-0.1c0,0,0.6-0.3,0.7-0.3c0,0,0,0,0,0
		c0.1-0.5-1.3,0.1-1.6,0.2c-0.3,0.3-1,0.7-1,1.2c-0.3,0-0.1,1.3-0.1,1.4c0,0,0.6-0.3,0.7-0.4c0.1,0,0.3-0.1,0.4-0.1
		c0.2-0.2,0.3,0.2,0.1,0.2c0,0.1-0.7,0.3-0.8,0.3c0,0-0.7,0.2-0.3,0.5c0,0.1,0.4,0.7,0.5,0.7c0,0,0.4,0.3,0.4,0.4
		c0.2,0,0.4,0.4,0.7,0.4c0,0.4,1.6,0,1.8,0c0.7-0.2,1.5-1.2,1.5-1.9C105.1,15.2,105.1,13.9,104.9,13.9z M101.7,14.9
		c0,0-0.2,0.3-0.2,0.2c-0.1,0-0.1-0.6-0.1-0.6c-0.1,0,0.2-0.3,0.2-0.2c0-0.2,0.2-0.4,0.5-0.4c0,0,0,0,0,0c0-0.2,0.4-0.1,0.5-0.1
		c0,0,0.1,0,0.1,0.1c0,0.1-0.2,0.1-0.2,0.2c-0.1,0-0.5,0.5-0.1,0.5c0-0.2,0.7-0.3,0.7-0.4c0.2,0,0.3,0.1,0,0.2
		C103,14.5,101.7,14.6,101.7,14.9z"/>
	<g>
		<path class="st1" d="M98.3,23.5C98.3,23.5,98.3,23.5,98.3,23.5C98.3,23.5,98.3,23.5,98.3,23.5z"/>
		<path class="st1" d="M98.9,23.3C98.9,23.3,98.9,23.3,98.9,23.3L98.9,23.3z"/>
		<path class="st1" d="M101.2,20.4c-0.4-0.2-1.2-0.2-1.5-0.5c-0.2,0-1.1-0.3-1.2-0.4c-0.4-0.1-1-0.5-1.4-0.5c0-0.2-1.4-0.3-1.4-0.4
			c0,0,0,0,0,0c-0.4-0.1-0.6,0.6-0.6,1c0,0-0.2,0.3-0.1,0.4c0,0.1,0.2,0.1,0.2,0.2c0.1,0,0.9,0.2,0.9,0.3c0.3,0,0.7,0.4,0.2,0.4
			c-0.1,0.1-0.2,0.3-0.2,0.4c0,0-0.1,0.4-0.1,0.5c0,0-0.1,0-0.1,0.1c-0.1,0-0.2,1-0.1,1.1c0,0.6,0.3,0.2,0.6,0.3
			c0,0-0.1,0.2-0.2,0.2c0,0.1,0,0.2,0,0.4c0.1,0.1,0.3,0.4,0.5,0.4c0.1,0.2,1.4,0.6,1.4,0.6c0.3,0,1.7-0.1,1.7-0.5
			c0.2-0.2,0.7-0.7,0.7-1c0.2-0.1,0.1-0.9,0.2-0.9c0,0-0.1-0.3-0.1-0.3c0-0.2,0.2-0.2,0.2-0.3c0.1,0,0.2-0.5,0.3-0.6
			C101.4,21,101.3,20.6,101.2,20.4z M96.5,23C96.5,23,96.5,23,96.5,23C96.8,22.9,96.3,23.1,96.5,23z M96.8,24
			C96.8,24,96.9,24,96.8,24C96.9,24,96.9,24,96.8,24C97.3,24,96.6,24.1,96.8,24z M97.2,23.9c0,0,0.2-0.1,0.2-0.1
			C97.7,23.8,97.1,24.1,97.2,23.9z M97.8,23.6C97.8,23.6,97.8,23.6,97.8,23.6c0.1,0,0.1,0,0.2,0C98,23.7,97.5,23.9,97.8,23.6z
			 M98.1,23.5c0-0.1,0.1,0,0.2-0.1c0,0,0,0,0,0c0.1,0,0,0,0.1,0C98.5,23.6,98.2,23.6,98.1,23.5z M98.8,23.4c0,0-0.2,0-0.2,0
			c-0.2,0,0.3-0.2,0.2-0.1C99,23.3,98.9,23.4,98.8,23.4z M99.2,22.8c-0.2,0-0.3,0.3-0.5,0.3c-0.1,0.1-0.8,0-0.9-0.2
			c-0.2-0.1-0.4-0.3-0.4-0.5c-0.3,0,0.3-1.3,0.5-1.4c0-0.1,0.4-0.1,0.5-0.1c0.5-0.2,1,0.5,1,0.9C99.6,21.9,99.2,22.8,99.2,22.8z
			 M100.3,22.9c-0.1,0-0.1-0.1,0-0.1C100.3,22.8,100.3,22.8,100.3,22.9z"/>
		<path class="st1" d="M100.2,22.8C100.2,22.8,100.2,22.8,100.2,22.8L100.2,22.8z"/>
		<path class="st1" d="M97.4,23.8C97.4,23.8,97.4,23.8,97.4,23.8L97.4,23.8z"/>
	</g>
</g>
<g>
	<path class="st1" d="M131.5,41.6c0,0.2-0.4,0.4-0.4,0.5c0,0-0.6,0.5-0.6,0.5c-0.2,0.1-0.4,0.6-0.6,0.6c0,0-0.6,0.5-0.6,0.5
		c0,0-0.6,0.4-0.6,0.4c0,0.3-0.7,0.3-0.7,0.5c-0.1,0.1-0.3,0.1-0.4,0.2c-0.1,0.2-0.3,0.1-0.4,0.1c-0.1,0-0.2,0.2-0.2,0.2
		c-0.1,0.2-0.6,0.4-0.8,0.5c-0.1,0.1-0.8,0.3-0.8,0.2c-0.2,0-0.6,0.3-0.8,0.4c0,0.1-0.7,0.3-0.7,0.3c0,0.1-0.8,0.2-0.9,0.2
		c0,0.1-2.2,0.4-2.2,0.3c-0.2-0.1-0.2-0.6,0-0.6c0-0.1,1-0.3,1.1-0.3c0,0.1,1.5-0.3,1.7-0.3c0-0.1,0.3-0.1,0.3-0.2
		c0,0,0.6-0.2,0.6-0.2c0,0,0.4-0.2,0.4-0.2c0.1,0,0.2-0.1,0.4-0.1c0.2-0.3,1-0.3,1.2-0.6c0.4,0,0.8-0.7,1.2-0.7
		c0-0.2,1.1-0.6,1.2-0.8c0.1,0,1.1-0.8,1.1-0.9c0.1,0,0.6-0.5,0.7-0.3C130.8,42.1,131.3,41.6,131.5,41.6
		C131.5,41.7,131.5,41.6,131.5,41.6z"/>
	<path class="st1" d="M117.7,46.5c0.1,0.3,2,0,2,0.1c0.2,0,0.9-0.2,0.8,0.1c-0.1,0-0.4,0.3-0.3,0.3c0,0.4-0.3,0.1-0.4,0.4
		c-0.2,0-0.2-0.3-0.2-0.3c0,0.5-1.6,0.2-1.9,0.2c-0.3,0-0.7-0.1-1.1-0.1c0-0.1-0.8,0-0.9-0.2c-0.2-0.1,0.5-0.4,0.6-0.4
		C116.4,46.3,117.6,46.5,117.7,46.5C117.7,46.5,117.7,46.5,117.7,46.5z"/>
	<path class="st1" d="M126.5,30.2c0.1,0.3,0.3,1-0.3,0.7C126.2,30.7,126,30.1,126.5,30.2C126.5,30.2,126.5,30.2,126.5,30.2z"/>
	<path class="st1" d="M126.8,31.2c0,0.4,0.1,0.4-0.4,0.4C126.2,31.3,126.6,31.1,126.8,31.2C126.8,31.2,126.7,31.2,126.8,31.2z"/>
	<g>
		<path d="M123.1,31.2C123.1,31.2,123.1,31.2,123.1,31.2L123.1,31.2z"/>
		<path d="M120.9,31.7C120.9,31.7,120.9,31.7,120.9,31.7L120.9,31.7z"/>
		<path d="M122.6,29.6C122.6,29.6,122.6,29.6,122.6,29.6L122.6,29.6z"/>
		<path d="M120.6,30.8C120.6,30.8,120.7,30.8,120.6,30.8L120.6,30.8z"/>
		<path d="M123.1,29.4C123.1,29.4,123.1,29.4,123.1,29.4L123.1,29.4z"/>
		<path d="M122.6,30.4C122.6,30.4,122.6,30.4,122.6,30.4L122.6,30.4z"/>
		<path d="M122.4,31.6C122.3,31.6,122.4,31.6,122.4,31.6L122.4,31.6z"/>
		<path d="M121.4,31.5C121.4,31.5,121.4,31.5,121.4,31.5C121.4,31.5,121.4,31.5,121.4,31.5z"/>
		<path d="M122.1,29.8C122.1,29.8,122.1,29.8,122.1,29.8L122.1,29.8z"/>
		<path d="M124.3,30.1C124.3,30.1,124.3,30.1,124.3,30.1L124.3,30.1z"/>
		<path d="M125.6,28.3C125.6,28.3,125.6,28.3,125.6,28.3C125.6,28.3,125.6,28.3,125.6,28.3z"/>
		<path d="M124.7,30.1C124.7,30.1,124.7,30.1,124.7,30.1C124.7,30.1,124.7,30.1,124.7,30.1z"/>
		<path d="M125.9,29.7c0,0.1-0.4-0.1-0.1-0.1c0,0,0.1,0,0.1,0c0.1,0,0.1-0.1,0.1-0.1c0.2-0.1-0.4-1-0.4-1.2c0,0,0,0,0,0
			c-0.3,0-1.6,0.4-1.7,0.6c-0.2,0.1-0.4,0.3-0.6,0.3c-0.1,0.2-0.9-0.4-0.9-0.4c0,0-0.3-0.1-0.3-0.2c-0.3,0-0.5,0-0.8,0
			c0,0-0.7,0.4-0.7,0.4c-0.1,0.2-0.3,0.3-0.4,0.5c-0.2,0-0.1,0.7-0.3,0.7c0,0.3,0,0.7,0,1c0,0,0.3,0.6,0.3,0.6
			c0.1,0,0.4,0.4,0.4,0.5c0.2,0,0.4,0,0.6,0c0,0-0.2,0.2-0.2,0.2c-0.1,0,0.8,0.3,0.8,0.2c0.4,0,0.7-0.2,1-0.2c0,0,0.6-0.5,0.6-0.5
			c0-0.2,0.4-0.4,0.4-0.7c0.2-0.1,0.4-0.3,0.6-0.3c0-0.1,0.4-0.5,0.4-0.1c0.1,0,0.7-0.4,0.9-0.4c0-0.1,0.7-0.1,0.7-0.4
			C126.5,29.8,126,29.7,125.9,29.7z M120.1,30.2C120.1,30.2,120.2,30.2,120.1,30.2C120.1,30.2,120.1,30.2,120.1,30.2z M120.1,30.7
			c0.1,0,0.1,0,0.1,0.1C120.1,30.7,119.9,30.8,120.1,30.7z M123.3,30.9C123.2,30.9,123.3,30.9,123.3,30.9
			C123.3,30.9,123.3,30.9,123.3,30.9C123.2,30.9,123.2,30.9,123.3,30.9z M122.8,30.6c0,0-0.1,0.1-0.1,0c0,0,0,0,0,0
			c-0.2,0,0.1-0.1,0.2-0.1C122.9,30.5,122.9,30.6,122.8,30.6z M122.4,31.2C122.4,31.2,122.4,31.1,122.4,31.2
			C122.4,31.1,122.5,31.4,122.4,31.2C122.4,31.2,122.4,31.2,122.4,31.2z M122.1,29.8C122.6,29.8,121.8,30.1,122.1,29.8L122.1,29.8z
			 M121.7,29.8c0.3,0-0.1,0.5,0.2,0.5c0,0.2,0.5-0.1,0.5,0.2c-0.1,0-0.7-0.1-0.7-0.1c0,0,0,0,0,0c0,0,0,0,0,0c0-0.1-0.1-0.3-0.1-0.3
			C121.3,30,121.7,30,121.7,29.8z M120.6,30.8C121.1,30.9,120.4,31.1,120.6,30.8L120.6,30.8z M120.8,31.8c-0.1,0,0.1-0.1,0.1-0.1
			c0.1,0,0.1,0,0.2,0C121.1,31.8,120.8,31.9,120.8,31.8z M121,30.4c0,0.1-0.5,0-0.5-0.2c0,0,0,0,0,0c-0.1,0,0.4,0,0.5,0
			c0-0.2,0.5,0,0.4,0C121.5,30.6,121.2,30.4,121,30.4z M121.2,31.6c0,0,0.2,0,0.2-0.1c0,0,0,0,0,0C121.7,31.5,121.1,31.8,121.2,31.6
			z M121.3,32.1c0.2,0,0.3-0.3,0.5-0.4c0,0,0,0,0,0c0-0.1,0.2-0.1,0.3,0C122.1,31.9,121.3,32.2,121.3,32.1z M122.4,31.6
			C122.7,31.6,122,31.8,122.4,31.6L122.4,31.6z M122.6,29.6c0,0,0.1,0,0.1,0C122.7,29.7,122.3,29.8,122.6,29.6z M122.6,30.4
			C122.6,30.4,122.6,30.4,122.6,30.4C122.6,30.4,122.6,30.4,122.6,30.4z M122.6,31.2c-0.3-0.1,0.1-0.2,0.3-0.1
			C122.9,31.2,122.6,31.4,122.6,31.2z M123.1,29.4C123.4,29.4,122.7,29.8,123.1,29.4L123.1,29.4z M123.1,31.2
			C124.1,31.2,123,31.4,123.1,31.2L123.1,31.2z M123.9,29.3C123.9,29.5,123.9,29.3,123.9,29.3C123.9,29.3,123.9,29.3,123.9,29.3z
			 M124.3,30.1C124.6,30.1,124.1,30.3,124.3,30.1L124.3,30.1z M124.4,29.1C124.4,29.1,124.4,29.1,124.4,29.1c0,0,0.1,0,0.1,0
			C124.5,29.3,124.4,29.2,124.4,29.1z M124.7,30.1C124.7,30.1,124.7,30.1,124.7,30.1C124.9,30.2,124.7,30.4,124.7,30.1z M125.3,30.1
			c0-0.1,0-0.1,0-0.2C125.5,30,125.4,30.3,125.3,30.1z"/>
		<path d="M125.3,30C125.3,30,125.4,30,125.3,30L125.3,30z"/>
		<path d="M120.1,30.2C120.1,30.2,120.1,30.2,120.1,30.2L120.1,30.2z"/>
		<path d="M120.1,30.7C120.1,30.7,120.1,30.7,120.1,30.7L120.1,30.7z"/>
	</g>
	<path class="st1" d="M114.4,32.2c0-0.1-0.9-0.2-0.9-0.2c0,0,0,0,0,0c-0.4,0-1.2,0.1-1.4,0.5c-0.3,0-0.1,0.5-0.4,0.5
		c0,0-0.3,0.4-0.3,0.4c0,0.1-0.3,0.7-0.1,0.7c0,0.3,0.6-0.1,0.7-0.1c0.1-0.3,1.5-0.4,1.5-0.6c0.5,0-0.1-0.7,0.3-0.7
		c0-0.1,0.6-0.1,0.6-0.1C114.5,32.8,114.8,32.2,114.4,32.2z M112.3,33.2c0,0,0.3-0.2,0.4-0.2c0,0,0,0,0,0c0-0.1,0.3-0.1,0.3-0.1
		C113.1,33.1,112.5,33.3,112.3,33.2z"/>
	<g>
		<path class="st1" d="M137.3,23.3C137.2,23.3,137.3,23.3,137.3,23.3L137.3,23.3z"/>
		<path class="st1" d="M100.2,42.6C100.2,42.6,100.3,42.6,100.2,42.6L100.2,42.6z"/>
		<path class="st1" d="M100.1,45.3C100.1,45.3,100.1,45.3,100.1,45.3L100.1,45.3z"/>
		<path class="st1" d="M130.5,21.2C130.5,21.2,130.5,21.2,130.5,21.2L130.5,21.2z"/>
		<path class="st1" d="M100.5,44.9C100.5,44.9,100.5,44.9,100.5,44.9C100.5,44.9,100.5,44.9,100.5,44.9z"/>
		<path class="st1" d="M100.3,38C100.3,38,100.3,38,100.3,38L100.3,38z"/>
		<path class="st1" d="M121.7,36.6C121.7,36.7,121.7,36.6,121.7,36.6L121.7,36.6z"/>
		<path class="st1" d="M98.1,40.5C98.1,40.5,98.1,40.5,98.1,40.5L98.1,40.5z"/>
		<path class="st1" d="M99.3,38.8C99.3,38.8,99.3,38.8,99.3,38.8C99.3,38.8,99.3,38.8,99.3,38.8z"/>
		<path class="st1" d="M126.8,21.5C126.8,21.5,126.9,21.5,126.8,21.5L126.8,21.5z"/>
		<path class="st1" d="M99,38.9C99,38.9,99,38.9,99,38.9L99,38.9z"/>
		<path class="st1" d="M138.7,22C138.7,22.1,138.8,22,138.7,22L138.7,22z"/>
		<path class="st1" d="M129,20.7C129,20.7,129,20.7,129,20.7L129,20.7z"/>
		<path class="st1" d="M99.3,37.7C99.3,37.7,99.3,37.7,99.3,37.7C99.2,37.7,99.3,37.7,99.3,37.7z"/>
		<path class="st1" d="M98,32.6C98,32.6,98,32.6,98,32.6C98,32.6,98,32.6,98,32.6z"/>
		<path class="st1" d="M104.4,49.3C104.4,49.3,104.4,49.3,104.4,49.3L104.4,49.3z"/>
		<path class="st1" d="M132.3,40.1C132.3,40.1,132.4,40.1,132.3,40.1L132.3,40.1z"/>
		<path class="st1" d="M103.7,49C103.7,49,103.7,49,103.7,49L103.7,49z"/>
		<path class="st1" d="M108.5,41.3C108.5,41.3,108.5,41.3,108.5,41.3L108.5,41.3z"/>
		<path class="st1" d="M95.8,30.7C95.8,30.7,95.8,30.7,95.8,30.7L95.8,30.7z"/>
		<path class="st1" d="M96.8,38.6C96.8,38.6,96.8,38.6,96.8,38.6C96.8,38.6,96.8,38.6,96.8,38.6z"/>
		<path class="st1" d="M96.6,33.6C96.6,33.7,96.6,33.6,96.6,33.6L96.6,33.6z"/>
		<path class="st1" d="M101.3,42.8C101.2,42.8,101.3,42.8,101.3,42.8L101.3,42.8z"/>
		<path class="st1" d="M141.1,23.3C141.1,23.3,141.1,23.3,141.1,23.3L141.1,23.3z"/>
		<path class="st1" d="M100.8,43.3C100.8,43.3,100.8,43.3,100.8,43.3C100.8,43.3,100.8,43.3,100.8,43.3z"/>
		<path class="st1" d="M100.9,44.9C100.9,45,100.9,44.9,100.9,44.9L100.9,44.9z"/>
		<path class="st1" d="M134.4,35.6C134.4,35.6,134.5,35.6,134.4,35.6L134.4,35.6z"/>
		<path class="st1" d="M106.5,40.7C106.5,40.7,106.6,40.7,106.5,40.7L106.5,40.7z"/>
		<path class="st1" d="M104.5,43.7C104.5,43.7,104.5,43.7,104.5,43.7L104.5,43.7z"/>
		<path class="st1" d="M105.8,36.6C105.8,36.6,105.8,36.6,105.8,36.6C105.8,36.6,105.8,36.6,105.8,36.6z"/>
		<path class="st1" d="M138.4,16.6C138.4,16.6,138.4,16.6,138.4,16.6L138.4,16.6z"/>
		<path class="st1" d="M123.7,22.1C123.7,22.1,123.7,22.1,123.7,22.1L123.7,22.1z"/>
		<path class="st1" d="M109.4,28.4C109.4,28.4,109.5,28.4,109.4,28.4L109.4,28.4z"/>
		<path class="st1" d="M116.1,29.4C116.1,29.4,116.2,29.4,116.1,29.4L116.1,29.4z"/>
		<path class="st1" d="M109.1,28.5C109,28.6,109.1,28.5,109.1,28.5L109.1,28.5z"/>
		<path class="st1" d="M108,28.9C108,28.9,108,28.9,108,28.9C108,28.9,108,28.9,108,28.9z"/>
		<path class="st1" d="M108.5,28.7C108.5,28.7,108.6,28.7,108.5,28.7L108.5,28.7z"/>
		<path class="st1" d="M116.7,25.2C116.7,25.2,116.7,25.2,116.7,25.2L116.7,25.2z"/>
		<path class="st1" d="M117,25C117,25,117,25,117,25C117,25,117,25,117,25z"/>
		<path class="st1" d="M116.6,26C116.6,26,116.6,26,116.6,26L116.6,26z"/>
		<path class="st1" d="M122.2,23.6C122.2,23.6,122.2,23.6,122.2,23.6C122.2,23.6,122.2,23.6,122.2,23.6z"/>
		<path class="st1" d="M118,24.6C117.9,24.6,118,24.6,118,24.6L118,24.6z"/>
		<path class="st1" d="M118.4,25.5C118.4,25.5,118.4,25.5,118.4,25.5L118.4,25.5z"/>
		<path class="st1" d="M107.7,29.1L107.7,29.1C107.7,29.1,107.7,29.1,107.7,29.1z"/>
		<path class="st1" d="M117.7,25.7C117.7,25.7,117.7,25.7,117.7,25.7C117.7,25.7,117.7,25.7,117.7,25.7z"/>
		<path class="st1" d="M117.1,25.8C117.1,25.8,117.1,25.8,117.1,25.8C117.1,25.8,117.1,25.8,117.1,25.8z"/>
		<path class="st1" d="M110.2,30.7C110.2,30.7,110.3,30.7,110.2,30.7L110.2,30.7z"/>
		<path class="st1" d="M99,35.4C98.9,35.4,99,35.4,99,35.4L99,35.4z"/>
		<path class="st1" d="M123,23.6C123,23.6,123,23.6,123,23.6C123,23.6,123,23.6,123,23.6z"/>
		<path class="st1" d="M102.7,32C102.6,32,102.7,32,102.7,32L102.7,32z"/>
		<path class="st1" d="M102.6,32.9C102.6,32.9,102.6,32.9,102.6,32.9L102.6,32.9z"/>
		<path class="st1" d="M97.4,38.4C97.4,38.4,97.4,38.4,97.4,38.4L97.4,38.4z"/>
		<path class="st1" d="M97.2,34.5C97.2,34.5,97.2,34.5,97.2,34.5C97.2,34.5,97.2,34.5,97.2,34.5z"/>
		<path class="st1" d="M98.4,35.6C98.4,35.6,98.5,35.6,98.4,35.6L98.4,35.6z"/>
		<path class="st1" d="M105.1,30C105.1,30,105.1,30,105.1,30C105.1,30,105.1,30,105.1,30z"/>
		<path class="st1" d="M104.4,32.3C104.4,32.3,104.4,32.3,104.4,32.3L104.4,32.3z"/>
		<path class="st1" d="M104.8,32.4C104.7,32.4,104.8,32.4,104.8,32.4L104.8,32.4z"/>
		<path class="st1" d="M107,31.3C107,31.4,107,31.3,107,31.3L107,31.3z"/>
		<path class="st1" d="M107.6,29.1C107.6,29.1,107.6,29.1,107.6,29.1L107.6,29.1z"/>
		<path class="st1" d="M103.5,32.6C103.5,32.6,103.5,32.6,103.5,32.6L103.5,32.6z"/>
		<path class="st1" d="M102.2,31C102.2,31,102.2,31,102.2,31L102.2,31z"/>
		<path class="st1" d="M121.6,36.1C121.6,36.1,121.6,36.1,121.6,36.1C121.6,36.1,121.6,36.1,121.6,36.1z"/>
		<path class="st1" d="M134.1,31.8C134.1,31.8,134.1,31.8,134.1,31.8L134.1,31.8z"/>
		<path class="st1" d="M132.5,21C132.5,21,132.6,21,132.5,21L132.5,21z"/>
		<path class="st1" d="M142.7,32.2C142.7,32.2,142.7,32.2,142.7,32.2L142.7,32.2z"/>
		<path class="st1" d="M133.7,31.7C133.7,31.7,133.7,31.7,133.7,31.7L133.7,31.7z"/>
		<path class="st1" d="M138.2,24.3C138.2,24.3,138.2,24.3,138.2,24.3L138.2,24.3z"/>
		<path class="st1" d="M139.1,24C139.1,24,139.1,24,139.1,24L139.1,24z"/>
		<path class="st1" d="M105.6,40.8C105.6,40.9,105.6,40.8,105.6,40.8L105.6,40.8z"/>
		<path class="st1" d="M132.5,10.8C132.5,10.8,132.6,10.8,132.5,10.8L132.5,10.8z"/>
		<path class="st1" d="M104.3,37.2C104.3,37.2,104.3,37.2,104.3,37.2C104.3,37.2,104.3,37.2,104.3,37.2z"/>
		<path class="st1" d="M124,25.9C124,25.9,124,25.9,124,25.9L124,25.9z"/>
		<path class="st1" d="M123.6,26.1C123.5,26.1,123.6,26.1,123.6,26.1L123.6,26.1z"/>
		<path class="st1" d="M102.1,42.4C102.1,42.5,102.2,42.4,102.1,42.4L102.1,42.4z"/>
		<path class="st1" d="M143.4,32.1c0.1,0,0.1-0.2,0.1-0.3c0,0,0-0.7,0-0.7c0,0,0-0.2,0-0.2c0,0-0.3,0-0.3,0c0-0.1,0.3-0.3,0.3-0.3
			c0-0.3,0-0.7,0-1c-0.1,0,0-0.6,0-0.7c0.1,0-0.3-0.7-0.2-0.7c0.1-0.4,0.1-0.8-0.1-1.3c0-0.7-0.4-1.2-0.4-1.9c0,0-0.2-0.8-0.2-0.9
			c0,0,0-0.2-0.1-0.2c0,0-0.1,0.1-0.1,0.1c0,0.1-0.3,0-0.3,0.1c-0.1,0-0.2,0.1-0.3,0.1c0,0-0.3-0.2-0.2-0.2c0,0.1,0.7-0.3,0.7-0.3
			c0-0.6-0.3-1-0.4-1.7c-0.1,0-0.4-1.3-0.5-1.3c0-0.1-0.4-1-0.5-1.1c0-0.1-0.3-0.6-0.4-0.6c0-0.1-0.1-0.4-0.2-0.5
			c0-0.1-0.7-1.2-0.8-1.2c0-0.2-0.4-0.4-0.4-0.5c0,0-0.4-0.5-0.4-0.5c-0.1,0-1-1.2-1-1.2c-0.1-0.1-0.4-0.4-0.5-0.5
			c0,0-0.2-0.3-0.2-0.3c0,0-0.4-0.1-0.4-0.1c0-0.1,0.1-0.3-0.1-0.3c-0.1-0.1-0.6-0.5-0.6-0.6c-0.3-0.1-0.5,0.2-0.8,0.2
			c0,0-0.2,0-0.2-0.1c-0.1-0.1,0.1-0.1,0.1-0.2c0.2,0,0.3-0.1,0.4-0.1c0.3-0.4-0.3-0.2-0.3-0.6c-0.4,0-0.9-1-1.3-1
			c-0.1-0.2-1.2-0.6-1.2-0.8c-0.2-0.1-0.7-0.4-0.7,0.1c-0.1,0-0.2,0.4-0.2,0.5c0,0,0.6,0.4,0.6,0.5c0.1,0.1,0.5,0.2,0.5,0.4
			c0.2,0.1,0.4,0.4,0.6,0.4c0,0.1,0.6,0.4,0.7,0.5c0.1,0,0.1,0.2,0.3,0.2c0,0.3,0.4,0,0.4,0.2c0,0,0.4,0.6,0.5,0.6
			c0,0.1,0.4,0.4,0.5,0.4c0,0,0.2-0.3,0.3-0.2c0.2,0.1-0.2,0.4-0.2,0.4c0.1,0.1,0.4,0.5,0.4,0.5c0,0.1,0.4,0.4,0.5,0.5
			c0,0.1,0.1,0.3-0.1,0.3c0,0-0.6,0.2-0.6,0.2c-0.1,0.2-1.1,0.5-1.3,0.5c-0.1,0.2-1.1,0.6-1.3,0.6c0,0-0.7,0.3-0.7,0.3
			c-0.1,0.1-0.5,0.2-0.7,0.2c-0.2,0.1-1.1,0.3-1.1,0.5c-0.1,0-0.6,0.2-0.6,0.3c-0.2,0-0.6,0.2-0.8,0.1c0-0.4,0-0.5-0.4-0.7
			c-0.1-0.2-0.5-0.3-0.6-0.4c-0.3-0.1-1.1-0.6-1.3-0.8c-0.2-0.3-1.6-0.6-1.7-0.1c0,0,0.6,0.4,0.6,0.4c0.2,0,0.7,0.3,0.8,0.4
			c0.3,0,0.8,0.6,1.2,0.7c0,0.1,0.6,0.3,0.6,0.4c0.1,0,0.2,0.2,0.3,0.2c0.1,0.1,0.3,0,0.4-0.1c0,0,0.1,0.1,0,0.1
			c-0.1,0.2-1.1,0.6-1.4,0.6c-0.1,0.1-0.6,0.2-0.6,0.2c-0.2,0-0.6,0.3-0.8,0.3c-0.4,0-0.9,0.6-1.2,0.6c0,0.1-1.2,0.3-1.3,0.5
			c-0.1,0-1.5,0.6-1.5,0.7c-0.3,0-2.7,1-2.7,1.1c-0.3,0-0.3,0.4-0.6,0.4c0-0.2-0.7,0.2-0.8,0.2c0,0.2-1.4,0.3-1.5,0.7
			c0.1,0,0.2,0.1,0.2,0.1c0.1,0.3,0.4-0.2,0.6,0c0.1,0.3,0.5-0.1,0.6-0.1c0-0.3,1.1-0.6,1.4-0.7c0.1,0,0.9,0,0.9-0.2
			c0.5,0,0.1,0.1,0.1,0.2c-0.4,0-0.8,0.5-1.2,0.5c0,0.2-1.6,0.8-1.6,0.5c-0.2,0-0.6,0.2-0.8,0c0,0.1-0.7,0-0.5-0.1
			c0-0.1,0.3,0,0.3-0.1c-0.5,0-0.9,0.4-1.3,0.4c0,0.2-1.3,0.4-1.4,0.6c-0.4,0-0.9,0.5-1.3,0.5c0,0.1-1.3,0.4-1.4,0.6
			c-0.2,0-1.3,0.5-1.3,0.6c-0.2,0.2-1,0.5-1.3,0.5c-0.1,0.1-0.6,0.2-0.7,0.3c-0.2,0.3-0.8,0.2-1,0.5c-0.1,0-0.8,0.3-0.8,0.3
			c-0.3,0-0.6,0.3-0.9,0.3c-0.1,0.2-0.8,0.2-0.8,0.4c-0.4,0-0.3,0.5-0.7,0.4c0,0.2-1.4,0.4-1,0.1c0,0.1,0.6-0.3,0.5-0.3
			c0-0.4,0.2-1,0.2-1.4c0.1-0.1,0.2-0.6,0.2-0.8c-0.1,0,0.2-0.8,0.2-0.9c0.2,0-0.1-0.4-0.1-0.4c0,0,0.3-0.2,0.3-0.2
			c0.2-0.4,0.2-0.9,0.5-1.3c0.2,0,0-0.5,0.1-0.5c0.2,0,0.1-0.3,0.3-0.3c0-0.1,0.3-0.6,0.4-0.6c0.1-0.5,0.8-0.9,0.8-1.4
			c0.1,0,0.5-0.5,0.5-0.6c0.2-0.2,0.3-0.5,0.6-0.7c0-0.1,0.7-0.9,0.8-0.9c0.2-0.4,0.7-0.5,0.9-0.9c0.4-0.2,0.9-0.9,1.3-0.9
			c0-0.2,1-0.6,1.1-0.7c0-0.2,1.2-0.4,1.3-0.6c0.1,0,0.8-0.2,0.9-0.3c0.3,0,0.6-0.3,0.9-0.3c0-0.1,0.9-0.2,1-0.2
			c0,0,0.7-0.2,0.7-0.1c0.1,0,1-0.2,1-0.2c0.5,0,1.1-0.1,1.6-0.1c0.3-0.1,3.3,0.1,3.3,0.3c0.6,0,1.2,0.4,1.7,0.4
			c0,0.1,1.2,0.3,1.2,0.4c0.1,0,0.6-0.2,0.6-0.2c0.5,0-0.4-0.3-0.4-0.4c-0.1,0-0.3-0.1-0.3-0.1c-0.4,0-0.2,0.2-0.5-0.2
			c-0.2,0-0.5-0.2-0.7-0.2c-0.1-0.3-2-0.4-2.1-0.2c-0.1,0-0.6,0.4-0.7,0.1c0,0,0.4-0.3,0.6-0.3c0.2-0.5-0.7-0.1-0.7-0.3
			c0,0-1.2,0-1.2-0.1c-0.1,0-1.2-0.1-1.2,0c-0.6,0-1.1,0.2-1.7,0.1c-0.2,0-1.7,0.3-1.7,0.4c-0.3,0-0.6,0.3-0.9,0.3
			c0,0.1-0.8,0.2-0.8,0.3c-0.2,0.2-0.7,0.1-0.9,0.4c-0.2,0-0.4,0.3-0.6,0.3c0,0-0.7,0.4-0.8,0.4c0,0.1-0.5,0.2-0.6,0.3
			c-0.2,0-0.5,0.4-0.7,0.5c0,0.1-0.6,0.4-0.7,0.5c-0.2,0.1-0.7,0.5-0.8,0.7c-0.1,0-0.6,0.5-0.6,0.6c-0.1,0-0.9,0.9-0.9,1
			c-0.1,0-0.2,0.2-0.3,0.3c0.2-0.1-0.2,0.4-0.2,0.3c-0.3,0-0.3,0.4-0.5,0.5c0,0-0.3,0.5-0.4,0.5c0,0.1-0.2,0.2-0.2,0.4
			c-0.2,0.1,0.3,0,0.3,0c0,0,0.2-0.1,0.2,0c0.1,0-0.3,0.3-0.3,0.2c-0.2,0-0.7,0.2-0.7,0.4c-0.2,0.1-0.6,0.8-0.6,1
			c-0.1,0-0.5,1-0.5,1.2c-0.1,0-0.5,1.4-0.5,1.5c-0.2,0-0.4,1.8-0.4,2c-0.1,0-0.1,1.1-0.1,1.2c0.2,0-0.2,0.4-0.2,0.4
			c0,0-0.6,0.2-0.6,0.2c0,0-0.7,0.4-0.7,0.4c0-0.1-0.7,0.3-0.7,0.3c0,0-2.3,1-2.5,1c0,0.2-1.4,0.3-1.4,0.6c-0.2,0-0.7,0.4-0.7,0
			c0,0,0-2,0-2.2c-0.2,0,0.3-1.8-0.1-1.8c0-0.2-0.4,0-0.5,0c0,0.2-0.5-0.1-0.4,0.4c0.1,0-0.3,2.4-0.1,2.4c0,1.6,0.3,3.3,0.6,4.8
			c0.1,0,0.2,1.5,0.4,1.6c0,0.1,0.1,0.2,0.2,0.2c0,0.1,0,0.2,0,0.3c-0.1,0,0.2,0.5,0.2,0.4c0.3,0,0,0.2,0,0.3c0,0,0.2,0.4,0.2,0.4
			c0,0,0.3,0.7,0.3,0.8c0,0.5,0.5,0.9,0.5,1.4c0.3,0,0.4,1.3,0.7,1.3c0,0.1,0.6,1.2,0.7,1.2c0,0.1,0.2,0.3,0.3,0.4
			c0,0.2,0.3,0.4,0.3,0.5c0.1,0,0.3,0.5,0.4,0.5c0,0.2,0.4,0.6,0.5,0.7c0.3,0.1,0.5,0.9,0.8,0.9c0,0.4,1,0.7,1,1.1
			c0,0,0.3,0.2,0.3,0.2c0,0,0.4,0.2,0.4,0.2c-0.2,0,0.1,0.2,0.1,0.3c0,0,0.1,0.1,0.2,0.1c0,0,0.4,0.1,0.4,0.1c0,0,0.1,0.3,0.1,0.4
			c0.1,0,0.4-0.1,0.5,0c0,0.1-0.3,0.1-0.2,0.2c0,0,0.3,0.3,0.4,0.3c0.4,0.3,0.7,0.6,1.1,0.8c0,0.1,0.5,0.2,0.5,0.3
			c0.3,0,0.3-0.3,0.5-0.3c0,0,0.4-0.6,0.2-0.6c0-0.1-0.5-0.4-0.6-0.4c0-0.1-0.6-0.5-0.7-0.5c0,0-0.3-0.2-0.3-0.2
			c-0.2-0.3-0.4-0.1-0.7-0.3c0-0.1,0.1-0.1,0.1-0.2c0,0-0.1-0.2-0.1-0.2c0,0-0.6-0.3-0.6-0.1c-0.2,0-0.2,0.2-0.4,0.2
			c0-0.2,0.2-0.1,0.2-0.2c0,0,0.2-0.2,0.2-0.3c0,0-0.2-0.2-0.2-0.2c-0.2-0.1-0.4-0.4-0.6-0.6c0-0.1-0.5-0.6-0.6-0.6
			c0-0.2-0.5-0.4-0.5-0.6c-0.3-0.1,0.6-0.4,0.6-0.4c0.3,0,0.4-0.2,0.7-0.3c0-0.1,0.6-0.2,0.6-0.3c0.1,0,0.2-0.1,0.3-0.1
			c0.1-0.2,0-0.1,0-0.3c0,0,0.5-0.1,0.5,0c0.2,0.1,0.2-0.1,0.4-0.1c0.1-0.1,0.6-0.3,0.7-0.3c0-0.1,1.3-0.6,1.4-0.6
			c0-0.1,0.5-0.4,0.5-0.2c0.2,0,0.2-0.1,0.4-0.1c0,0,0.6-0.3,0.7-0.3c0.2,0,1,0.7,1.1,0.9c0.1,0,1.2,0.8,1.2,0.9
			c0.4,0,0.9,0.5,1.2,0.7c0,0.1,1.4,0.7,1.5,0.7c0,0.1,1.4,0.5,1.5,0.5c0.1,0.2,0.7,0.2,0.7-0.1c0,0,0.5-0.1,0.6-0.1
			c0.3,0-0.5-0.5-0.5-0.3c-0.2-0.1-0.5-0.2-0.7-0.3c-0.3,0-2.7-0.8-2.7-1c-0.4,0-0.8-0.6-1.2-0.6c0-0.3-1.1-0.6-1.2-0.9
			c-0.1,0-0.7-0.5-0.7-0.6c-0.2-0.1,0.6-0.3,0.6-0.4c0.1,0,1.7-0.7,1.7-0.7c0.1,0,1.3-0.5,1.3-0.5c0,0,1.8-0.7,1.8-0.8
			c0.5,0,0.8-0.5,1.3-0.5c0.1-0.1,0.6-0.1,0.6-0.3c0.3,0,0.5-0.3,0.7-0.3c0-0.1,0.6-0.1,0.7-0.3c0.1,0,0.6-0.2,0.6-0.2
			c0.2,0,1.6-0.5,1.6-0.7c0.5,0,1.1-0.7,1.6-0.7c0.1-0.1,1-0.5,1.2-0.5c0-0.1,0.7-0.2,0.7-0.3c0.1,0,0.7-0.2,0.7-0.3
			c0.2,0,0.4-0.3,0.5-0.3c0-0.1,0.2-0.2,0.2-0.3c0.2,0,0,0.2,0,0.3c0.2,0,1.3-0.4,1.3-0.6c0.6,0,1.1-0.6,1.7-0.6
			c0-0.1,1.3-0.4,1.3-0.5c0.1,0,0.8-0.3,0.8-0.3c0.1-0.1,0.6-0.3,0.8-0.3c0,0,1.2-0.6,1.3-0.6c0.2-0.3,1.1-0.2,1.2-0.5
			c0.1,0,0.9-0.3,0.9-0.3c-0.1,0.1,0.4-0.5,0.4-0.2c0.1,0,0.3-0.1,0.3,0c-0.1,0-0.2,2.3-0.3,2.3c0,0.2-0.4,1.6-0.4,1.6
			c-0.2,0.4-0.3,0.9-0.5,1.3c0,0-0.5,1-0.5,1.1c-0.1,0-0.2,0.5-0.3,0.6c0,0.1-0.1,0.2-0.2,0.3c0,0,0,0.1-0.1,0.1
			c0,0.3,0,0.1,0.2,0.3c0,0-0.6,0.3-0.6,0.3c0,0.1-0.3,0.7-0.4,0.7c0,0.1-0.5,0.5-0.5,0.5c-0.2,0.1-0.4,0.4-0.4,0.5
			c0.1,0.2,0.5-0.1,0.6-0.1c0,0.1,1.3-1,1.2-1c0.1-0.1,0.3-0.5,0.4-0.5c0-0.4,0.5-0.3-0.1-0.5c0-0.1,0.5-0.1,0.6-0.3
			c0.1,0,0.2-0.4,0.2-0.4c0-0.1,0.6-1.3,0.7-1.3c0-0.1,0.6-1.7,0.5-1.7c0-0.1-0.1-0.3,0.1-0.3c0.2,0,0.1-0.3,0.2-0.3
			c0-0.3,0.2-0.6,0.2-0.9c0.1,0,0.2-0.8,0.2-0.9c0-0.1,0.1-0.7,0.1-0.7c0-0.1,0-0.9,0-0.9c0-0.1-0.2-0.1-0.2-0.1
			c-0.2,0-0.7-0.2-0.3-0.2c0.2-0.1,0.6,0.1,0.8,0.1c0,0,1.3-0.6,1.4-0.6c0-0.1,1-0.2,1-0.4c0.2,0,0.5-0.2,0.7-0.3
			c0-0.1,0.6-0.2,0.7-0.3c0.4,0,0.9-0.6,1.3-0.6c0,0,0.6-0.3,0.6-0.3c0.2-0.2,0.7-0.6,1-0.5c0,0.1-0.2,0.1-0.2,0.3
			c-0.1,0.3,0.1,0.9,0.1,1.2c0,0.2,0,1.1,0.2,1.1c0,0.1-0.4,0.4-0.2,0.6c0,0.2-0.1,1.3-0.1,1.3c-0.1,0.8-0.2,1.7-0.2,2.5
			c0.1,0.1,1,0.4,1,0c0.1,0-0.1-0.6,0.1-0.6c0.1-0.4,0.2-1,0.2-1.4c0,0,0.3-1.1-0.2-1.1c0,0-0.1,0-0.1,0
			C143,32.3,143.4,32.2,143.4,32.1z M132.4,11.1c-0.1,0.1-0.3,0.1-0.5,0.1c-0.1-0.2,0.5-0.3,0.6-0.4
			C132.9,10.8,132.8,11.1,132.4,11.1z M136.7,15.2C136.7,15.2,136.6,15.2,136.7,15.2c0,0-0.2-0.1-0.2-0.1
			C136.4,14.8,136.9,15.2,136.7,15.2z M112.9,16.3C113,16.3,112.9,16.9,112.9,16.3C112.9,16.3,112.9,16.3,112.9,16.3z M106.1,22.2
			c0-0.1,0-0.1,0.1-0.1c0,0,0,0,0,0C106.2,22.1,106.2,22.2,106.1,22.2z M95.6,31.3c0,0-0.1,0-0.2,0c0-0.1,0.1-0.1,0.1-0.1
			c0,0,0,0,0,0C95.7,31.2,95.7,31.3,95.6,31.3z M95.8,30.7C95.9,30.7,95.8,30.8,95.8,30.7L95.8,30.7z M96.1,33.8
			C96.1,33.8,96.1,33.8,96.1,33.8C96.4,33.8,95.9,34,96.1,33.8z M96.3,33.7c0-0.1,0.2,0,0.3,0C97,33.6,96.1,33.9,96.3,33.7z
			 M96.7,38.7C96.7,38.7,96.7,38.7,96.7,38.7c0-0.1,0.1,0,0.1-0.1c0,0,0,0,0,0C96.9,38.6,96.8,38.7,96.7,38.7z M104.4,49.3
			c0.3,0-0.2,0.3-0.2,0.1C104.2,49.4,104.4,49.3,104.4,49.3z M103.7,49C104,49,103.4,49.2,103.7,49L103.7,49z M132,40.3
			c0-0.2,0.3-0.1,0.3-0.1C132.9,40.2,132.3,40.4,132,40.3z M134.4,35.6C134.9,35.6,134,35.9,134.4,35.6L134.4,35.6z M135.2,32
			c0,0-0.2,0.2-0.2,0.1c0,0,0,0,0,0C134.9,32,135.2,31.7,135.2,32z M141.4,23.1C141.4,23.1,141.4,23,141.4,23.1
			c0.1-0.6,0.4,0.5-0.1,0.1C141.3,23.1,141.4,23.1,141.4,23.1z M141.2,24.3C141.2,24.3,141.2,24.3,141.2,24.3
			C141.3,24.3,141.2,24.6,141.2,24.3z M140.9,23.4c0-0.1,0.2-0.1,0.2-0.1C141.3,23.3,141.1,23.5,140.9,23.4z M139.3,21.5
			c0,0,0.3,0,0.3,0c0,0,0.6-0.2,0.6-0.2c0,0,0.6-0.5,0.6-0.3c0.4,0.1-0.4,0.6-0.4,0.6c0,0-0.7,0-0.7,0.1c-0.1,0-0.1,0-0.2,0
			C139.5,21.7,139.2,21.6,139.3,21.5z M138.7,22C139.2,22,138.4,22.3,138.7,22L138.7,22z M138.4,16.6c0.1,0-0.1,0.2-0.3,0.1
			C138.1,16.5,138.4,16.6,138.4,16.6z M137.3,23.3C137.8,23.3,136.9,23.7,137.3,23.3L137.3,23.3z M131.9,21.2
			C132.2,21.2,131.9,21.4,131.9,21.2C131.9,21.2,131.9,21.2,131.9,21.2z M130.9,21C131,21,131,21,130.9,21c0.2,0-0.3,0.3-0.3,0.1
			C130.7,21,130.9,21,130.9,21z M130.5,21.2C130.5,21.2,130.5,21.2,130.5,21.2C130.5,21.3,130.4,21.3,130.5,21.2
			C130.4,21.2,130.4,21.2,130.5,21.2z M129,20.7C129,20.7,129.1,20.7,129,20.7C129,20.8,129,20.8,129,20.7
			C129,20.8,129,20.8,129,20.7z M128.6,20.9c0-0.1,0.3-0.1,0.3,0C128.9,20.9,128.7,20.9,128.6,20.9
			C128.6,20.9,128.7,20.8,128.6,20.9z M126.8,21.5C126.9,21.5,126.9,21.5,126.8,21.5c0.1,0.2-0.1,0.1-0.1,0.1
			C126.4,21.7,126.9,21.5,126.8,21.5z M123.7,22.1C124.2,22.1,123.3,22.6,123.7,22.1L123.7,22.1z M123,23.6
			C123,23.6,123,23.6,123,23.6c0.2,0,0.1,0.1,0,0.1c0,0.1-0.1,0-0.1-0.1C122.9,23.6,123,23.6,123,23.6z M122.2,23.6
			C122.2,23.6,122.2,23.6,122.2,23.6C122.3,23.6,122.3,23.6,122.2,23.6c0.1,0.1,0.1,0.1,0,0.1C122.2,23.7,122.2,23.7,122.2,23.6z
			 M118.4,25.5C118.4,25.5,118.5,25.6,118.4,25.5C118.3,25.6,118.4,25.7,118.4,25.5z M118,24.6C118.6,24.6,117.7,24.9,118,24.6
			L118,24.6z M117.7,25.7C117.7,25.7,117.7,25.7,117.7,25.7c0.2,0,0,0.2-0.1,0.1C117.6,25.8,117.7,25.8,117.7,25.7z M117.4,25.9
			c0,0.2-0.6,0.1-0.4-0.1c0,0,0,0,0,0C117.2,25.8,117.4,25.9,117.4,25.9z M117,25C117.3,25,117,25.3,117,25C117,25,117,25,117,25z
			 M117,30.1c-0.1,0,0-0.1,0-0.1c0,0,0,0,0,0C117,29.9,117,30,117,30.1z M116.9,29.7c-0.1,0-0.2,0-0.3,0c-0.1-0.2,0.2-0.1,0.2-0.2
			c0,0,0,0,0,0c0,0,0.2,0.1,0.2,0.1C117.1,29.6,116.9,29.8,116.9,29.7z M117,26.1c0,0.1-0.6,0.3-0.4-0.1C116.6,26,117,26.1,117,26.1
			z M116.7,25.2c0.2,0-0.2,0.1-0.2,0.1C116.4,25.2,116.7,25.2,116.7,25.2z M116.1,29.4C116.6,29.4,115.9,29.7,116.1,29.4L116.1,29.4
			z M115.7,28.9C115.7,28.9,115.8,28.9,115.7,28.9c0.3,0,0,0.2-0.2,0.1C115.6,28.9,115.7,28.9,115.7,28.9z M115.4,29.4
			c0,0,0.4,0.1,0.4,0c0.1,0,0,0,0,0c0.1,0,0.1,0,0.2,0C116,29.6,115.4,29.6,115.4,29.4C115.4,29.5,115.4,29.4,115.4,29.4z
			 M115.3,29.1c0.3,0,0,0.3,0,0.3c0,0,0,0,0,0C114.8,29.3,115.3,29.1,115.3,29.1z M114.7,28.2C114.7,28.2,114.7,28.2,114.7,28.2
			c0.1,0-0.2,0.2-0.3,0.1C114.3,28.2,114.7,28.2,114.7,28.2z M111.8,28.3c0.2,0,0.6-0.3,0.8-0.3c0-0.1,1.1-0.4,1.2-0.5c0,0,0,0,0,0
			c0-0.1,0.2,0.1,0,0.1c-0.1,0.1-0.2,0.1-0.2,0.2c-0.1,0-0.1,0.1-0.2,0.1c0,0-0.5,0.2-0.5,0.2c-0.3,0-1,0.3-1.3,0.5
			c0,0.1-0.3,0-0.3,0C111.1,28.6,111.8,28.3,111.8,28.3z M110,29.9c-0.1,0-0.4,0.1-0.4,0.2c-0.1,0,0.1,0.3-0.1,0.3c0,0-0.2,0-0.2,0
			c-0.1,0.3-0.1-0.1-0.2-0.1c-0.1-0.1-0.2,0.1-0.3,0.1c-0.1,0.2-0.5-0.1-0.2-0.2c0.1-0.1,0.3,0,0.3-0.1c0.1,0,0.4-0.2,0.6-0.2
			c0,0,0,0,0,0c0.1-0.2,1.1-0.2,1.1-0.5c0.1,0,0.5-0.1,0.5-0.2c0.1,0,0.3,0,0.5,0c0.2-0.1,0.2,0.1,0,0.1c0,0-0.4,0.1-0.4,0.1
			C111.2,29.5,110.1,29.8,110,29.9z M110.3,30.8c-0.1,0-0.1-0.1,0-0.1C110.3,30.7,110.3,30.7,110.3,30.8z M110.5,28.8
			c0-0.1,0.5-0.1,0.5-0.2c0.4,0,0.3,0.2,0,0.2c0,0.1-0.9,0.2-1,0.2C109.9,29,110.4,28.8,110.5,28.8
			C110.4,28.8,110.5,28.8,110.5,28.8z M110.1,28.1c0,0,0.7-0.4,0.7-0.4c0,0,0.6-0.2,0.6-0.2c0.4-0.1-0.4,0.5-0.4,0.4
			c-0.3,0-0.5,0.2-0.8,0.3c0,0,0,0,0,0C110.1,28.7,109.3,28.1,110.1,28.1z M109.4,28.4C110.1,28.4,109,28.5,109.4,28.4L109.4,28.4z
			 M109.1,28.5c0.3,0-0.2,0.3-0.2,0.1C108.8,28.6,109.1,28.5,109.1,28.5z M108.5,28.7c0.3,0-0.2,0.3-0.2,0
			C108.3,28.8,108.5,28.7,108.5,28.7z M108.2,30.3C108.2,30.3,108.3,30.3,108.2,30.3C108.7,30.3,107.9,30.6,108.2,30.3z M108,28.9
			C108,28.9,108,28.9,108,28.9c0.5,0,0.1,0.2,0.1,0.2C107.9,29.1,108,28.9,108,28.9z M107.6,29.1c0.3,0,0.1,0,0.1,0
			c0,0.1-0.3,0.2-0.3,0C107.4,29.1,107.6,29.1,107.6,29.1z M107,31.3c0.2,0-0.1,0.2-0.3,0.1C106.7,31.3,106.9,31.4,107,31.3z
			 M106.6,31.5c0,0.1-0.3,0.4-0.3,0.2c0,0,0,0,0,0C106,31.7,106.5,31.5,106.6,31.5z M105.2,32.5c-0.1,0-0.3,0-0.4,0
			c0,0.1-0.5,0.2-0.5,0.1c-0.1,0,0.4-0.3,0.4-0.3c0.1,0,0.7,0.1,0.7,0.1C105.5,32.5,105.3,32.7,105.2,32.5z M104.4,32.3
			C104.7,32.3,104.2,32.5,104.4,32.3L104.4,32.3z M105.1,30C105.1,30,105.1,30,105.1,30c0.2,0,0,0.2-0.1,0.1
			C104.9,30,105.1,30,105.1,30z M102.6,30.7c0-0.1,1.5-0.6,1.6-0.6c0,0,0.4-0.2,0.4-0.1c0.3,0.1-0.2,0.2-0.2,0.2
			c-0.2,0-0.5,0.3-0.6,0.3c0,0-0.5,0.2-0.6,0.2c0,0-0.6,0.2-0.6,0.2c-0.1,0-0.1,0-0.2,0C102.5,30.9,102.5,30.7,102.6,30.7z
			 M104.2,32.4c-0.1,0-0.5,0-0.5,0C103.3,32.3,104.2,32.1,104.2,32.4z M103.5,32.6C103.9,32.6,103.2,32.8,103.5,32.6L103.5,32.6z
			 M102.2,31c0.3,0,0,0.2-0.2,0.1C102,31,102.2,31.1,102.2,31z M102.2,32.1c0,0.1,0.4,0,0.5,0c0.1,0,0.4,0.2,0.2,0.2
			c-0.2,0-0.4,0-0.7,0C102.1,32.2,101.8,32,102.2,32.1z M102.7,33c0,0.2-0.4,0.1-0.3,0c0,0,0.2,0,0.2,0
			C102.6,32.9,102.7,32.9,102.7,33z M101.1,31.4c0,0,0.4-0.1,0.5-0.1c0,0,0,0,0,0c0-0.2,0.5,0,0.2,0c0,0-0.3,0.2-0.4,0.2
			C101.4,31.6,100.9,31.4,101.1,31.4z M98.4,32.4c0-0.1,1.5-0.5,1.6-0.6c0,0,0,0,0,0c0-0.1,0.3-0.1,0.3-0.1c0.1,0,0.1-0.1,0.2-0.1
			c0-0.1,0.2-0.1,0.2-0.1c0.2,0,0,0.2,0,0.2c-0.2,0-0.6,0.3-0.9,0.4c0,0.1-0.8,0.2-0.9,0.2c0-0.1-0.4,0.2-0.4,0.3
			c-0.1,0-0.2,0.1-0.3,0.1C98.2,32.5,98.1,32.4,98.4,32.4z M99,35.4c0.1,0,0,0.2-0.3,0.1C98.7,35.4,98.9,35.5,99,35.4z M98.4,35.6
			C98.8,35.6,98.3,35.8,98.4,35.6L98.4,35.6z M97.2,34.5C97.2,34.5,97.2,34.5,97.2,34.5C97.3,34.5,97.2,34.7,97.2,34.5z M97.4,38.4
			C97.8,38.4,97.2,38.6,97.4,38.4L97.4,38.4z M97.9,38.3c0,0.1-0.3,0.1-0.3,0C97.7,38.2,98,38.3,97.9,38.3
			C97.9,38.3,97.9,38.3,97.9,38.3z M97.9,32.7c0-0.1,0.1-0.1,0.1-0.1c0,0,0,0,0,0C98.1,32.6,98,32.8,97.9,32.7z M98.3,40.7
			c-0.1,0-0.3-0.1-0.2-0.2c0.3,0,0.4,0.2,0.7,0.2C99.1,41.1,98.3,40.6,98.3,40.7z M99,38.9C99.4,38.9,98.6,39.2,99,38.9L99,38.9z
			 M99.2,37.7C99.3,37.7,99.3,37.7,99.2,37.7C99.4,37.7,99,38,99.2,37.7z M99.3,38.8C99.3,38.8,99.3,38.8,99.3,38.8
			C99.5,38.8,99.3,39,99.3,38.8z M99.5,39.3C99.5,39.3,99.5,39.3,99.5,39.3C99.5,39.3,99.5,39.5,99.5,39.3z M99.9,45.4
			C99.9,45.4,99.9,45.4,99.9,45.4c0-0.1,0.1-0.1,0.2-0.1c0.1,0,0.1,0,0.2,0C100.2,45.4,99.9,45.4,99.9,45.4z M100.2,42.6
			C101.1,42.6,100,42.9,100.2,42.6L100.2,42.6z M100.3,38C100.7,38,100,38.3,100.3,38L100.3,38z M100.6,45.2c-0.6,0-0.1,0-0.1-0.2
			c0,0,0,0,0,0C100.8,45,100.6,45.1,100.6,45.2z M100.8,43.4C100.7,43.2,100.8,43.4,100.8,43.4C100.8,43.3,100.8,43.3,100.8,43.4
			C101.1,43.3,100.9,43.5,100.8,43.4z M100.9,44.9C101.1,44.9,100.7,45.1,100.9,44.9L100.9,44.9z M101.3,42.8
			C101.3,42.8,101.4,42.8,101.3,42.8C101.3,42.9,101.2,42.9,101.3,42.8z M102,44.6C102,44.6,102.1,44.5,102,44.6c0.1,0,0.1,0,0.1,0
			C102.5,44.5,101.7,44.7,102,44.6z M104.6,43.8c-0.2,0-0.1,0-0.1-0.1C104.5,43.7,104.6,43.7,104.6,43.8z M104.7,43.6
			c0-0.1,0.2-0.1,0.2-0.2c0,0,0,0,0,0C105.1,43.4,105,43.7,104.7,43.6z M105.8,36.6C105.8,36.6,105.8,36.6,105.8,36.6
			C106,36.6,105.5,36.9,105.8,36.6z M106.4,40.7c0,0,0.2-0.1,0.2,0C106.9,40.7,106.3,40.9,106.4,40.7z M106.8,40.5
			C106.8,40.5,106.9,40.5,106.8,40.5C107.1,40.5,106.7,40.8,106.8,40.5z M107.1,41.2c0,0,0.1,0,0.1,0c0,0,0,0,0,0
			c0.1,0,0.1,0,0.2,0.1C107.4,41.4,107.1,41.3,107.1,41.2z M107.4,41.3c0-0.1,0.1,0,0.2-0.1c0,0,0,0,0,0
			C107.8,41.2,107.6,41.4,107.4,41.3z M108.5,41.3C108.9,41.3,108.1,41.7,108.5,41.3L108.5,41.3z M115.9,38.2
			C115.9,38.2,115.9,38.2,115.9,38.2C116,38.2,115.9,38.4,115.9,38.2z M117.9,36.1C118,36.1,117.9,36.1,117.9,36.1
			C118.1,36.1,117.9,36.4,117.9,36.1z M119.9,37.5C119.9,37.5,119.9,37.5,119.9,37.5C120,37.5,119.9,37.7,119.9,37.5z M121.2,35.6
			c-0.4,0-0.2-0.1-0.2-0.4c0,0,0,0,0,0c0.1,0,0.3,0.2,0.3,0.2C121.5,35.4,121.2,35.6,121.2,35.6z M121.6,36.1
			C121.7,36.1,121.6,36.1,121.6,36.1c0,0,0.1,0,0.1,0C121.8,36.2,121.4,36.4,121.6,36.1z M121.7,36.6
			C122,36.6,121.4,36.9,121.7,36.6L121.7,36.6z M125.7,35.2C125.7,35.2,125.7,35.2,125.7,35.2C125.8,35.2,125.7,35.4,125.7,35.2z
			 M130.2,30.2C130.2,30.2,130.2,30.2,130.2,30.2c-0.2,0,0.3-0.1,0.3,0c0.2,0,0.3,0,0.5,0c0,0,0.2,0.1,0.2,0.2
			c0.3,0,0.4-0.1,0.4,0.1C131.4,30.4,130.2,30.2,130.2,30.2z M131.4,31.7C131.5,31.7,131.4,31.7,131.4,31.7c0,0-0.4,0-0.3-0.2
			C131.4,31.5,132.1,31.6,131.4,31.7z M133.7,31.7C134.3,31.7,133.4,32,133.7,31.7L133.7,31.7z M134.1,31.8
			C134.4,31.8,134,32,134.1,31.8L134.1,31.8z M134.2,31.3c0-0.1,0.1-0.1,0.1-0.1c0,0,0,0,0,0C134.4,31.2,134.3,31.3,134.2,31.3z
			 M138.6,28.5c0,0.1-0.6,0.2-0.6,0.3c-0.1,0-1.3,0.4-1.3,0.5c-0.2,0.1-0.6,0.3-0.6-0.1c-0.1,0-0.3-0.6-0.3-0.7c0,0-0.5-1.1-0.5-1.2
			c-0.2-0.1-0.5-1.1-0.5-1.3c-0.3,0-0.4-1.5-0.6-1.5c0-0.5-0.5-0.8-0.5-1.3c-0.1,0-0.2,0.1-0.1,0.1c0,0.2-0.2,0.2-0.2,0.3
			c-0.1,0-0.3,0.4-0.2,0.4c0,0.2,0.4,0.4,0.4,0.7c0.1,0,0.5,1.3,0.6,1.4c0.2,0,0.4,1.2,0.6,1.3c0,0.3,0.4,0.5,0.4,0.8
			c0,0,0.3,0.6,0.3,0.7c0,0,0.2,0.5,0.2,0.5c0.2,0.1-0.4,0.5-0.5,0.5c0,0-1.4,0.5-1.5,0.5c0,0-0.7,0.3-0.8,0.3c0-0.2-0.4,0-0.3-0.2
			c0,0,0.1,0,0.1-0.1c0.1,0-0.1-0.2-0.1-0.3c0,0-1,0-0.7-0.1c0.1,0,0.2-0.1,0.4-0.1c0,0,0.2,0.2,0.4,0.2c0-0.1-0.1-0.2-0.2-0.2
			c0-0.1,0-0.2,0-0.3c0.1,0-0.1-0.3-0.1-0.3c-0.1-0.1-0.2-0.8-0.3-0.8c0-0.1-0.2-0.6-0.4-0.5c0,0-0.2,0.1-0.2,0.2
			c-0.3,0.1-0.3-0.2-0.1-0.2c0,0,0.2-0.1,0.3-0.1c0.2-0.1,0-0.4,0-0.5c-0.1,0-0.2-0.6-0.2-0.6c0-0.4-0.5-0.8-0.5-1.1
			c-0.1-0.1-0.5-0.4-0.6-0.5c-0.1,0-0.2-0.1-0.3-0.1c0-0.3-0.7,0.1-0.6,0.1c0-0.1-0.6,0.5-0.5,0.5c0,0.1-0.4,1-0.2,1
			c0.1,0.4,0.4,1,0.6,1.3c0.2,0,0.4,1.4,0.5,1.4c0,0.1,0.1,0.2,0.1,0.3c0.3,0,0,0.3,0.1,0.3c0,0.1,0.2,0.6,0.3,0.6
			c0,0.4,0.8,1.2-0.1,1.2c-0.1,0.1-1.2,0.6-1.3,0.6c-0.1,0.2-0.6,0.1-0.7,0.3c-0.2,0.1-0.5,0.1-0.5-0.2c-0.2,0-0.2-1.3-0.6-1.2
			c0,0.2,0.2,0.1,0,0.3c-0.1,0.1-0.6-0.1-0.6-0.2c-0.3,0-0.4,0.8-0.4,0.8c0,0.1-0.2,0.2-0.2,0.4c0,0-1.1,1.4-1.1,1.3
			c-0.1,0-0.6,0.4-0.6,0.4c-0.2,0-0.4,0.2-0.6,0.3c-0.1,0.2-1.6,0.3-1.6,0.4c-0.3,0-0.8,0-1.1-0.1c0,0-0.8-0.3-0.9-0.3
			c0-0.1-0.9-0.4-1-0.6c-0.4,0-0.3-0.6-0.6-0.6c-0.2-0.4-0.3-0.1-0.6-0.1c-0.2,0.3-1.1,0.2-1.2,0.5c-0.4,0-0.8,0.4-1.1,0.5
			c0,0-1.2,0.5-1.3,0.5c-0.1,0.2-1.3,0.3-1.3,0.6c-0.3,0-0.6,0.2-0.4,0.5c0.3,0,0.4,0.3,0.7,0.3c0.2,0,0.8,0.2,0.9,0
			c0.2,0,0.5-0.2,0.7-0.2c0,0,0.4-0.3,0.5-0.4c0-0.2,0.5-0.6,0.5-0.8c-0.1,0,0.4-0.2,0.4-0.2c0.1,0,0.4-0.1,0.4-0.2
			c0.3,0,0.7-0.4,1-0.4c0-0.1,0.6-0.2,0.6-0.3c0.2,0,0.1,0.2,0.1,0.3c0,0,0.4,0.1,0.4,0.1c-0.1,0.1-0.3,0.1-0.4,0.1
			c0,0.1-0.1,0.3-0.1,0.4c-0.1,0,0,0.7-0.2,0.8c0,0.3-0.3,0.6-0.3,0.8c-0.1,0.1-0.1,0.4-0.3,0.5c0,0.2-0.4,0.3-0.4,0.5
			c-0.1,0-0.6,0.4-0.6,0.5c-0.1,0.1-0.6,0.3-0.6,0.4c0,0-0.6,0.3-0.6,0.3c-0.3,0-0.7,0.2-0.9,0.2c0,0-1.2,0.1-1.3-0.1
			c-0.2,0-0.8-0.1-0.9-0.3c-0.2,0-0.4-0.3-0.6-0.3c-0.1-0.1-0.9-0.3-0.5-0.3c-0.1-0.1-0.3-0.2-0.3-0.4c-0.1,0-0.2-0.4-0.4-0.4
			c-0.1-0.2-0.3,0.2-0.1,0.3c0,0.1,0.2,0.2,0.2,0.3c0,0,0.2,0.3,0.2,0.3c0.3,0.1,0,0.1,0,0.3c0.2,0.1,0.1,0.5,0.3,0.6
			c0,0.4,0.5,0.8,0.5,1.2c0.1,0-0.4,0.5-0.6,0.5c0,0.4-0.7,0-0.7,0.2c-0.4,0.1-0.8,0.5-1.2,0.5c-0.3,0.5-0.8-0.7-0.8-0.9
			c-0.2,0-0.4-1.4-0.6-1.4c0-0.1-0.4-1.2-0.5-1.2c0-0.4-0.5-0.8-0.5-1.3c0,0-1.1-0.9-1.1-0.7c-0.1,0-0.5-0.1-0.5,0.1
			c-0.2,0.1-0.5,0.6-0.6,0.6c0,0-0.1,0.6-0.1,0.6c0,0.1,0.1,0.2,0.1,0.3c0.2,0,0.2,1.1,0.5,1.1c0,0.5,0.6,1,0.6,1.5
			c0.1,0,0.5,1.1,0.5,1.3c0,0,0.3,0.5,0.3,0.5c0.1,0,0.1,0.4,0.1,0.4c0,0-0.3,0.2-0.3,0.2c-0.1,0-1.3,0.5-1.3,0.6
			c-0.1,0-0.6,0.4-0.6,0.3c-0.1,0-0.6,0.3-0.6,0.1c-0.2,0-0.5-0.4-0.7-0.4c0,0.1-0.8,0.1-0.6,0c0-0.2,0.7-0.1,0.8-0.1
			c0,0.1,0.2,0,0.3,0c0-0.1,0-0.2,0-0.3c-0.2,0-0.3-1.2-0.5-1.2c-0.1-0.4-0.5-0.9-0.5-1.3c-0.1,0-0.6-1.2-0.6-1.3
			c-0.1,0-0.5-1.1-0.5-1.2c-0.1-0.1-0.6-1.3-0.6-1.5c0,0-0.3-0.5-0.3-0.6c-0.2-0.1-0.6,0-0.4-0.3c0.5,0-0.3-1.1-0.3-1.4
			c0,0-0.2-0.4-0.2-0.4c0-0.1,0.3-0.1,0.3-0.2c0,0,0.8-0.3,0.8-0.3c0.2,0,1.2-0.4,1.3-0.5c0.1,0,0.2-0.1,0.2-0.1
			c0.1-0.2,0.3,0.1,0.2,0.1c0,0.1,0.3,0.7,0.3,0.7c0,0,0.3,0.6,0.3,0.6c0,0.2,0.2,0.4,0.2,0.6c0,0,0.2,0.8,0.4,0.4
			c0.1,0,0.2-0.5,0.4-0.5c0-0.3,0.9-1,1.1-1c0-0.1,0.5-0.1,0.5-0.3c0.1,0,0.5,0,0.6,0c0.1-0.2,0.6,0.1,0.8-0.1
			c0.1,0,0.1-0.2,0.2-0.2c0-0.2,0.5,0.3,0.5-0.2c0,0,0.3-0.1,0.3,0.1c0,0,0.5-0.2,0.5-0.2c0.2,0,0.5-0.2,0.5,0.1
			c-0.3,0-0.5,0.2-0.8,0.2c0,0-0.3,0.1-0.3,0.1c-0.2,0-0.4,0.3-0.2,0.3c0.1,0.2,0.5,0.3,0.7,0.4c0,0,0.6,0.6,0.6,0.6
			c0.1,0.1,0.4,0.5,0.4,0.6c0.1,0,0,0.2,0.2,0.2c0,0.1,0.2,0,0.2,0c0-0.1,0-0.5,0-0.5c0-0.5,0.2-0.9,0.2-1.3c0,0,0.4-1,0.5-1.1
			c0,0,0.5-0.6,0.6-0.7c0,0,0.5-0.5,0.6-0.5c0.1-0.1,1.3-0.7,1.3-0.6c0.2,0,0.5-0.2,0.8-0.2c0,0,1.6-0.1,1.6,0
			c0.2,0,0.5,0.2,0.7,0.2c0,0,0.7,0.4,0.7,0.4c0,0.2,0.9,0.4,0.9,0.7c0,0,0.6,0.7,0.7,0.4c0,0-0.1-1.3-0.1-1.4
			c0-0.1,0.1-0.8,0.2-0.8c0-0.1,0.3-0.6,0.3-0.6c0-0.2,0.8-1.3,1-1.3c0-0.1,0.6-0.3,0.6-0.4c0.1,0,0.8-0.4,0.8-0.4
			c0.5-0.4,1.5-0.1,2.1-0.1c0-0.1,1.4,0.5,1.5,0.5c0,0.3,1.1,0.6,1.1,1c0,0,0.4,0.3,0.4,0.1c0.1,0-0.1-0.4-0.1-0.4
			c-0.1-0.1-0.2-0.3-0.2-0.5c-0.2-0.2-0.2-0.6-0.3-0.8c0,0-0.2-0.3-0.2-0.4c-0.2,0-0.4-0.2-0.1-0.2c0-0.1-0.4-1.3-0.4-1.3
			c-0.2-0.3-0.3-1.2-0.6-1.3c-0.1-0.1,1.2-0.7,1.4-0.7c0.2-0.3,1.2-0.2,1.2-0.7c0.1,0,0-0.2,0.2,0c0.1,0.1,0.1,0.2,0.2,0.3
			c0,0.2,0.2,0.5,0.2,0.7c0.2,0.1,0.5,1,0.5,1.2c0.2,0.1,0.1,0.5,0.5,0.3c0-0.2,0.4-0.4,0.4-0.6c0.1-0.2,0.5-0.6,0.7-0.6
			c0.1-0.2,0.5-0.2,0.6-0.3c0.1-0.4,2.2-0.3,2.2-0.1c0.2,0,1.5,1,1.1,0.2c-0.1,0-0.3-0.6-0.3-0.6c-0.1-0.2,0.5-0.4,0.6-0.4
			c-0.1-0.5-0.6-1-0.6-1.5c0,0-0.2-0.5-0.2-0.5c0-0.1-0.1-0.3,0.1-0.3c0,0,0.5-0.2,0.5-0.2c0.3,0,1.1-0.4,1.3-0.6
			c0.1,0,0.8-0.2,0.8-0.3c0.1,0,0.3,0.1,0.3,0.2c0.3,0,0.1-0.3,0.3-0.3c0,0,0,0,0,0c0-0.2,0.6-0.1,0.6-0.3c0.3,0-0.1,0.3-0.1,0.3
			c-0.2,0.2-0.4,0.3-0.6,0.5c0,0.3,0.4,0.8,0.4,1.2c0,0,0.2,0.5,0.2,0.5c0.1,0,0.7-0.2,0.8-0.2c0.1,0,0.5,1.3,0.6,1.5
			c0.1,0,0,0.3,0,0.3c0,0-0.3,0.1-0.3,0.1c-0.4,0-0.2,0.4-0.2,0.6c0.2,0.1,0.4,1.3,0.6,1.3c0,0.2,0.3,1.1,0.5,1.2
			c0,0.3,0.9,2.6,1.1,2.6C138.9,28.2,139,28.5,138.6,28.5z M105.6,40.8C105.9,40.8,105.1,41,105.6,40.8L105.6,40.8z M105.3,36.8
			C105.6,36.8,105,36.9,105.3,36.8C105.2,36.9,105.3,36.8,105.3,36.8C105.3,36.8,105.3,36.8,105.3,36.8z M104.1,37.3
			c0-0.1,0.2-0.1,0.2-0.1c0,0,0,0,0,0C104.7,37.2,104.3,37.4,104.1,37.3z M102.1,42.4c0.1,0,0.1,0.1,0,0.1
			C102.1,42.5,102.1,42.5,102.1,42.4z M123.6,26.1C123.8,26.1,123.2,26.4,123.6,26.1L123.6,26.1z M124,25.9c0.1,0,0.2,0,0.2,0.1
			C123.8,26,123.8,26.1,124,25.9z M132.2,21c0.1,0,0.3,0,0.3-0.1C132.7,21,132.2,21.3,132.2,21z M138,24.4c0,0,0.2,0,0.2-0.1
			C138.4,24.3,138,24.4,138,24.4z M138.7,24.2c0,0.1-0.4,0-0.2,0C138.6,24,138.8,24.2,138.7,24.2C138.7,24.2,138.7,24.2,138.7,24.2z
			 M138.6,23.7c-0.1,0.1-1.3,0.5-1.3,0.2c0,0,0,0,0,0c-0.1,0,0.9-0.3,0.9-0.3c0.2,0,0.4-0.2,0.6-0.2c0,0.1,0.4-0.1,0.3,0.1
			C139,23.5,138.7,23.6,138.6,23.7z M139.1,24C139.5,24,138.9,24.2,139.1,24L139.1,24z M139.1,22c0-0.1,0.1,0,0.2-0.1
			C139.5,21.9,139.2,22,139.1,22z M139.4,23.9c0,0,0.2-0.1,0.2-0.1C140,23.8,139.4,24.1,139.4,23.9z M139.9,23.7
			c0-0.1,0.2-0.1,0.2-0.1c0.1,0,0.1,0,0.2,0C140.2,23.7,140,23.8,139.9,23.7z M140.6,23.5c0,0,0.1,0,0.1,0c0,0.1-0.2,0.1-0.3,0.1
			C140.4,23.4,140.5,23.5,140.6,23.5z M140.5,26.8c0.1,0,0.3,0,0.3,0c0.1,0,0,0.2-0.1,0.2C140.8,26.8,140.4,27,140.5,26.8z
			 M140.7,27.9C141.4,27.9,140.5,28.1,140.7,27.9L140.7,27.9z M141.2,26.7C141.2,26.7,141.2,26.7,141.2,26.7c-0.1,0.2-0.4,0-0.2,0
			C141,26.5,141.4,26.7,141.2,26.7z M141.4,25.2c0,0,0.1,0,0.1,0C141.5,25.3,141.1,25.5,141.4,25.2z M142.5,27.1
			C142.6,27.1,142.5,27.1,142.5,27.1L142.5,27.1z M142.6,27.1c0-0.1,0.1-0.1,0.1-0.1c0.1,0,0.1,0,0.2,0
			C142.9,27.1,142.6,27.1,142.6,27.1z M142.7,32.2C143.1,32.2,142.4,32.5,142.7,32.2L142.7,32.2z M142.7,28.6
			C142.7,28.7,142.7,28.6,142.7,28.6c-0.1,0-0.1,0-0.1,0c0,0,0,0,0,0c0-0.2,0.4-0.1,0.5-0.1c0,0,0.2,0.1,0.1,0.1
			C143.1,28.6,142.7,28.7,142.7,28.6z"/>
		<path class="st1" d="M140.8,26.8C140.8,26.8,140.9,26.8,140.8,26.8L140.8,26.8z"/>
		<path class="st1" d="M141.4,25.2C141.4,25.2,141.4,25.2,141.4,25.2L141.4,25.2z"/>
		<path class="st1" d="M140.6,23.5C140.6,23.5,140.6,23.5,140.6,23.5L140.6,23.5z"/>
		<path class="st1" d="M95.5,31.2C95.5,31.2,95.5,31.2,95.5,31.2C95.5,31.2,95.5,31.2,95.5,31.2z"/>
		<path class="st1" d="M140.7,27.9C140.7,27.9,140.8,27.9,140.7,27.9L140.7,27.9z"/>
		<path class="st1" d="M139.3,21.9C139.3,21.9,139.3,21.9,139.3,21.9L139.3,21.9z"/>
		<path class="st1" d="M142.5,27.1C142.5,27.1,142.5,27.1,142.5,27.1L142.5,27.1z"/>
		<path class="st1" d="M142.7,27C142.7,27,142.7,27,142.7,27L142.7,27z"/>
		<path class="st1" d="M139.6,23.8C139.6,23.8,139.6,23.8,139.6,23.8L139.6,23.8z"/>
		<path class="st1" d="M140.1,23.6C140.1,23.6,140.1,23.6,140.1,23.6L140.1,23.6z"/>
	</g>
</g>
<g>
	<path class="st1" d="M135.9,44.4c0,0.2,0.5,0.3,0.5,0.5c0.2,0-0.4,0.6-0.4,0.6c-0.2,0.1-0.4,0.3-0.6,0.5c-0.2,0-0.5-0.3-0.6-0.5
		c-0.2-0.2-0.3-0.3-0.2-0.5c0,0,0.3-0.4,0.3-0.4c0.1,0,0.3-0.4,0.5-0.5C135.5,44.1,135.9,44.4,135.9,44.4
		C135.9,44.5,135.9,44.4,135.9,44.4z"/>
	<path class="st1" d="M138.8,49.4c0.3,0,0.3,0.3,0,0.3c0,0-0.1-0.1-0.1-0.2C138.6,49.5,138.8,49.4,138.8,49.4
		C138.9,49.4,138.8,49.4,138.8,49.4z"/>
	<g>
		<path class="st1" d="M140.6,43.5C140.6,43.5,140.7,43.5,140.6,43.5L140.6,43.5z"/>
		<path class="st1" d="M140.6,42.3C140.6,42.3,140.6,42.3,140.6,42.3C140.6,42.3,140.6,42.3,140.6,42.3z"/>
		<path class="st1" d="M140.3,42.4C140.3,42.4,140.4,42.4,140.3,42.4L140.3,42.4z"/>
		<path class="st1" d="M140.7,40.9C140.7,40.9,140.7,40.9,140.7,40.9L140.7,40.9z"/>
		<path class="st1" d="M142.3,41.7C142.2,41.8,142.3,41.7,142.3,41.7L142.3,41.7z"/>
		<path class="st1" d="M143.9,41.3c-0.3,0-2.2,0.2-2.1-0.1c-0.1-0.5-0.4-0.9-0.5-1.3c0,0,0,0,0,0c-0.3,0,0-0.5-0.2-0.5
			c0-0.3-0.2-0.2-0.4-0.2c-0.1,0.2-0.3,0.9-0.5,1c0,0.1-0.2,0.4-0.1,0.5c0,0,0.2,0.3,0.2,0.3c-0.1,0,0.2,0.7,0.2,0.8
			c0,0,0.2,0.3,0.2,0.3c0.1,0,0.1,0.2-0.1,0.2c0,0-0.1,0-0.1,0c-0.1-0.1-0.6-0.3-0.6-0.4c-0.1,0-1.2-0.7-1.2-0.7
			c-0.2,0-0.4-0.3-0.7-0.2c0,0.2-0.4,0.5-0.4,0.7c-0.1,0-0.4,0.5-0.2,0.5c0,0.4,0.6,0.2,0.8,0.2c0-0.1,0.5-0.2,0.6-0.2
			c0-0.1,0.3-0.1,0.4-0.1c0.2,0.3-0.2,0.1-0.2,0.2c-0.1,0-0.2,0.2-0.2,0.2c0,0.2-0.2,0-0.3,0c0,0.1-0.2,0.1-0.2,0.2
			c0.1,0,0.2,0.2,0.3,0.2c0.1,0.1,1,0.6,1.1,0.6c0,0.2,1.1,0.5,1.1,0.6c0.3,0,0.7,0.6,1,0.6c0,0.1,0.6,0.4,0.6,0.4
			c0,0,0.4,0.2,0.5,0.2c0-0.1,0.5-1,0.7-1c0.1-0.2-0.5-0.8-0.8-0.8c0-0.2-1.5-0.5-0.2-0.5c0-0.1,0.2-0.1,0.2-0.2c0,0,0.3-0.3,0.3,0
			c-0.1,0,0.1,0.1,0.1,0.1c0,0.2,0.7,0.1,0.9,0.1c0,0.1,0.9-0.8,0.2-0.6c-0.1,0.1-0.9,0.4-1,0.4c0-0.1,0.2-0.1,0.2-0.3
			c-0.3-0.1-0.1-0.1-0.1-0.2c0.2,0.1,0.5-0.3,0.7-0.3c0.1-0.2,0.8-0.2,0.8-0.5C145.1,41.3,143.9,41.2,143.9,41.3z M140.3,42.4
			C140.6,42.5,140,42.8,140.3,42.4L140.3,42.4z M140.7,40.9C140.8,40.9,140.8,40.9,140.7,40.9C140.7,40.9,140.7,40.9,140.7,40.9z
			 M140.6,42.3C140.6,42.3,140.6,42.3,140.6,42.3C140.8,42.3,140.6,42.4,140.6,42.3C140.6,42.3,140.6,42.3,140.6,42.3z M141.1,43.6
			c-0.3,0-0.8,0.1-0.5-0.2C140.7,43.5,141.2,43.5,141.1,43.6z M142.1,43.7c0.2,0-0.2,0.2-0.2,0c-0.1,0,0-0.3,0-0.3c0,0,0,0,0,0
			c0,0,0,0,0,0c0,0,0,0,0,0C141.9,43.5,142.1,43.7,142.1,43.7z M142.1,41.8c-0.2-0.1,0.2-0.1,0.2-0.1c0.1,0,0.1,0,0.1,0.1
			C142.4,41.9,142.1,41.9,142.1,41.8z M142.6,41.6c0,0,0.1,0,0.2,0C143.1,41.5,142.4,41.9,142.6,41.6z"/>
		<path class="st1" d="M142.7,41.6C142.7,41.6,142.8,41.6,142.7,41.6L142.7,41.6z"/>
	</g>
	<g>
		<path class="st1" d="M139.3,49C139.3,49,139.3,49,139.3,49C139.2,49,139.3,49,139.3,49z"/>
		<path class="st1" d="M137.6,47.4C137.6,47.4,137.6,47.4,137.6,47.4C137.6,47.4,137.6,47.4,137.6,47.4z"/>
		<path class="st1" d="M139.6,48.2c0,0-0.5-0.5-0.5-0.5c-0.3-0.2-0.8-0.8-1-1.1c-0.2-0.1-1.1-0.9-1.2-1.2c0,0,0,0,0,0
			c-0.1,0-0.1-0.1-0.2-0.1c0-0.1-0.6,0.5-0.6,0.5c0,0.1-0.4,0.3-0.4,0.4c-0.2,0.1,0.9,1,0.9,1.1c0.1,0,1,0.9,1,1
			c0.5,0.2,0.5,0.8,1.1,0.8c0-0.1,0.3-0.1,0.3-0.1c0.3,0,0,0.2,0.1,0.3c0,0.1,0.6-0.3,0.6-0.4C140.3,48.6,139.6,48.5,139.6,48.2z
			 M137.2,47.5C137.2,47.5,137.2,47.5,137.2,47.5C137.3,47.5,137.2,47.8,137.2,47.5z M137.4,47.5C137.4,47.5,137.3,47.4,137.4,47.5
			c0-0.1,0.2-0.1,0.2-0.1c0,0,0,0,0,0C137.8,47.4,137.5,47.5,137.4,47.5z M139.2,49.1c0,0,0.1-0.1,0.1-0.1c0,0,0,0,0,0
			C139.4,49,139.3,49.1,139.2,49.1z"/>
	</g>
	<g>
		<path d="M131.7,49.8C131.7,49.9,131.7,49.8,131.7,49.8L131.7,49.8z"/>
		<path d="M132.2,50C132.2,50,132.2,50,132.2,50C132.2,50.1,132.2,50,132.2,50z"/>
		<path d="M134.8,52.7c0-0.2-0.2-0.5-0.4-0.6c0-0.2-0.4-0.4-0.4-0.6c-0.2-0.2-0.2-0.6-0.5-0.8c-0.2-0.3-0.1-0.6,0.1-0.8
			c0.2,0,0.3-0.4,0.3-0.6c0.2,0-0.7-0.9-0.7-0.5c0,0-0.4,0.2-0.4,0.1c0,0,0.1-0.2,0.2-0.2c0,0,0.3-0.1,0.3-0.2
			c0-0.1-0.1-0.2-0.1-0.3c0,0,0,0,0,0c-0.4-0.1-0.9,0.8-0.5,0.8c0,0.3-0.5,0-0.6,0c0,0-0.4,0.3-0.4,0.3c0,0.2-0.4,0.3-0.5,0.5
			c-0.1,0.1,0.3,0.5,0.2,0.5c0,0.3,0.4,0.4,0.4,0.7c0,0.2,0.3,0.6,0.5,0.7c0.1,0.4,0.6,0.7,0.6,1.1c0.5,0.2,0.3,0.9,0.9,0.9
			c0,0,0.6-0.4,0.6-0.4C134.5,53.3,135.2,52.7,134.8,52.7z M131.7,49.8c0,0,0.1,0,0.1,0C131.8,50,131.7,49.9,131.7,49.8z
			 M132.3,50.1C132.2,50.1,132.2,50.1,132.3,50.1C132.2,50.1,132.2,50,132.3,50.1C132.3,50,132.3,50.1,132.3,50.1z"/>
	</g>
	<g>
		<path class="st1" d="M109.9,50.7C109.9,50.7,110,50.7,109.9,50.7L109.9,50.7z"/>
		<path class="st1" d="M112.5,49.7c-0.1-0.1-0.7-0.2-0.7-0.2c0,0,0,0,0,0c-0.3,0-1.4,0-1.4,0.5c0.1,0-0.5,0.7-0.5,0.3
			c-0.2,0-0.3,0.1-0.4,0.3c-0.1,0.1-0.2,0.6-0.3,0.6c0,0.1,0,0.3,0.2,0.3c0,0,0.2,0.1,0.2,0.3c0,0-0.1,0.1-0.1,0.1
			c-0.1,0-0.5,1.1-0.5,1.3c0.2,0,0.1-0.1,0.1,0.1c-0.5,0-0.6,1.2-0.8,1.2c0,0.3-0.2,0.5,0.2,0.6c0,0.1,0.6,0.3,0.7,0.2
			c0.4,0,0.9-0.5,0.9-0.9c0.2-0.1,0.4-1.3,0.6-1.3c0-0.1,0.3-0.8,0.3-0.8c0.2-0.2,0.2,0.1,0.2,0.2c0,0.2,0.4,0,0.2,0
			c-0.1-0.2-0.1-0.3,0.3-0.3c0.1-0.3,0.3-0.4,0.2-0.7c-0.5-0.1-0.1-0.3-0.1-0.4c0.3,0,0.6,0.2,0.7-0.3c0,0,0-0.3,0.1-0.3
			C112.7,50,112.6,50,112.5,49.7z M109.9,50.7C110.2,50.7,109.7,50.9,109.9,50.7L109.9,50.7z"/>
	</g>
	<g>
		<path class="st1" d="M115,54.2C115,54.2,115,54.2,115,54.2C115,54.2,115,54.2,115,54.2z"/>
		<path class="st1" d="M119.8,52.8c0,0-0.4-0.2-0.4-0.1c-0.2,0-0.5-0.1-0.7-0.1c0-0.1-0.5,0.1-0.5,0.1c-0.1,0.4-0.2-0.1-0.5-0.1
			c0-0.1-0.7-0.3-0.7-0.3c0,0-0.3-0.1-0.3,0c-0.5,0-1.2,0.2-1.6,0.5c-0.2,0.1-0.6,0.5-0.6,0.7c-0.1,0-0.2,0.5-0.3,0.5
			c0,0.2-0.2,1.7,0,1.7c0,0.2,0.5,1.1,0.8,1.1c0.3,0.4,1.1,0.5,1.5,0.5c0,0,0.7-0.1,0.7-0.3c0,0,0.2-0.1,0.2,0c0,0,0.1,0.3,0.2,0.3
			c0,0.1,1.2,0,1.3,0c0.1-0.4,0.2-1,0.2-1.4c0.1-0.2,0.2-2.6,0.3-2.6C119.8,53.3,120,52.9,119.8,52.8z M115,54.2
			C115,54.2,115,54.2,115,54.2C115.4,54.2,115,54.5,115,54.2z M115.7,54.1c0,0.2-0.3,0-0.3,0C115.4,54.1,115.6,54.1,115.7,54.1
			C115.6,54,115.6,54,115.7,54.1C115.7,54,115.7,54.1,115.7,54.1z M118,55.1c0,0.7-0.9,0.9-1.4,0.7c0,0.1-0.6-0.5-0.5-0.5
			c0-0.2-0.2-1,0.1-1.1c0,0,0,0,0,0c0.1-0.6,1.1-0.3,1.4-0.3C117.6,54.1,118.5,54.8,118,55.1z"/>
	</g>
	<g>
		<path class="st1" d="M123.8,51.1C123.8,51.1,123.8,51.1,123.8,51.1C123.8,51.1,123.8,51.1,123.8,51.1z"/>
		<path class="st1" d="M125.2,53.4C125.2,53.4,125.2,53.4,125.2,53.4L125.2,53.4z"/>
		<path class="st1" d="M128.9,54.2c0,0-0.2-0.1,0-0.1c0-0.1,0.1,0,0-0.2c-0.2-0.1,0.1-0.4,0-0.4c0-0.2-0.3-0.8-0.4-1
			c0-0.1-0.3-0.2-0.3-0.1c-0.1,0-0.4-0.1-0.2-0.1c0.2-0.3-0.3-0.3-0.3-0.5c-0.2-0.1-0.4-0.3-0.7-0.3c0-0.2-0.8,0.2-0.8,0.2
			c0,0-0.3,0.1-0.3,0.1c-0.2,0,0-0.1,0-0.1c0.2,0,0.1-0.2-0.1-0.1c0,0.2-0.2,0.2-0.3,0.2c0,0-0.5,0.2-0.5,0.4c-0.1,0-0.2-0.9-0.3-1
			c0,0,0,0,0,0c0,0,0-0.1,0-0.1c0,0-0.3-0.6-0.3-0.5c-0.3,0-0.5,0.2-0.7,0.2c0,0-0.4,0.1-0.4,0.1c-0.1,0.2-0.2-0.1-0.2,0.4
			c0,0,0.2,0.5,0.2,0.6c0.1,0,0.3,1.8,0.4,1.8c0,0.2,0.5,1.8,0.4,1.8c0,0.2,0.4,1.6,0.5,1.6c0,0.1,0.7,0,0.8-0.1
			c0.5,0,0.5-0.2,0.6-0.5c0,0,0.4,0.1,0.4,0.2c0.2,0.1,0.6,0,0.8,0c0-0.1,0.9-0.3,0.9-0.4c0.1,0,0.6-0.6,0.6-0.7
			C128.9,55.4,129.2,54.1,128.9,54.2z M123.8,51.2c-0.1,0-0.1-0.1,0-0.1c0,0,0,0,0,0C123.9,51.1,123.9,51.1,123.8,51.2z M124.2,54.9
			c0-0.1,0-0.1,0.1-0.2c0,0,0.3-0.1,0.3-0.1c0,0,0,0,0,0C124.7,54.6,124.3,54.9,124.2,54.9z M125.2,53.4
			C125.5,53.4,124.9,53.9,125.2,53.4L125.2,53.4z M127.2,54.8c0,0.3-0.4,0.2-0.5,0.4c-0.2,0-0.6,0.1-0.8-0.1
			c-0.3-0.1-0.3-0.5-0.4-0.6c0-0.5,0-1.4,0.7-1.4c0,0,0,0,0,0c0-0.1,0.2-0.1,0.3,0c0.3,0,1,0.2,1,0.7
			C127.7,53.7,127.4,54.7,127.2,54.8z M127.7,52.5C127.7,52.4,127.7,52.5,127.7,52.5C127.8,52.5,127.7,52.5,127.7,52.5
			C127.8,52.5,127.8,52.6,127.7,52.5z M128.6,54.1c-0.3,0-0.2-0.1-0.2-0.2c0,0,0,0,0,0C128.4,53.9,128.6,54,128.6,54.1z"/>
	</g>
</g>
<g>
	<path d="M92.3,42.1C92.3,42.1,92.3,42.1,92.3,42.1L92.3,42.1z"/>
	<path d="M138,8.5C138,8.5,138,8.5,138,8.5C138,8.5,138,8.5,138,8.5z"/>
	<path d="M128.7,58.5C128.7,58.5,128.7,58.5,128.7,58.5L128.7,58.5z"/>
	<path d="M115.7,2C115.6,2,115.7,2,115.7,2L115.7,2z"/>
	<path d="M115.5,59.7C115.5,59.7,115.5,59.7,115.5,59.7C115.5,59.7,115.5,59.7,115.5,59.7z"/>
	<path d="M125.5,59.3C125.5,59.3,125.5,59.3,125.5,59.3L125.5,59.3z"/>
	<path d="M109.3,58.6C109.3,58.6,109.3,58.6,109.3,58.6C109.3,58.6,109.3,58.6,109.3,58.6z"/>
	<path d="M147,38.9C147,38.9,147,38.9,147,38.9C147,38.9,147,38.9,147,38.9z"/>
	<path d="M93.7,17.3C93.7,17.3,93.7,17.3,93.7,17.3L93.7,17.3z"/>
	<path d="M148.5,30.4c0.1,0,0.2-1.4,0.1-1.4c0-0.1,0-1-0.1-1c0-0.1-0.2-0.2-0.2-0.3c0,0,0.1-0.7,0.1-0.9c0,0-0.2-0.2-0.2-0.2
		c-0.2-0.1,0.1-0.2,0.1-0.2c0.2-0.1-0.3-1.5-0.3-1.7c-0.1,0-0.2-1.2-0.3-1.2c0-0.2-0.4-1.9-0.5-1.9c0-0.5-0.5-0.9-0.5-1.3
		c-0.1-0.1-0.3-0.6-0.3-0.8c0,0-0.1-0.3-0.1-0.3c-0.2,0-0.2-0.1-0.2-0.3c0,0,0,0,0,0c-0.1,0.3-0.3-0.1-0.3-0.1
		c0-0.2,0.2,0.2,0.2-0.1c0,0-0.3-0.7-0.4-0.9c0,0-0.4-0.4-0.4-0.4c0.2,0-0.2-0.7-0.2-0.8c0-0.3-0.5-0.6-0.5-1c0,0-0.4-0.5-0.3-0.5
		c0-0.1-0.3-0.6-0.4-0.6c-0.4-0.8-1-1.5-1.6-2.2c-0.1,0-0.5-0.6-0.6-0.7c-0.2-0.1-0.3-0.4-0.5-0.5c-0.1,0-0.7-0.7-0.7-0.8
		c-0.2,0-0.3-0.5-0.5-0.5c0-0.1-0.4-0.5-0.5-0.5c0-0.1-1-1-1.1-1c-0.2-0.4-1-0.6-1.2-0.9c-0.1,0-1-0.7-1-0.7c-0.4,0-0.9-0.6-1.2-0.8
		c0,0-0.8-0.5-0.9-0.5c-0.1-0.2-1-0.6-1.2-0.7c-0.1-0.1-1-0.6-1.2-0.6c0,0-1-0.4-1.1-0.4c0-0.3-1.5-0.4-1.7-0.7
		c-0.4,0-0.9-0.4-1.3-0.4c-0.1-0.1-0.7-0.2-0.8-0.2c0,0-0.7-0.2-0.8-0.2c0,0-1.8-0.4-1.9-0.4c0,0-1.1-0.1-1.3-0.1
		c0,0-0.2,0.1-0.2,0.1c0,0-0.4-0.2-0.4-0.2c0,0,0,0,0,0c-1.2-0.1-2.7-0.1-3.9-0.1c0-0.1-1.4,0.1-1.5,0.1c0,0-0.4-0.1-0.4,0.1
		c0.1,0.1-0.4,0.1-0.4-0.1C115.2,1.7,114.5,2,114,2c-0.1-0.1-3.5,0.8-3.5,0.9c-0.5,0-1,0.5-1.5,0.5c0,0-1.3,0.6-1.4,0.6
		c0,0.1-0.6,0.3-0.7,0.3c0,0.1-0.7,0.2-0.7,0.3c-0.1,0-0.7,0.3-0.7,0.4c-0.1,0-0.5,0.2-0.5,0.3c-0.4,0.1-0.7,0.6-1.2,0.6
		c0,0.1-1,0.7-1.1,0.7c-0.1,0.1-0.3,0.2-0.4,0.3c-0.2,0.1-0.6,0.5-0.8,0.5c-0.1,0.1-1,0.9-1.1,0.9c0,0.1-0.2,0.4-0.4,0.4
		c-0.1,0.1-0.5,0.5-0.6,0.5c-0.1,0.5-1.1,0.7-1.1,1.1c-0.3,0-0.6,1-1,1c-0.2,0.3-0.5,0.6-0.8,0.9c-0.2,0.1-0.9,1-0.9,1.2
		c-0.1,0.2-0.6,1.1-0.8,1.1c0,0.1-0.7,1.1-0.7,1.1c0,0-0.2,0.3-0.2,0.3c0,0.3-0.3,0.4-0.3,0.6c-0.1,0-0.3,0.5-0.3,0.5
		c-0.2,0-0.3,1-0.6,1.1c0,0.5-0.6,1-0.6,1.4c-0.1,0-0.5,1.2-0.3,1.2c0,0,0.6,0.3,0,0.2c0-0.1-0.6,0.6-0.1,0.6c0,0,0.2,0.1,0,0.1
		c0,0-0.1,0-0.1,0c0,0-0.2-0.1-0.2,0c-0.1,0.1-0.2,0.3-0.2,0.5c-0.2,0-0.1,0.8,0,0.6c0.1,0,0.2-0.2,0.2,0.1c0.1,0-0.2,0.3-0.2,0.3
		c-0.1,0-0.4,0.4-0.4,0.4c0,0.1-0.4,1.7-0.4,1.7c0,0.3-0.2,0.8-0.2,1c-0.1,0,0,0.9-0.1,1c0,0.2-0.1,0.3,0,0.4c0,0.2,0.6-0.1,0.6,0.2
		c-0.2,0.1-0.3,0-0.5,0c0,0-0.1,0-0.2,0c0,0.2-0.1,0.4,0,0.7c0,0.2,0,0.3,0,0.5c0,0.2,0,0.4,0,0.5c0.5,0,0,0.1-0.1,0.2
		c-0.1,0,0,0.8,0,0.8c-0.1,0,0,1.4,0,1.4c0,0.2,0.1,3.3,0.3,3.3c0,0.1,0.2,1,0.1,1c0,0.1,0.1,1,0.2,1c0,0.4,0.3,0.9,0.3,1.4
		c0,0,0.4,1.2,0.4,1.3c0.2,0,0.3,1.1,0.5,1.2c0,0.5,0.4,0.9,0.5,1.4c0.3,0.1,0.4,1.4,0.7,1.4c0,0.1,0.5,1.2,0.6,1.2
		c0.1,0.1,0.2,0.7,0.3,0.7c0,0.2,0.4,0.5,0.4,0.7c0.1,0,0.7,1.1,0.8,1.2c0.4,0.1,0.5,1,0.9,1.2c0,0.4,0.9,0.8,0.9,1.1
		c0.1,0.1,0.3,0.5,0.5,0.5c0,0,0.6-0.3,0.4-0.4c0-0.4-0.9-0.8-0.9-1.2c-0.3-0.1-0.4-0.7-0.7-0.9c0,0-0.4-0.5-0.4-0.5
		c-0.1-0.1-0.2-0.4-0.4-0.5c0-0.2-0.4-0.4-0.4-0.6c0,0-0.3-0.5-0.3-0.6c0,0-0.5-0.8-0.5-0.9c-0.2,0-0.4-1.1-0.6-1.1
		c0-0.4-0.6-0.8-0.6-1.2c-0.1,0-0.2-0.2-0.3-0.2c0,0-0.2-0.1-0.1-0.1c0.1-0.1,0.1,0.1,0.1-0.2c-0.1,0-0.3-0.7-0.3-0.8
		c0-0.5-0.4-1-0.5-1.5c-0.2,0-0.3-1.7-0.5-1.7c0-0.1-0.4-1.7-0.4-1.7c0-0.1-0.2-1.2-0.2-1.2c0-0.4-0.1-1.1-0.2-1.6
		c-0.1,0-0.1-0.7-0.1-0.8c-0.3,0,0.4-3-0.3-3c0-0.1,0.2-0.1,0.3-0.2c0.1,0,0-0.4,0.1-0.5c0,0,0.1-0.8,0.1-0.8c0-0.5,0.2-1.1,0.2-1.5
		c0-0.2,0-0.4,0-0.6c0,0,0.1-0.2,0.1-0.2c-0.1-0.1-0.2,0-0.2-0.2c0.3-0.1,0.2-0.4,0.4-0.5c0-0.7,0.4-1.4,0.5-2c0,0,0.4-1.3,0.5-1.4
		c0.1,0,0.3-1.5,0.6-1.5c0-0.2,0.5-1.3,0.6-1.4c0-0.1,0.5-1.2,0.6-1.2c0-0.1-0.3-0.2,0.1-0.3c0,0,0.2-0.2,0.1-0.2
		c0-0.2,0.3-0.5,0.4-0.7c0.1-0.4,0.8-0.8,0.8-1.2c0.1,0,0.7-0.9,0.7-1.1c0.1,0,0.9-1.1,0.9-1.2c0.2-0.3,0.6-0.8,0.8-0.9
		c0-0.1,0.8-0.9,0.9-0.9c0-0.2,0-0.1,0.1-0.3c0.1,0,0.3-0.2,0.4-0.2c0.1-0.1,0.5-0.3,0.5-0.5c0.1,0,0.3-0.4,0.4-0.4
		c0,0,0.2-0.2,0.2-0.2c0-0.2-0.4,0.1-0.3,0.1c-0.1,0,0.5-0.6,0.7-0.6c0,0,0.5-0.3,0.6-0.3c0.1-0.2,0.4-0.4,0.6-0.5
		c0.1-0.3,0.5-0.3,0.6-0.5c0.2,0,1-0.6,1-0.7c0,0,0.6-0.3,0.6-0.4c0.1,0,0.3-0.3,0.5-0.3c0-0.1,1.1-0.7,1.2-0.7
		c0.2-0.3,1-0.5,1.3-0.6c0.1-0.2,1.2-0.4,1.2-0.5c0.5,0,1-0.5,1.6-0.6c0-0.2,1.1-0.4,1.3-0.4c0.2-0.3,1.5-0.1,1.5-0.5
		c0.1-0.1,0.4,0.1,0.6-0.1c0.2,0,0.3-0.3,0.5-0.3c0.1-0.1,0.2-0.1,0.3,0c0.1,0.2-0.1,0,0,0.2c0,0,0.2,0.1,0.2,0
		c0.3,0,0.6-0.2,0.8-0.2c0,0,1.7-0.1,1.8-0.1c0.1-0.2,0.7,0.1,0.8-0.1c0.1,0,0.1-0.3,0.2-0.1c0.1,0,1.1,0.2,1.1,0.1
		c0.5,0,1.2,0.1,1.7,0c0-0.1,0.4-0.1,0.4-0.2c0.2,0,0.1,0,0.1,0.2c0.4,0,0.9,0,1.4,0.1c0,0,2.2,0.4,2.4,0.4c0,0,1.7,0.5,1.8,0.5
		c0.1,0.2,1.4,0.2,1.4,0.4c0.1,0,1.5,0.5,1.5,0.5c0.1,0.1,1.2,0.5,1.2,0.6c0.1,0,0.7,0.3,0.7,0.3c0.2,0,0.4,0.3,0.6,0.3
		c0.1,0.3,0.9,0.3,1.1,0.6c0.3,0,0.7,0.5,1.1,0.6c0,0.1,0.5,0.2,0.5,0.3c0.1,0.2,0.4,0.2,0.5,0.4c0,0.1,1,0.8,1.1,0.8
		c0,0.2,1,0.7,1.1,0.9c0.1,0,1,0.8,1,0.9c0.2,0.1,0.7,0.9,0.9,0.9c0,0.1,1,1.2,1.1,1.2c0,0.2,0.5,0.5,0.5,0.5
		c0.3-0.1,0.6-0.4,0.4,0.1c-0.7,0.1,0.2,0.7,0.3,1c0.2,0.1,0.6,1.1,0.8,1.1c0.1,0.1,0.3,0.6,0.4,0.6c0.1,0.2,0.7,0.2,0.7,0.2
		c-0.1,0-0.3,0.1-0.4,0.1c0,0.2,0.2,0.6,0.4,0.8c0,0.3,0.4,0.5,0.4,0.8c0.2,0.1,0.4,1.2,0.6,1.2c0.2,0.2,0.5,0.9,0.5,1.1
		c0.2,0.1,0.3,1.2,0.5,1.2c0,0.1,0.4,1.3,0.4,1.3c0,0.5,0.5,1,0.5,1.6c0.2,0.1,0.3,1.7,0.5,1.7c0,0.7,0.3,1.4,0.3,2.1
		c-0.1,0,0.2,0.2,0.3,0.2c-0.2,0.1-0.2,0.2-0.2,0.5c0,0.1,0,1.1,0.1,1.1c0,0,0.4,0.3,0.1,0.3c0,0.1-0.1,0.1-0.1,0.2
		c0.1,0.1,0,0.5,0,0.6c0,0,0,0.7,0,0.7c0,0.2-0.2,1.3,0,1.4c0,0.2-0.2,1.7-0.2,1.7c0,0.4-0.5,1.7,0.1,1.7c0,0,0,0,0,0
		c0,0.1-0.4,0.2-0.4,0.3c0,0-0.2,0.9-0.2,1c0,0-0.4,1.6-0.4,1.7c-0.1,0-0.2,0.6-0.2,0.7c0.1,0-0.1,0.3-0.1,0.3
		c-0.1,0-0.2,0.6-0.2,0.7c-0.2,0.1-0.4,1.3-0.5,1.3c0,0.4-0.4,0.8-0.5,1.1c0,0-0.5,1-0.5,1.1c-0.2,0.1-0.1,0.5-0.3,0.6
		c0,0.3-0.3,0.5-0.4,0.7c-0.1,0-0.7,1-0.7,1.1c-0.4,0.2-0.5,1-0.9,1.3c0,0.4-0.7,0.7-0.8,1.1c-0.1,0-0.9,1-0.9,1.2c-0.1,0-1,0.9-1,1
		c-0.1,0-1,0.9-1.1,1c-0.1,0-0.6,0.5-0.6,0.5c-0.1,0-0.7,0.7-0.7,0.8c-0.1,0.1-0.2,0.1-0.3,0.1c0,0-0.4,0.4-0.4,0.5c0,0,0,0,0,0
		c0,0,0,0,0,0c-0.1,0-0.6,0.2-0.6,0.3c-0.2,0.2-0.4,0.3-0.7,0.5c0,0.1-0.3,0.2-0.3,0.3c0,0,0.3,0.2,0.2,0.3c0,0-0.6-0.1-0.8-0.1
		c-0.1,0.3-0.5,0.3-0.7,0.5c-0.1,0-1.1,0.5-1.1,0.6c-0.1,0-1.4,0.7-1.4,0.7c-0.1,0-1.3,0.6-1.3,0.6c-0.1,0-1.5,0.5-1.5,0.6
		c-0.2,0-1.3,0.3-1.4,0.4c-0.1,0-0.6,0.2-0.6,0.2c-0.1,0-0.8,0.1-0.8,0.2c-0.1,0-0.3,0.1-0.5,0.1c0,0.1-0.3,0.3-0.4,0.3
		c-0.1,0-0.6-0.1-0.6,0c-0.2,0-0.3,0.1-0.5,0.1c0,0.1-2.2,0.2-2.2,0.3c-0.3,0-3.4,0.1-3.4,0c-0.1,0-0.8-0.1-0.8,0
		c-0.1,0-0.2,0.1-0.3,0.1c0,0.2-0.1-0.2-0.1-0.2c-0.2,0-0.4-0.1-0.6-0.1c0,0-2.2-0.3-2.4-0.4c-0.1-0.2-1.6-0.1-1.6-0.4
		c-0.1,0-0.7,0.2-0.7,0.2c-0.1,0,0.2-0.2,0.1-0.2c-0.1-0.1-0.3-0.1-0.4-0.2c-0.4,0-1-0.5-1.5-0.5c0,0-1.2-0.5-1.3-0.5
		c-0.3-0.1-1.2-0.3-1.3-0.6c-0.2,0-0.4-0.1-0.7-0.1c0,0-0.6,0.3-0.3-0.1c0.5,0-0.1-0.4-0.1-0.4c-0.2,0-1-0.4-1-0.6
		c-0.3,0-1.2-0.6-1.4-0.8c-0.3,0-1.1-0.6-1.2-0.8c-0.3,0-0.7-0.8-1-0.8c0-0.1-1.1-1-1.2-1c0-0.1-1-1-1.1-1c0,0-0.5-0.5-0.5-0.5
		c0,0-1.1,0.1-0.7-0.1c0-0.2,0.6-0.2,0.2-0.4c0-0.3-1.2,0-0.6,0.3c0.1,0.2,0.5,0.4,0.5,0.6c0.1,0.1,0.7,0.6,0.7,0.7
		c0.2,0.1,0.7,0.9,1,0.9c0,0.1,0.9,0.8,0.9,0.8c0,0.2,1.1,0.9,1.3,0.9c0,0.3,1.1,0.5,1.1,0.8c0.2,0.1,0.3,0.2,0.5,0.3
		c0,0.1,0.3,0,0.4,0c0.1,0.1,0,0.3,0.2,0.3c0.1,0.2,1,0.6,1.2,0.7c-0.1-0.4,0.2-0.1,0.1,0c0,0.1,0.2,0.2,0.3,0.2
		c0.1,0.1,0.9,0.4,0.9,0.3c0.3,0,0.4,0.1,0.5,0.3c0.1,0,0.6,0.2,0.6,0.3c0.2,0.1,0.5,0.1,0.6,0.3c0.1,0,0.2,0.1,0.3,0.1
		c0,0,0.5,0.2,0.5,0.2c-0.1-0.1,0.5,0,0.5,0c0,0.1,0.3-0.1,0.3,0c0.2,0,0.1,0.3,0.1,0.4c0.2,0,0.3,0,0.5,0c0.1,0.1,0.3,0,0.3-0.1
		c0,0,0.3,0.2,0.3,0.1c0,0,0.1-0.1,0.1,0c0,0-0.1,0.3-0.2,0.3c0,0.1,0.2,0,0.3,0.1c0.1,0,0.7,0.1,0.8,0.2c0.1,0,0.5,0,0.5,0.1
		c0.2,0,0.3-0.1,0.4-0.1c0,0,0.4-0.1,0.3,0.2c0,0,0,0.1,0,0.1c0,0.1,0.5,0,0.5,0.1c0.8,0,1.7,0.4,2.6,0.4c0,0,1.4,0.1,1.5,0.1
		c0.6,0,1.2,0,1.8,0c0,0,0.8-0.1,0.8,0c0.7,0,1.6-0.3,2.3-0.3c0,0,1.8-0.2,1.8-0.3c0.6,0,1.2-0.4,1.8-0.4c0-0.2,1.6-0.3,1.6-0.5
		c0.3-0.1,0.8-0.4,1.1-0.4c0,0,1-0.5,1.2-0.5c0,0,0.7-0.3,0.3-0.3c-0.1-0.1-0.6,0.1-0.6,0.2c-0.1,0-0.3,0.2-0.3,0
		c0.1-0.1,0.1-0.2,0.3-0.2c0.1-0.1,0.5-0.2,0.7-0.2c0,0,0.5-0.2,0.6-0.2c0,0,0.6-0.2,0.7-0.2c0-0.2,0.5-0.1,0.6-0.1
		c0-0.1,0.2-0.3,0.3-0.3c0,0.1,0.6-0.4,0.6-0.4c0-0.2,1.1-0.4,1.1-0.4c0.2,0,0.4-0.3,0.6-0.4c0,0,0.5-0.5,0.5-0.4
		c0.1,0,0.7-0.4,0.7-0.5c0.3-0.1,0.3-0.5,0.7-0.5c0-0.1,0.6-0.3,0.6-0.4c0.2,0,0.7-0.5,0.7-0.7c0.1,0,0.6-0.4,0.6-0.5
		c0.3,0,0.4-0.5,0.6-0.5c0-0.1,0.6-0.7,0.7-0.7c0-0.1,0.3-0.4,0.4-0.5c0-0.1,0.8-0.9,0.8-0.9c0.1-0.4,0.7-0.6,0.8-1
		c0.1-0.1,0.8-1,0.8-1.1c0.1,0,0.7-1,0.7-1.1c0.3,0-0.3-0.4,0.2-0.4c0,0,0.4-0.6,0.4-0.6c0.1-0.5,0.6-0.9,0.7-1.3
		c0.1,0,0.7-1.2,0.7-1.3c0.1,0,0.3-0.7,0.1-0.7c0,0,0.4-0.3,0.3-0.3c0-0.1,0.1-0.2,0.1-0.3c0.2-0.1,0-0.4,0-0.3c0,0,0.2-0.4,0.3-0.4
		c0.1-0.2,0.3-0.5,0.3-0.7c0,0,0.1-0.6,0.2-0.6c0-0.4,0.5-0.9-0.1-0.9c0-0.2,0.4-0.1,0.4-0.4c0,0,0.2-0.6,0.2-0.7
		c0.1,0,0.3-1.5,0.3-1.6c0.2,0,0.2-2.6,0.4-2.6C148.5,33.1,148.9,30.5,148.5,30.4z M90.4,34.4C90.4,34.4,90.4,34.4,90.4,34.4
		C90.4,34.4,90.4,34.6,90.4,34.4z M92.3,42.1C92.6,42.1,92.1,42.4,92.3,42.1L92.3,42.1z M93.7,17.3C94,17.3,93.6,17.5,93.7,17.3
		L93.7,17.3z M103.5,6.6c-0.3,0,0.3-0.2,0.2-0.2c0,0,0,0,0,0C103.8,6.4,103.7,6.8,103.5,6.6z M114.7,2.3
		C115.1,2.3,114.3,2.7,114.7,2.3L114.7,2.3z M115.2,2.2C115.5,2.2,114.8,2.5,115.2,2.2L115.2,2.2z M115.7,2c0.1,0,0.2,0,0.2,0.1
		C115.6,2.1,115.5,2.2,115.7,2z M137.9,8.6c-0.2,0,0.1-0.1,0.1-0.1c0,0,0,0,0,0C138.1,8.5,138,8.6,137.9,8.6z M144.7,17.5
		C144.7,17.5,144.7,17.5,144.7,17.5C144.7,17.5,144.8,17.5,144.7,17.5C144.9,17.5,144.8,17.6,144.7,17.5z M147.7,26.8
		c0,0,0.2,0,0.2,0c0,0,0,0,0,0C148,26.8,147.7,27.1,147.7,26.8z M107.5,57.5C107.5,57.5,106.9,57.6,107.5,57.5
		C107.5,57.5,107.5,57.5,107.5,57.5z M114,59.4C114,59.5,113.4,59.4,114,59.4C114,59.4,114,59.4,114,59.4z M115.4,59.8
		c0-0.1,0.1-0.1,0.1-0.1c0,0,0,0,0,0C115.6,59.7,115.5,59.9,115.4,59.8z M125.5,59.3C125.8,59.3,125.1,59.6,125.5,59.3L125.5,59.3z
		 M128.7,58.5c0.1,0,0.1,0,0.1,0.1C128.4,58.5,128.7,58.5,128.7,58.5z M129.7,58.2c-0.3,0-0.5,0.2-0.8,0.2c0,0,0,0,0,0
		c0-0.1,0.2-0.1,0.3-0.1c0,0,0,0,0,0C129.3,58,129.9,57.9,129.7,58.2z M136.1,54.4c0,0,0.1,0,0.1,0c0,0,0,0,0,0
		C136.5,54.4,136,54.7,136.1,54.4z M146,42.4c-0.1,0-0.1-0.1-0.1-0.1c0,0,0,0,0,0C145.9,42.2,146.2,42.3,146,42.4z M146.1,41.5
		c0-0.1,0.1-0.1,0.2-0.1c0.1,0,0.1,0,0.1,0.1C146.4,41.5,146.2,41.5,146.1,41.5z M146.9,39.4C147.4,39.4,146.5,39.6,146.9,39.4
		L146.9,39.4z M147,38.9C147,38.9,147,38.9,147,38.9C147,38.9,147.1,38.9,147,38.9C147.1,39.1,147,39,147,38.9z"/>
	<path d="M146.9,39.4C146.9,39.5,146.9,39.4,146.9,39.4L146.9,39.4z"/>
	<path d="M114.7,2.3C114.7,2.4,114.7,2.3,114.7,2.3L114.7,2.3z"/>
	<path d="M115.2,2.2C115.2,2.2,115.2,2.2,115.2,2.2L115.2,2.2z"/>
	<path d="M146.3,41.4C146.3,41.4,146.3,41.4,146.3,41.4L146.3,41.4z"/>
</g>
<g>
	<path class="st1" d="M133.2,58C133.2,58,133.2,58,133.2,58C133.2,58,133.2,58,133.2,58z"/>
	<path class="st1" d="M93,16.1C93,16.1,93,16.1,93,16.1L93,16.1z"/>
	<path class="st1" d="M113.9,60.4C113.9,60.4,113.9,60.4,113.9,60.4L113.9,60.4z"/>
	<path class="st1" d="M120,0.4C120,0.4,120,0.4,120,0.4L120,0.4z"/>
	<path class="st1" d="M104.6,4.7C104.6,4.7,104.6,4.7,104.6,4.7L104.6,4.7z"/>
	<path class="st1" d="M115.6,61.1C115.6,61.1,115.6,61.1,115.6,61.1L115.6,61.1z"/>
	<path class="st1" d="M90.7,20.8C90.7,20.8,90.7,20.8,90.7,20.8C90.6,20.8,90.7,20.8,90.7,20.8z"/>
	<path class="st1" d="M119.1,0.7C119.1,0.7,119.1,0.7,119.1,0.7L119.1,0.7z"/>
	<path class="st1" d="M123,60.9C122.9,60.9,123,60.9,123,60.9L123,60.9z"/>
	<path class="st1" d="M122.4,61.1C122.4,61.1,122.5,61.1,122.4,61.1L122.4,61.1z"/>
	<path class="st1" d="M113.4,60.4C113.4,60.4,113.4,60.4,113.4,60.4C113.4,60.4,113.5,60.4,113.4,60.4z"/>
	<path class="st1" d="M96.4,50.7C96.4,50.7,96.4,50.7,96.4,50.7L96.4,50.7z"/>
	<path class="st1" d="M130.8,3C130.8,3,130.8,3,130.8,3L130.8,3z"/>
	<path class="st1" d="M104.3,57C104.3,57.1,104.3,57,104.3,57L104.3,57z"/>
	<path class="st1" d="M103,56.2C103,56.2,103,56.2,103,56.2C103,56.2,103,56.2,103,56.2z"/>
	<path class="st1" d="M116.4,0.6C116.4,0.6,116.4,0.6,116.4,0.6C116.4,0.6,116.4,0.6,116.4,0.6z"/>
	<path class="st1" d="M111,60.2C111,60.2,111,60.2,111,60.2L111,60.2z"/>
	<path class="st1" d="M113,60.4C113,60.4,113,60.4,113,60.4C113,60.4,113,60.4,113,60.4z"/>
	<path class="st1" d="M99.5,7.6C99.5,7.6,99.6,7.6,99.5,7.6C99.6,7.6,99.6,7.6,99.5,7.6z"/>
	<path class="st1" d="M126.8,1.5C126.8,1.5,126.8,1.5,126.8,1.5L126.8,1.5z"/>
	<path class="st1" d="M111.6,60C111.6,60,111.7,60,111.6,60L111.6,60z"/>
	<path class="st1" d="M100.7,7.1C100.7,7.1,100.7,7.1,100.7,7.1L100.7,7.1z"/>
	<path class="st1" d="M103.2,5.2C103.2,5.2,103.2,5.2,103.2,5.2L103.2,5.2z"/>
	<path class="st1" d="M147.7,41C147.7,41,147.7,41,147.7,41L147.7,41z"/>
	<path class="st1" d="M113.4,1.7C113.4,1.7,113.4,1.7,113.4,1.7L113.4,1.7z"/>
	<path class="st1" d="M135.3,5.2C135.3,5.2,135.3,5.2,135.3,5.2L135.3,5.2z"/>
	<path class="st1" d="M135.4,56.4C135.4,56.4,135.4,56.4,135.4,56.4L135.4,56.4z"/>
	<path class="st1" d="M146.4,44.7C146.4,44.7,146.4,44.7,146.4,44.7L146.4,44.7z"/>
	<path class="st1" d="M110.9,2.2C110.9,2.2,110.9,2.2,110.9,2.2L110.9,2.2z"/>
	<path class="st1" d="M142.9,12C142.9,12,142.9,12,142.9,12L142.9,12z"/>
	<path class="st1" d="M150,29.3c-0.1,0-0.1-2.8-0.3-2.8c0-0.3-0.2-0.8-0.2-1c0.1,0-0.2-1.1-0.2-1.1c0,0-0.4-1.7-0.4-1.8
		c-0.2-0.1-0.2-1.3-0.4-1.3c0-0.1-0.3-1.1-0.4-1.1c0-0.4-0.3-0.9-0.5-1.3c0,0-0.1-0.3-0.1-0.3c0,0.1-0.3-0.5-0.2-0.4
		c0-0.1-0.1-0.5-0.2-0.6c0-0.4-0.6-0.8-0.6-1.2c-0.1-0.1-0.6-1-0.6-1.1c-0.3,0-0.5-1.1-0.8-1.2c0-0.4-0.8-0.8-0.8-1.2
		c-0.1,0-0.5-0.6-0.5-0.7c-0.1-0.1-0.5-0.5-0.5-0.7c-0.4-0.2-0.5-0.8-0.9-1c0-0.1-0.2-0.2-0.2-0.1c-0.2,0-0.4-0.2-0.3-0.2
		c0-0.3-0.1-0.3-0.2-0.5c-0.1,0-1-0.9-1-1c-0.2,0-1-0.8-1-0.9c-0.1-0.1-1.1-0.7-1.1-0.8c-0.2,0-0.5-0.3-0.6-0.5
		c-0.1,0-0.2-0.3-0.4-0.3c0-0.2-0.5,0.1-0.6,0c0-0.2,0.3,0,0.1-0.4c-0.1,0-0.3-0.3-0.4-0.3c-0.1-0.1-0.4-0.2-0.4-0.3
		c-0.1-0.1-0.6-0.1-0.4-0.2c0-0.3-1.1-0.5-1.1-0.7c-0.3,0-0.9-0.5-1.2-0.7c-0.3,0-0.7-0.4-1.1-0.5c-0.1-0.3-0.5-0.1-0.6-0.1
		c0-0.1-0.5-0.3-0.5-0.4c-0.4,0-0.8-0.5-1.2-0.5c0-0.2-1.3-0.3-1.4-0.5c-0.2,0-3.1-0.8-3.1-0.8c-0.6,0-1.2-0.3-1.8-0.3
		c-1.1,0-2-0.3-3.1-0.3c0,0,0,0,0,0c0,0,0,0,0,0c-0.2,0.1-0.3,0.1-0.5-0.1c0,0-2.1-0.1-2.1,0.1c-0.2,0-0.3,0-0.5,0
		c0,0.2-0.4,0.2-0.5,0c-0.1,0-0.7,0-0.8,0.1c-0.8,0-1.5,0.3-2.3,0.3c0,0.1-0.4,0-0.4,0.1c-0.1,0-0.1,0.1-0.1,0.1c0,0.1-0.2,0-0.3,0
		c0-0.1-0.9,0.1-1,0.1c0,0.1-1.3,0.4-1.4,0.4c0,0-1.3,0.5-1.5,0.5c-0.1,0.2-0.7,0.1-0.9,0.3c-0.1,0.1-0.4,0.2-0.6,0.2
		c0,0.1-0.7,0.2-0.7,0.3c-0.1,0-0.8,0.2-0.8,0.4c-0.1,0.1-1.3,0.5-1.3,0.6c-0.4,0-0.7,0.6-1.1,0.6c-0.1,0.2-1.1,0.4-1.1,0.7
		c-0.2,0-0.4,0.4-0.7,0.4c-0.1,0.2-0.3,0.2-0.5,0.3c0,0.1-1,0.9-1.1,0.9c0,0.1-0.9,0.8-1,0.8c0,0.1-0.5,0.5-0.6,0.5
		c0,0.1-0.3,0.2-0.1,0.3c0.1,0.1-0.4,0.1-0.4,0.1c-0.1,0-0.9,0.7-0.9,0.8c-0.1,0-0.8,0.8-0.9,0.9c-0.4,0.2-0.9,0.9-1.1,1.3
		c-0.1,0-0.7,0.8-0.7,0.9c-0.3,0.4-0.6,0.7-0.8,1.1c0,0-0.9,1.2-0.9,1.3c-0.1,0-0.4,0.9-0.6,1c0,0.1,0,0.2,0,0.3
		c-0.1,0-0.3,0.2-0.3,0.3c-0.2,0-0.2,0.5-0.3,0.5c0,0.4-0.5,0.9-0.6,1.3c-0.3,0.2-0.4,1.1-0.6,1.4c-0.2,0.1-0.5,1.3-0.5,1.4
		c-0.2,0.1-0.3,1.2-0.4,1.2c0,0.3-0.6,1.3,0,1.3c0,0,0.6-0.3,0.6-0.3c0.1-0.2,0.3,0,0.3-0.2c0,0,0.1-0.3,0.1-0.3
		c0-0.2,0.1-0.3,0.1-0.4c0.1,0-0.1-0.3-0.1-0.3c-0.3-0.2-0.2-0.2,0.1-0.2c0,0,0.2-0.1,0.3-0.2c0.1,0,0.9-2.2,0.9-2.4
		c0.2-0.1,0-0.4,0-0.5c0.2,0,0.5-0.3,0.5-0.5c0.1,0,0.6-1.1,0.6-1.2c-0.2,0-0.5-0.1-0.2-0.1c0.1-0.1,0.3-0.3,0.3-0.1
		c0,0,0.5-0.8,0.5-0.9c0.1,0,0.7-1.1,0.7-1.2c0.3-0.2,0.4-0.9,0.7-1c0-0.1,0.9-1.3,1-1.3c0-0.1,0.7-0.9,0.8-0.9
		c0.1-0.3,0.6-0.8,0.9-0.9c0-0.1,0.5-0.5,0.5-0.5c0-0.2,0.5-0.3,0.5-0.5c0.1,0,1.1-0.9,1.1-1c0.1-0.1,0.5-0.5,0.6-0.5
		c0.1-0.2,0.5-0.3,0.6-0.5c0.4-0.2,0.9-0.7,1.3-0.9c0-0.1,0.9-0.6,1-0.7c0.1-0.2,1-0.7,1.2-0.7c0-0.1,0.5-0.3,0.6-0.4
		c0-0.1,0.6-0.3,0.7-0.4c0-0.2-0.2,0,0-0.2c0.2,0,0.2,0,0.2,0.1c0.2,0,0.8-0.4,0.8-0.4c0.2,0.1,0.6-0.2,0.8-0.3
		c0-0.1,1.1-0.5,1.2-0.5c0.1-0.2,1.3-0.3,1.3-0.5c0.3,0,0.5-0.2,0.7-0.2c0,0,0.7-0.1,0.8-0.2c0.1,0,0.5-0.2,0.5-0.2
		c0.2,0,0.3,0,0.4-0.1c0-0.3,0.5,0,0.5-0.1c0.2,0,1.9-0.3,1.9-0.3c0,0,1.5-0.1,1.6-0.2c0.2,0,0.4,0,0.6,0c0-0.1,0.4,0,0.4,0
		c0-0.2,0-0.1,0.1-0.2c0.5,0,0.1,0.1,0.1,0.2c0.3,0,3.2,0,3.2,0.1c0.5,0,4.2,0.4,4.2,0.6c0.1,0,1.5,0.3,1.5,0.4
		c0.3,0,0.5,0.2,0.8,0.2c0,0.1,0.7,0.1,0.8,0.1c0,0,0.3,0.2,0.3,0.2c0.1,0,0.3,0.2,0.4,0.2c0,0,0.6,0.2,0.6,0.2c0,0.1,0.2,0,0.2,0
		c0-0.1,0.3,0.1,0.2,0.1c0,0.1,0.3,0.2,0.3,0.2c0.1,0,0.5,0.2,0.6,0.2c0.1,0,1.3,0.5,1.3,0.6c0.1,0,1.1,0.5,1.1,0.6
		c0.4,0,0.7,0.5,1.1,0.6c0.1,0.1,1,0.8,1.2,0.8c0.2,0.4,1,0.5,1.2,0.9c0.3,0,0.7,0.7,1,0.8c0,0.2,1,0.6,1,0.9
		c0.4,0.3,0.7,0.8,1.2,1.1c0,0.2,0.5,0.3,0.5,0.4c-0.1,0,0.4,0.6,0.4,0.6c0.3,0.1,0.7,1,0.9,1c0,0.3,0.4,0.4,0.5,0.5
		c-0.1,0,0.3,0.6,0.3,0.6c0.2,0.1,0.6,1.1,0.8,1.1c0,0.1,0.3,0.5,0.4,0.6c0.2,0,0.3,0.5,0.3,0.6c0.2,0,0.5,1.1,0.7,1.2
		c0,0.2,0.4,1.1,0.6,1.2c0,0.1,0.4,0.8,0.5,0.5c0.1,0,0.3,0,0.5,0c0,0.1-0.3,0.1-0.3,0.1c-0.7,0,0,0.9,0,1.2c0.2,0,0.3,1.2,0.5,1.2
		c0,0.4,0.3,0.9,0.4,1.3c0.3,0,0.2,1.4,0.4,1.5c0.1,0.5,0.4,1.1,0.4,1.6c0.2,0.1,0.2,2.2,0.3,2.2c0,0.4,0.4,5.3,0.1,5.3
		c-0.1,0.2-0.1,2.7-0.3,2.7c0,0.7-0.3,1.2-0.3,1.8c-0.2,0.1-0.2,1-0.2,1.2c0,0-0.1,0.2-0.1,0.2c0,0.1-0.1,0.1-0.1,0.2
		c0,0,0.4,0,0.3,0.1c-0.1,0.1-0.3,0-0.3,0.1c0,0-0.1,0.2-0.1,0.2c0,0.1-0.1,0.2-0.2,0.4c-0.1,0-0.1,0.6-0.2,0.6c0,0-0.2,0.4-0.1,0.4
		c0.1,0.1,0.2,0.3-0.1,0.3c-0.1,0.2-0.3,0.5-0.3,0.7c-0.2,0-0.4,1.3-0.6,1.4c-0.1,0.1-0.2,0.8-0.4,0.8c0,0.2-0.2,0.3-0.2,0.4
		c-0.1,0-0.6,1-0.6,1.1c-0.2,0-0.5,1.2-0.7,1.2c-0.2,0.4-0.5,0.8-0.7,1.1c0,0.2-0.7,1.2-0.8,1.2c0,0.3-0.6,0.7-0.8,0.9
		c-0.1,0-0.8,0.9-0.9,1c-0.1,0-0.9,0.9-0.9,0.9c-0.2,0-0.4,0.5-0.5,0.5c-0.1,0.3-0.5,0.3-0.6,0.5c-0.4,0-0.7,0.9-1,0.9
		c0,0-0.6,0.5-0.4,0.5c0.1,0.1-0.3,0.1-0.4,0.1c0,0-0.3,0.2-0.3,0.2c-0.2,0.3-0.9,0.4-1,0.8c-0.2,0-0.5,0.4-0.7,0.5
		c0,0-0.6,0.4-0.7,0.4c-0.1,0.2-1,0.7-1.2,0.7c0,0.1-0.6,0.3-0.6,0.3c-0.3,0-0.1,0.4-0.2,0.5c0,0.1-0.4-0.3-0.4-0.1
		c-0.1,0-0.2,0.1-0.3,0.2c0,0.1-0.7,0.2-0.7,0.4c-0.2,0-1.5,0.5-1.5,0.6c-0.5,0-1,0.4-1.4,0.5c-0.1,0.2-0.7,0.1-0.7,0.2
		c-0.3,0-0.6,0.3-0.9,0.3c-0.1,0.2-1.5,0.4-1.7,0.4c0,0.2-3.8,0.5-4.1,0.5c0,0.1-3.3,0-3.3,0c-0.7-0.1-1.6-0.3-2.3-0.3
		c0-0.1-2.2-0.2-2.2-0.3c0-0.2-0.4,0.1-0.4,0.1c0,0.3-0.2,0.2-0.4,0.1c0,0-0.6-0.4-0.3-0.4c0-0.2-0.8-0.3-0.9-0.4
		c-0.2-0.3-1,0.1-1.2,0.1c0,0.1-0.2-0.1,0-0.1c0,0,0.2-0.2,0.2-0.3c-0.1-0.1-0.5-0.1-0.5-0.2c-0.4,0-0.8-0.5-1.3-0.5
		c0-0.1-1-0.5-1.1-0.5c0-0.1-0.7-0.2-0.7,0c-0.1,0-0.4,0-0.5-0.1c-0.1,0-0.3-0.2-0.1-0.2c0,0.1,0.3-0.1,0.2-0.1
		c0-0.2-0.3-0.2-0.4-0.3c-0.1,0-0.8-0.4-0.8-0.4c-0.1,0-0.6-0.3-0.6-0.3c-0.1,0-0.5-0.3-0.6-0.4c-0.2,0-0.4-0.4-0.6-0.4
		c0-0.1-0.3-0.1-0.3-0.2c-0.1,0-0.1-0.2-0.2-0.1c0,0-0.1,0.1-0.1,0.1c-0.1,0.2-0.1-0.1-0.1-0.2c0.1-0.1-0.2-0.2-0.2-0.3
		c-0.2-0.1-0.5-0.3-0.6-0.5c-0.3-0.1-1-0.7-1.2-0.9c-0.1,0-0.7-0.5-0.7-0.6c-0.2-0.1-0.4-0.4-0.6-0.6c0-0.1-0.9-0.9-1-1
		c0-0.3-0.6-0.4-0.6-0.6c-0.1,0-0.3-0.6-0.5-0.6c0,0.3-0.5-0.1-0.1-0.1c0-0.1-0.1-0.1-0.1-0.2c-0.1,0-0.4-0.5-0.4-0.6
		c-0.3-0.1-0.4-0.7-0.6-0.8c0-0.4-0.8-0.8-0.8-1.1c-0.3,0-0.5-1-0.8-1.1c0-0.1-0.4-0.8-0.5-0.8c0-0.3-0.5-0.6-0.5-0.9
		c-0.1,0-0.3-0.5-0.3-0.6c-0.2-0.1-0.7-1.2-0.7-1.4c-0.1-0.1-0.6-1.3-0.6-1.4c-0.2,0-0.3-1.2-0.4-1.3c0-0.1-0.4-1.3-0.4-1.3
		c0,0-0.4-1.8-0.4-1.8c0-0.6-0.3-1.3-0.4-1.9c-0.1-0.3-0.3-2.8-0.3-2.8c0-0.6-0.1-1.3-0.1-1.9c0-1-0.2-0.3-0.6-0.6c0,0,0,0,0,0
		c0,0,0,0,0,0c0.1,0,0.7-0.4,0.7-0.4c0-0.4,0.1-0.8,0.1-1.3c0.1,0,0.2-2.5,0.4-2.5c0-0.6,0.4-1.2,0.4-1.8c0.2,0,0-0.8-0.1-0.5
		c-0.1,0-0.3,0.3-0.4,0.1c-0.4,0-0.5,0.1-0.6,0.5c-0.2,0-0.4,1.9-0.4,2.1c-0.2,0,0,1.9-0.3,1.9c0,0.3-0.1,0.7-0.1,1
		c-0.1-0.1,0.1,0.7,0.1,0.7c0.3,0.1,0,0.2-0.1,0.3c0,0.3-0.1,0.7-0.1,1c0,0,0,0.9,0,0.9c0,0.1,0.1,0.3,0.1,0.3
		c0.1,0-0.1,0.2-0.1,0.4c0,0,0,0.9,0,1c0.1,0,0.1,2.1,0.3,2.1c0,0.3,0.2,0.6,0.2,0.9c0.1,0,0.1,1,0.2,1c0,0.6,0.5,1.4,0.5,2
		c0,0,0.4,1.2,0.4,1.3c0.2,0,0.3,1.2,0.4,1.2c0,0.2,0.5,1.4,0.6,1.4c0,0.1,0.4,1.1,0.6,1.2c0,0.1,0.5,1.2,0.7,1.2
		c0,0.2,0.4-0.1,0.5-0.1c0,0,0.2,0.1,0.1,0.1c0,0-0.1,0.1-0.1,0.1c-0.1,0-0.1,0-0.1,0.1c0,0-0.1-0.1-0.2,0.1c0,0,0.1,0.1,0.1,0.2
		c0.2,0,0.5,1.1,0.7,1.1c0.1,0.2,0.7,1.2,0.9,1.2c0.1,0.4,0.7,0.7,0.8,1.1c0.1,0,0.4,0.5,0.4,0.5c0.2,0,0.6,0.5,0.6,0.7
		c0.1,0.1,1.2,1.2,1.2,1.2c0.1,0,0.6,0.6,0.6,0.7c0.2,0.1,0.4,0.3,0.5,0.5c0,0.3,1,0.5,1,0.9c0.4,0.2,0.7,0.6,1.1,0.8
		c0.2,0.2,0.5,0.3,0.7,0.5c0,0,0.5,0.3,0.5,0.3c0,0.3,1.2,0.6,1.2,0.8c0.2,0.1,0.3,0.2,0.5,0.2c0.1,0,0.4-0.2,0.4,0
		c-0.1,0.1-0.4,0.1-0.2,0.2c0,0.1,0.9,0.6,1.1,0.6c0,0,1.2,0.7,1.3,0.7c0,0.1,2.1,1,2.3,1c0.1,0.2,0.8,0.1,0.9,0.3
		c0.1,0,0.6,0.2,0.6,0.2c0,0,0.9,0.3,0.9,0.3c0.3,0,0.6,0.2,0.9,0.2c0,0.3,1.5,0.2,1.6,0.4c0.2,0.1,0.5,0.1,0.8,0.2
		c0,0.1,1,0.1,1.1,0.1c0-0.5,0.3,0,0.4,0c0.1,0.1,1.2,0.1,1.2,0.2c0.1,0,0.9-0.1,0.9,0.1c0.2,0,0.3,0,0.5,0c0.4,0,0.7,0,1.1,0
		c0,0.1,2-0.1,2.1-0.1c0,0-0.1-0.1,0-0.1c0-0.1,0.3-0.1,0.3,0c0,0.2,0.1,0.1,0.2,0.1c0-0.2,0.2,0,0-0.3c0-0.4,0.5,0.1,0.3,0.1
		c0.1,0.1,0.2,0.1,0.4,0.1c0.1-0.2,1-0.1,1.2-0.2c0.1,0,1.3-0.2,1.3-0.2c0.1,0,0.8-0.1,0.8-0.2c0.2,0,1.7-0.4,1.7-0.5
		c0.3,0,0.5-0.2,0.8-0.2c0.3,0,0.6-0.3,0.9-0.3c0,0,2.5-1.1,2.7-1.1c0,0,1-0.5,1.1-0.5c0.2-0.2,1.3-0.4,1.3-0.7
		c0.2,0,0.7-0.3,0.8-0.5c0.2,0,0.4-0.4,0.7-0.4c0.1-0.1,0.4-0.4,0.5-0.4c0-0.2,0.8-0.3,0.1-0.3c0,0,0,0,0,0c0,0,0.7-0.4,0.9-0.3
		c0.1,0,0.3-0.3,0.5-0.3c0.1-0.1,1.3-0.9,0.7-0.9c0-0.3,0.4-0.1,0.4-0.1c0.1,0,0.2-0.1,0.3-0.1c0-0.2,0.4-0.2,0.4-0.4
		c0.4-0.3,0.8-0.7,1.1-1.1c0.1,0,0.9-0.8,0.9-0.9c0.3-0.1,0.6-0.9,0.9-0.9c0-0.1,0.8-1.1,0.9-1.1c0,0-0.2,0-0.3,0
		c0-0.1,0.6-0.4,0.7-0.5c0-0.2,0.4-0.4,0.4-0.6c0.2,0,0.6-1,0.8-1.1c0-0.1,0.6-1.1,0.7-1.1c0-0.1,0.6-1,0.6-1c0-0.3,0.5-0.7,0.5-1.1
		c0,0-0.1,0-0.1,0c0,0,0-0.1,0.1-0.1c0,0,0,0,0,0.1c0.1-0.1,0.3-0.4,0.3-0.6c0.2,0,0.2-0.7,0.3-0.7c0,0,0.3-0.6,0.3-0.6
		c0-0.3,0.3-0.5,0.3-0.8c0.2-0.1,0.2-0.5,0.2-0.7c-0.1,0,0.3-0.4,0.3-0.5c0.1,0,0.4-1.3,0.4-1.5c0.3-0.1,0.1-1.3,0.4-1.4
		c0.1-0.2,0.4-2.1,0.4-2.1c0-1,0.3-2,0.3-3.1C150,32.8,150,29.7,150,29.3z M90.6,20.8C90.7,20.8,90.7,20.8,90.6,20.8
		c0.1,0,0.1,0,0.1,0.1C90.5,21.1,90.6,20.8,90.6,20.8z M91,20.8C91,20.8,91,20.8,91,20.8C91.1,20.8,91,21.1,91,20.8z M93,16.1
		C93,16.1,93,16.1,93,16.1C93.1,16.1,93.1,16.1,93,16.1C93.1,16.1,93,16.1,93,16.1z M99.5,7.6C99.6,7.6,99.6,7.6,99.5,7.6
		C100,7.6,99.5,7.9,99.5,7.6z M100.3,7.5c0,0.1-0.3,0.1-0.3-0.1c0,0,0.7-0.3,0.7-0.3C101,7.1,100.4,7.5,100.3,7.5z M103.3,5.3
		C103.2,5.4,103.2,5.2,103.3,5.3C103.3,5.2,103.3,5.2,103.3,5.3z M104.7,4.7C104.6,4.8,104.6,4.7,104.7,4.7
		C104.7,4.7,104.7,4.7,104.7,4.7z M105.3,4.4c0.1,0,0.1,0,0.1,0C105.5,4.5,105.1,4.6,105.3,4.4z M105.6,4.4
		c-0.1-0.1,0.1-0.1,0.2-0.1C106.1,4.3,105.8,4.4,105.6,4.4z M110.9,2.2C111.2,2.2,110.8,2.4,110.9,2.2L110.9,2.2z M113.4,1.7
		C113.5,1.7,113.3,1.8,113.4,1.7L113.4,1.7z M113.8,1C113.8,1,113.8,1,113.8,1c-0.2-0.1,0-0.2-0.1-0.2c0.1,0.1,0.1,0.1,0.2,0.2
		C114,1.1,113.9,1.1,113.8,1z M115,1.1C115.1,1.1,115.1,1.1,115,1.1C115,1.2,114.9,1.2,115,1.1z M116.4,0.6
		C116.4,0.6,116.4,0.6,116.4,0.6C116.7,0.6,116.4,0.8,116.4,0.6z M116.9,0.4C116.9,0.4,116.9,0.4,116.9,0.4c0.1,0,0.1,0,0.1,0
		C117.1,0.5,116.7,0.6,116.9,0.4z M119.1,0.9c-0.3,0,0-0.1,0-0.1c0,0,0,0,0,0C119.2,0.7,119.2,0.8,119.1,0.9z M120,0.4
		C120.4,0.4,119.7,0.7,120,0.4L120,0.4z M126.8,1.5C127.3,1.5,126.6,1.7,126.8,1.5L126.8,1.5z M130.8,3c0.1,0,0.2,0,0.2,0.1
		C130.7,3.1,130.5,3.2,130.8,3z M131.1,3C131.1,3,131.1,3,131.1,3c0-0.1,0.2-0.1,0.3-0.1C131.5,3.2,131,3,131.1,3z M134.8,5.3
		C135.3,5.3,134.5,5.6,134.8,5.3L134.8,5.3z M135.1,5.3c-0.1-0.1,0.2-0.1,0.2-0.1C135.6,5.2,135.2,5.3,135.1,5.3z M142.5,12.1
		c0-0.2,0.3,0,0.4-0.1c0.1,0,0.3,0,0.4,0.1C143.3,12.2,142.6,12.2,142.5,12.1z M144,14.1C144.3,14.1,143.8,14.4,144,14.1L144,14.1z
		 M144.6,15.3c0-0.1,0.2-0.1,0.2-0.1c0,0,0,0,0,0C145,15.2,144.8,15.4,144.6,15.3z M147.1,20C146.9,20,147,20.1,147.1,20
		C147,20,147,20,147.1,20C147.1,20,147.2,20,147.1,20z M147.7,20.1C147.8,20.1,147.8,20.1,147.7,20.1
		C147.7,20.2,147.5,20.2,147.7,20.1z M88.9,34.9C89.2,34.9,88.8,35.1,88.9,34.9L88.9,34.9z M89.2,32.5
		C89.2,32.5,89.2,32.5,89.2,32.5c0,0.1-0.2,0.1-0.3,0C88.9,32.4,89.2,32.4,89.2,32.5C89.3,32.5,89.2,32.5,89.2,32.5z M96.2,50.8
		c0-0.1,0.1,0,0.2-0.1C96.7,50.7,96.5,50.9,96.2,50.8z M103,56.3c-0.2,0,0-0.1,0-0.1c0,0,0,0,0,0C103.2,56.2,103,56.3,103,56.3z
		 M104.1,57.1c-0.1-0.1,0.2-0.1,0.3-0.1C104.4,57,104.3,57.2,104.1,57.1z M111,60.2C111.3,60.2,110.6,60.6,111,60.2L111,60.2z
		 M111.3,60.1c-0.1,0,0.3-0.2,0.3-0.1C111.9,60,111.3,60.4,111.3,60.1z M113,60.4C113,60.4,113,60.4,113,60.4
		C113.2,60.4,113,60.6,113,60.4z M113.4,60.4C113.4,60.4,113.4,60.4,113.4,60.4c0.1,0,0.1,0,0.1,0C113.6,60.5,113.4,60.5,113.4,60.4
		z M113.9,60.5C113.9,60.5,113.9,60.4,113.9,60.5C114,60.4,114,60.5,113.9,60.5z M115.6,61.1C115.7,61.1,115.7,61.1,115.6,61.1
		C115.7,61.3,115.5,61.2,115.6,61.1z M122.3,61.2c-0.1-0.1,0.1-0.1,0.1-0.1c0.1,0,0.1,0,0.2,0C122.6,61.2,122.3,61.2,122.3,61.2z
		 M123,61c-0.5,0-0.1,0-0.1-0.1C123.1,60.9,123.1,61,123,61z M133.2,58C133.2,58,133.2,58,133.2,58C133.4,58,133.2,58.4,133.2,58z
		 M135.4,56.5C135.3,56.4,135.3,56.4,135.4,56.5C135.5,56.4,135.5,56.5,135.4,56.5z M142.6,49.6C142.9,49.6,142.6,49.9,142.6,49.6
		L142.6,49.6z M142.6,50.3c-0.1,0,0.1-0.1,0.1-0.1c0,0,0.1,0,0.1,0C142.8,50.3,142.6,50.4,142.6,50.3z M143.2,49.8
		c-0.1,0-0.1,0-0.1-0.1C143.2,49.6,143.2,49.7,143.2,49.8z M144.8,47.8C144.6,47.8,144.7,47.8,144.8,47.8
		C144.7,47.8,144.7,47.8,144.8,47.8C144.8,47.8,144.8,47.8,144.8,47.8C144.8,47.8,144.8,47.8,144.8,47.8z M146,45
		c0,0.1-0.2,0.1-0.3,0C145.7,44.8,146.2,44.9,146,45C146,45,146,45,146,45z M146.5,44.8c-0.1,0-0.2,0.1-0.3,0.1c0-0.2,0.1,0,0.1-0.1
		C146.4,44.7,146.6,44.7,146.5,44.8z M147.7,41C148.1,41,147.6,41.3,147.7,41L147.7,41z M148.3,38.9
		C148.3,38.9,148.3,38.9,148.3,38.9C148.6,38.9,148.3,39.2,148.3,38.9z M148.9,27.7C148.9,27.7,148.9,27.7,148.9,27.7
		C149,27.7,148.9,27.9,148.9,27.7z M149.3,29.7c0-0.1,0.1-0.1,0.1-0.1l0,0C149.6,29.6,149.5,29.8,149.3,29.7z M149.7,29.4
		C149.8,29.4,149.8,29.4,149.7,29.4C149.9,29.4,149.7,29.7,149.7,29.4z"/>
	<path class="st1" d="M148.3,38.9C148.3,38.9,148.3,38.9,148.3,38.9C148.3,38.9,148.3,38.9,148.3,38.9z"/>
	<path class="st1" d="M105.3,4.4C105.3,4.5,105.4,4.4,105.3,4.4L105.3,4.4z"/>
	<path class="st1" d="M105.8,4.3C105.8,4.3,105.8,4.3,105.8,4.3L105.8,4.3z"/>
	<path class="st1" d="M144,14.1C144,14.1,144,14.1,144,14.1L144,14.1z"/>
	<path class="st1" d="M143.1,49.6C143.1,49.7,143.1,49.6,143.1,49.6L143.1,49.6z"/>
	<path class="st1" d="M142.7,50.2C142.7,50.2,142.7,50.2,142.7,50.2L142.7,50.2z"/>
	<path class="st1" d="M115,1.1C115,1.1,115,1.1,115,1.1L115,1.1z"/>
	<path class="st1" d="M116.9,0.4C116.9,0.4,116.9,0.4,116.9,0.4C116.9,0.4,117,0.4,116.9,0.4z"/>
	<path class="st1" d="M144.7,47.8C144.7,47.8,144.7,47.8,144.7,47.8C144.7,47.8,144.7,47.8,144.7,47.8z"/>
	<path class="st1" d="M88.9,34.9C88.9,34.9,89,34.9,88.9,34.9L88.9,34.9z"/>
	<path class="st1" d="M147.7,20.1C147.7,20.1,147.7,20.1,147.7,20.1L147.7,20.1z"/>
	<path class="st1" d="M134.8,5.3C134.8,5.3,134.8,5.3,134.8,5.3L134.8,5.3z"/>
</g>
</svg>
