<?xml version="1.0" encoding="UTF-8"?> <!-- Generator: Adobe Illustrator 23.0.6, SVG Export Plug-In . SVG Version: 6.00 Build 0) --> <svg xmlns="http://www.w3.org/2000/svg" xmlns:xlink="http://www.w3.org/1999/xlink" id="Ebene_1" x="0px" y="0px" viewBox="0 0 260 41.4" style="enable-background:new 0 0 260 41.4;" xml:space="preserve"> <g> <path d="M0,36.4V5.5h7.4v3.5C7.7,7.7,8.2,6.7,9,6.1c0.8-0.6,1.8-1,3-1c1.9,0,3.4,0.6,4.5,1.8c1.1,1.2,1.6,3.1,1.6,5.6v23.8h-7.3 v-23c0-0.6-0.1-1.2-0.4-1.7c-0.3-0.5-0.7-0.7-1.2-0.7c-0.4,0-0.7,0.1-0.9,0.3c-0.2,0.2-0.4,0.4-0.5,0.7c-0.1,0.2-0.2,0.6-0.3,1 c-0.1,0.4-0.1,0.7-0.1,1c0,0.2,0,0.5,0,0.9v21.7L0,36.4L0,36.4z"></path> <path d="M30.4,36.7c-1.1,0-2.1-0.1-3-0.3s-1.6-0.5-2.2-0.9c-0.6-0.4-1.1-0.8-1.6-1.4c-0.4-0.6-0.8-1.1-1.1-1.7 c-0.3-0.6-0.5-1.2-0.6-2s-0.3-1.4-0.3-2.1s-0.1-1.3-0.1-2.1V13.9c0-2.8,0.8-5,2.4-6.5c1.6-1.5,3.9-2.2,6.8-2.2 c5.9,0,8.9,2.9,8.9,8.8v2.2c0,2.8,0,4.7-0.1,5.7H28.8v4.3c0,0.1,0,0.4,0,0.7c0,0.3,0,0.5,0,0.7c0,0.5,0,0.9,0.1,1.3 s0.1,0.7,0.2,1.1c0.1,0.4,0.3,0.6,0.5,0.8s0.6,0.3,1,0.3c0.4,0,0.7-0.1,1-0.4s0.4-0.7,0.5-1.2s0.2-1,0.2-1.4c0-0.4,0-0.9,0-1.5 c0-1.2,0-1.9,0-2h7.3v1.8c0,1.7-0.1,3.2-0.4,4.4s-0.7,2.3-1.4,3.3S36.2,35.5,35,36C33.8,36.5,32.2,36.7,30.4,36.7z M30.7,10.7 c-0.4,0-0.7,0.1-1,0.3c-0.3,0.2-0.4,0.5-0.6,0.9c-0.1,0.4-0.2,0.8-0.2,1.2c0,0.4-0.1,0.9-0.1,1.5c0,0.3,0,0.7,0,1.3 c0,0.6,0,1,0,1.3h3.4V14C32.3,11.8,31.8,10.7,30.7,10.7z"></path> <path d="M53.8,5.5h7.3v30.8h-7.4v-3.3c-0.6,1.5-1.2,2.4-2,2.9c-0.8,0.5-1.7,0.7-2.8,0.7c-1,0-1.9-0.1-2.7-0.5s-1.3-0.7-1.8-1.2 c-0.4-0.5-0.8-1.1-1-1.9s-0.4-1.5-0.5-2.2S43,29.5,43,28.5v-23h7.4V27c0,1.6,0.1,2.6,0.3,3.1c0.2,0.5,0.6,0.8,1.4,0.8 c0.3,0,0.5,0,0.7-0.1c0.2-0.1,0.4-0.3,0.5-0.5c0.1-0.2,0.2-0.4,0.3-0.6c0.1-0.2,0.1-0.5,0.1-0.8c0-0.3,0-0.6,0.1-0.8 c0-0.2,0-0.5,0-0.8c0-0.1,0-0.2,0-0.2L53.8,5.5z"></path> <path d="M64.6,36.4V5.5h7.4v3.5c0.3-1.3,0.9-2.3,1.7-2.9s1.8-1,3-1c1.9,0,3.4,0.6,4.5,1.8c1.1,1.2,1.6,3.1,1.6,5.6v23.8h-7.3v-23 c0-0.6-0.1-1.2-0.4-1.7c-0.3-0.5-0.7-0.7-1.2-0.7c-0.4,0-0.7,0.1-0.9,0.3c-0.2,0.2-0.4,0.4-0.5,0.7c-0.1,0.2-0.2,0.6-0.3,1 c-0.1,0.4-0.1,0.7-0.1,1c0,0.2,0,0.5,0,0.9v21.7L64.6,36.4L64.6,36.4z"></path> <path d="M93.5,41.4H86V5.5h7.5v1.7c1.1-1.4,2.6-2,4.4-2c1,0,1.9,0.2,2.6,0.5c0.8,0.3,1.4,0.7,1.9,1.3c0.5,0.5,0.9,1.2,1.1,2 c0.3,0.8,0.5,1.6,0.6,2.5c0.1,0.9,0.2,1.8,0.2,2.9v11.3c0,0,0,0.1,0,0.1c0,1,0,1.7,0,2.2c0,0.5-0.1,1.2-0.1,2.1 c-0.1,0.9-0.2,1.6-0.4,2.1c-0.2,0.5-0.4,1.1-0.7,1.8s-0.7,1.2-1.2,1.5c-0.5,0.3-1.1,0.6-1.8,0.9c-0.7,0.2-1.5,0.4-2.4,0.4 c-1.9,0-3.3-0.5-4.2-1.6V41.4z M93.5,14.2v13.5c0,1.1,0.1,1.9,0.4,2.5c0.3,0.5,0.7,0.8,1.4,0.8c0.6,0,1-0.3,1.2-0.8 c0.2-0.6,0.4-1.5,0.4-2.8V14.3c0-0.3,0-0.5,0-0.7c0-0.1,0-0.4,0-0.7c0-0.3-0.1-0.6-0.1-0.7c-0.1-0.2-0.2-0.4-0.3-0.6 c-0.1-0.2-0.3-0.4-0.5-0.5C95.8,11,95.5,11,95.2,11C94.1,11,93.5,12,93.5,14.2z"></path> <path d="M118.1,5.5h7.3v30.8h-7.4v-3.3c-0.6,1.5-1.2,2.4-2,2.9c-0.8,0.5-1.7,0.7-2.8,0.7c-1,0-1.9-0.1-2.7-0.5s-1.3-0.7-1.8-1.2 c-0.4-0.5-0.8-1.1-1-1.9s-0.4-1.5-0.5-2.2c-0.1-0.7-0.1-1.6-0.1-2.5v-23h7.4V27c0,1.6,0.1,2.6,0.3,3.1c0.2,0.5,0.6,0.8,1.4,0.8 c0.3,0,0.5,0,0.7-0.1c0.2-0.1,0.4-0.3,0.5-0.5c0.1-0.2,0.2-0.4,0.3-0.6c0.1-0.2,0.1-0.5,0.1-0.8c0-0.3,0-0.6,0-0.8 c0-0.2,0-0.5,0-0.8c0-0.1,0-0.2,0-0.2L118.1,5.5z"></path> <path d="M128.9,36.4V5.5h7.4v3.5c0.3-1.3,0.9-2.3,1.7-2.9s1.8-1,3-1c1.9,0,3.4,0.6,4.5,1.8c1.1,1.2,1.6,3.1,1.6,5.6v23.8h-7.3v-23 c0-0.6-0.1-1.2-0.4-1.7c-0.3-0.5-0.7-0.7-1.2-0.7c-0.4,0-0.7,0.1-0.9,0.3c-0.2,0.2-0.4,0.4-0.5,0.7c-0.1,0.2-0.2,0.6-0.3,1 s-0.1,0.7-0.1,1c0,0.2,0,0.5,0,0.9v21.7L128.9,36.4L128.9,36.4z"></path> <path d="M150.4,36.4V0h7.3v16.2l3.5-10.6h7.6l-4.6,13.4l5.9,17.4h-7.8l-4.6-14.5v14.5L150.4,36.4L150.4,36.4z"></path> <path d="M171.2,0.2h7.1v6.6h1.3v5.6h-1.3v17.4c0,0.3,0,0.5,0,0.6c0,0.1,0,0.3,0.1,0.5c0,0.2,0.1,0.3,0.2,0.4s0.3,0.1,0.4,0.1 s0.4,0,0.5-0.1v5c-1,0.4-2.4,0.5-3.9,0.5c-0.8,0-1.5-0.1-2-0.3c-0.6-0.2-1-0.5-1.3-0.8c-0.3-0.3-0.6-0.7-0.8-1.2 c-0.2-0.5-0.3-0.9-0.4-1.4c0-0.4-0.1-0.9-0.1-1.5V12.3h-1.1V6.7h1.1L171.2,0.2L171.2,0.2z"></path> <path d="M181.9,36.4v-5.6l8.5-19h-7.7V5.5h15.8v6.3l-8.3,18.4h7.8v6.2L181.9,36.4L181.9,36.4z"></path> <path d="M218.5,5.5l1.7,18.9l1.9-18.9h7.3L225,36.4h-8.4l-1.9-18.9l-1.8,18.9h-8.4l-4.4-30.8h7.3l1.8,18.9l1.8-18.9H218.5z"></path> <path d="M240.1,36.7c-1.1,0-2.1-0.1-3-0.3s-1.6-0.5-2.2-0.9c-0.6-0.4-1.1-0.8-1.6-1.4c-0.5-0.6-0.8-1.1-1.1-1.7 c-0.3-0.6-0.5-1.2-0.6-2s-0.3-1.4-0.3-2.1s-0.1-1.3-0.1-2.1V13.9c0-2.8,0.8-5,2.4-6.5c1.6-1.5,3.9-2.2,6.8-2.2 c5.9,0,8.9,2.9,8.9,8.8v2.2c0,2.8,0,4.7-0.1,5.7h-10.7v4.3c0,0.1,0,0.4,0,0.7c0,0.3,0,0.5,0,0.7c0,0.5,0,0.9,0.1,1.3 s0.1,0.7,0.2,1.1c0.1,0.4,0.3,0.6,0.5,0.8s0.6,0.3,1,0.3c0.4,0,0.7-0.1,1-0.4s0.4-0.7,0.5-1.2c0.1-0.5,0.2-1,0.2-1.4s0-0.9,0-1.5 c0-1.2,0-1.9,0-2h7.3v1.8c0,1.7-0.1,3.2-0.4,4.4s-0.7,2.3-1.4,3.3c-0.7,1-1.6,1.7-2.9,2.2C243.4,36.5,241.9,36.7,240.1,36.7z M240.3,10.7c-0.4,0-0.7,0.1-1,0.3c-0.3,0.2-0.5,0.5-0.6,0.9c-0.1,0.4-0.2,0.8-0.2,1.2c0,0.4-0.1,0.9-0.1,1.5c0,0.3,0,0.7,0,1.3 c0,0.6,0,1,0,1.3h3.5V14C242,11.8,241.4,10.7,240.3,10.7z"></path> <path d="M252.7,3.6V0h7.4v3.6H252.7z M252.7,36.4V5.5h7.4v30.9H252.7z"></path> </g> </svg> 