<svg id="toki-logo" data-name="Toki Design Logo" xmlns="http://www.w3.org/2000/svg" xmlns:xlink="http://www.w3.org/1999/xlink" viewBox="0 0 64.88 92.94"><defs><clipPath id="clip-path" transform="translate(-0.49 -0.7)"><rect x="0.49" y="0.7" width="64.88" height="92.94" style="fill:none"/></clipPath></defs><style>#name { display: none; } @media screen and (min-width: 65px) { #name { display: block; } }</style><title>TOKI Design</title><g style="clip-path:url(#clip-path)"><path id="name" d="M53.86,93.5h1.46V84.95H53.86Zm-8.6,0h2L42.7,89l3.92-4H44.79l-3.71,3.79V84.95H39.61V93.5h1.46V89.22ZM25.93,86.93A2.73,2.73,0,0,1,28,86.12a2.73,2.73,0,0,1,2.09.81,3.83,3.83,0,0,1,0,4.58,2.73,2.73,0,0,1-2.09.81,2.73,2.73,0,0,1-2.09-.81,3.83,3.83,0,0,1,0-4.58m-2,4a4.05,4.05,0,0,0,.85,1.4,3.94,3.94,0,0,0,1.36.94,5.12,5.12,0,0,0,3.68,0,3.94,3.94,0,0,0,1.36-.94,4,4,0,0,0,.85-1.4,5.33,5.33,0,0,0,0-3.47,4,4,0,0,0-.85-1.4,3.94,3.94,0,0,0-1.36-.94,5.12,5.12,0,0,0-3.68,0,3.94,3.94,0,0,0-1.36.94,4.05,4.05,0,0,0-.85,1.4A5.33,5.33,0,0,0,24,91M13.11,93.5h1.46V86.24h2.9V84.95H10.21v1.29h2.9Z" transform="translate(-0.49 -0.7)" style="fill:#d1bf69"/><path d="M41.7,22.4l8.72,5.06L48.47,10.79,33,17.34Zm8.72,15.18V47.69L64,37.65,50.51,27.53l-.1,0ZM41.7,52.75,33,57.81l15.5,6.7,1.95-16.78,0,0Zm-17.47,0-8.69-5,0,0,1.95,16.78L33,57.81Zm-8.8-25.22L2,37.65l13.55,10V27.57Zm2-16.74L15.51,27.46l8.72-5.06L33,17.34ZM2,37.65,15.43,27.53,2,19.74Zm0,17.9,13.55-7.83v0L2,37.65Zm15.5,9L15.51,47.73,2,55.55Zm15.52,9V57.81l-15.52,6.7Zm15.5-9L33,57.81V73.46Zm15.5-9L50.42,47.73,48.47,64.51Zm0-17.9-13.55,10v0L64,55.55Zm0-17.91L50.51,27.53,64,37.65Zm-15.5-9,1.95,16.66.1.08L64,19.74ZM33,1.84v15.5l15.5-6.55Zm-15.52,9L33,17.34V1.84ZM15.51,27.46l1.95-16.66L2,19.74l13.48,7.79Z" transform="translate(-0.49 -0.7)" style="fill:none;stroke:#d1bf69;stroke-miterlimit:10;stroke-width:0.899999976158142px"/><path d="M63.89,21.35a1.48,1.48,0,1,0-1.47-1.47,1.47,1.47,0,0,0,1.47,1.47" transform="translate(-0.49 -0.7)" style="fill:#d1bf69"/><path d="M63.89,39.13a1.48,1.48,0,1,0-1.47-1.47,1.47,1.47,0,0,0,1.47,1.47" transform="translate(-0.49 -0.7)" style="fill:#d1bf69"/><path d="M63.89,57a1.48,1.48,0,1,0-1.47-1.47A1.47,1.47,0,0,0,63.89,57" transform="translate(-0.49 -0.7)" style="fill:#d1bf69"/><path d="M2,21.35A1.48,1.48,0,1,0,.49,19.88,1.47,1.47,0,0,0,2,21.35" transform="translate(-0.49 -0.7)" style="fill:#d1bf69"/><path d="M33,3.65a1.48,1.48,0,1,0-1.47-1.47A1.47,1.47,0,0,0,33,3.65" transform="translate(-0.49 -0.7)" style="fill:#d1bf69"/><path d="M33,18.72a1.48,1.48,0,1,0-1.47-1.47A1.47,1.47,0,0,0,33,18.72" transform="translate(-0.49 -0.7)" style="fill:#d1bf69"/><path d="M48.37,12.26a1.48,1.48,0,1,0-1.47-1.47,1.47,1.47,0,0,0,1.47,1.47" transform="translate(-0.49 -0.7)" style="fill:#d1bf69"/><path d="M17.72,12.26a1.48,1.48,0,1,0-1.47-1.47,1.47,1.47,0,0,0,1.47,1.47" transform="translate(-0.49 -0.7)" style="fill:#d1bf69"/><path d="M33,74.67a1.48,1.48,0,1,0-1.47-1.47A1.47,1.47,0,0,0,33,74.67" transform="translate(-0.49 -0.7)" style="fill:#d1bf69"/><path d="M48.37,66.13a1.48,1.48,0,1,0-1.47-1.47,1.47,1.47,0,0,0,1.47,1.47" transform="translate(-0.49 -0.7)" style="fill:#d1bf69"/><path d="M17.72,66.13a1.48,1.48,0,1,0-1.47-1.47,1.47,1.47,0,0,0,1.47,1.47" transform="translate(-0.49 -0.7)" style="fill:#d1bf69"/><path d="M2,39.13A1.48,1.48,0,1,0,.49,37.65,1.47,1.47,0,0,0,2,39.13" transform="translate(-0.49 -0.7)" style="fill:#d1bf69"/><path d="M2,57A1.48,1.48,0,1,0,.49,55.56,1.47,1.47,0,0,0,2,57" transform="translate(-0.49 -0.7)" style="fill:#d1bf69"/></g><polygon points="35.73 30.76 35.73 30.76 45.3 30.76 45.3 24.36 19.66 24.36 19.66 30.76 29.23 30.76 29.23 54.65 32.48 57.15 35.73 54.65 35.73 30.76" style="fill:#d1bf69"/><polygon points="35.73 30.76 35.73 30.76 45.3 30.76 45.3 24.36 19.66 24.36 19.66 30.76 29.23 30.76 29.23 54.65 32.48 57.15 35.73 54.65 35.73 30.76" style="fill:none;stroke:#d1bf69;stroke-miterlimit:10;stroke-width:0.558000028133392px"/><g style="clip-path:url(#clip-path)"><path d="M15.57,28.78a1.48,1.48,0,1,0-1.47-1.47,1.47,1.47,0,0,0,1.47,1.47" transform="translate(-0.49 -0.7)" style="fill:#d1bf69"/><path d="M15.57,49.12a1.48,1.48,0,1,0-1.47-1.47,1.47,1.47,0,0,0,1.47,1.47" transform="translate(-0.49 -0.7)" style="fill:#d1bf69"/><path d="M50.56,28.78a1.48,1.48,0,1,0-1.47-1.47,1.47,1.47,0,0,0,1.47,1.47" transform="translate(-0.49 -0.7)" style="fill:#d1bf69"/><path d="M50.56,49.12a1.48,1.48,0,1,0-1.47-1.47,1.47,1.47,0,0,0,1.47,1.47" transform="translate(-0.49 -0.7)" style="fill:#d1bf69"/></g></svg>
