<?xml version="1.0" encoding="utf-8"?>
<!-- Generator: Adobe Illustrator 24.0.3, SVG Export Plug-In . SVG Version: 6.00 Build 0)  -->
<svg version="1.1" id="Ebene_1" xmlns="http://www.w3.org/2000/svg" xmlns:xlink="http://www.w3.org/1999/xlink" x="0px" y="0px"
	 viewBox="0 0 222.2 41.3" style="enable-background:new 0 0 222.2 41.3;" xml:space="preserve">
<style type="text/css">
	.st0{clip-path:url(#SVGID_2_);}
</style>
<g>
	<defs>
		<rect id="SVGID_1_" x="3" y="0.6" width="216.6" height="40.2"/>
	</defs>
	<clipPath id="SVGID_2_">
		<use xlink:href="#SVGID_1_"  style="overflow:visible;"/>
	</clipPath>
	<path class="st0" d="M185.4,31.3h5.9V18.4c0-3.2,2-5.4,4.9-5.4c2.6,0,3.8,1.6,3.8,5.2v13.1h6.1V16.6c0-2.7-0.2-3.8-1-5.2
		c-1.3-2.2-3.8-3.5-6.8-3.5c-3.3,0-5.4,1.2-7,3.8l-0.1-3.2h-5.7V31.3z M171.6,13.2c3.2,0,5.3,2.6,5.3,6.6c0,4-2.2,6.6-5.5,6.6
		c-2.8,0-4.4-2.5-4.4-7C167,15.6,168.9,13.2,171.6,13.2 M182.6,8.6h-5.7l-0.1,2.9c-1.9-2.5-3.7-3.5-6.7-3.5c-2.3,0-4.8,1-6.4,2.7
		c-1.8,1.9-2.9,5.2-2.9,8.8c0,4.6,1.1,7.7,3.3,9.8c1.6,1.5,3.9,2.4,6,2.4c2.8,0,4.9-1,6.6-3.3v2.1c0,4.1-1.5,5.8-5,5.8
		c-2.3,0-3.7-0.8-4.1-2.3h-6.5c0.1,2.1,0.7,3.3,2.3,4.6c1.7,1.3,5,2.3,8.1,2.3c3.4,0,6.9-1.1,8.7-2.8c1.7-1.6,2.4-3.8,2.4-8.1V8.6z
		 M152.5,5.8h5.9V0.7h-5.9V5.8z M152.5,31.3h5.9V8.6h-5.9V31.3z M149.8,15.6c-0.2-2.3-0.6-3.4-1.4-4.5c-1.5-2.1-4.6-3.2-8.4-3.2
		c-3.2,0-6.2,1-7.9,2.7c-1.2,1.2-1.9,3.1-1.9,5c0,3.7,1.8,5.2,8.2,6.6l0.7,0.1l0.8,0.2l0.7,0.1c0.7,0.2,1.6,0.5,2.1,0.7
		c1,0.5,1.5,1.1,1.5,1.9c0,1.4-1.6,2.4-3.8,2.4c-1.7,0-3.3-0.5-3.9-1.2c-0.6-0.6-0.8-1.2-1-2.3h-6.1c0.1,2.1,0.4,3.2,1.2,4.4
		c1.7,2.4,5,3.7,9.8,3.7c6.1,0,9.8-2.9,9.8-7.7c0-3.7-2-5.3-8.3-6.7l-0.7-0.2l-0.8-0.1l-0.7-0.2c-0.7-0.2-1.6-0.5-2.1-0.7
		c-1-0.5-1.4-1.1-1.4-1.9c0-1.2,1.5-2.2,3.5-2.2c2.6,0,4,1.1,4.2,3.2H149.8z M112.7,17.7c0.5-3,2.1-4.8,4.6-4.8
		c2.5,0,4.2,1.7,4.6,4.8H112.7z M121.7,24.8c-0.7,1.8-2,2.6-4.1,2.6c-2.8,0-4.5-1.9-5-5.5h15.5v-1.5c0.1-7.9-3.8-12.4-10.7-12.4
		c-3.1,0-5.5,1-7.5,2.9c-2.4,2.3-3.4,5.2-3.4,9.6c0,3.8,1.1,7.1,3.2,9c1.9,1.8,5,2.8,8.3,2.8c5.2,0,8.4-2.5,9.9-7.5H121.7z
		 M93.2,13.1c3.2,0,5.3,2.7,5.3,6.8c0,4.4-2,7-5.3,7c-2.9,0-4.8-2.6-4.8-6.7C88.4,15.7,90.1,13.1,93.2,13.1 M104.4,31.3V0.7h-6v10.6
		c-1.8-2.3-3.9-3.4-6.8-3.4c-2.2,0-4.5,0.9-6.1,2.4c-2.3,2.1-3.4,5.3-3.4,9.9c0,3.8,1.1,7.1,3,9.1c1.7,1.7,4.2,2.8,6.6,2.8
		c3.1,0,5-1.1,6.8-3.7l0.1,2.9H104.4z M65.7,5.8h5.9V0.7h-5.9V5.8z M65.7,31.3h5.9V8.6h-5.9V31.3z M42.7,31.3h5.9v-7.1l2.5-2.7
		l5.4,9.8h7.4l-8.3-13.9l8.1-8.8H56l-7.4,8.6V0.7h-5.9V31.3z M28.7,12.8c3.5,0,5.4,2.6,5.4,7.2c0,4.7-1.9,7.2-5.4,7.2
		c-3.6,0-5.4-2.6-5.4-7.5C23.3,15.4,25.3,12.8,28.7,12.8 M28.7,7.7c-7.3,0-11.7,4.6-11.7,12.3c0,7.6,4.4,12.2,11.7,12.2
		c7.3,0,11.7-4.6,11.7-12.2C40.4,12.4,36,7.7,28.7,7.7 M3,12.9H6v13.5c0,3.3,1.9,5.2,5.2,5.2h4.6V27l-1,0c-0.9,0-1.7-0.1-2.1-0.3
		c-0.5-0.2-0.6-0.8-0.6-2.3V12.9h3.7V8.6h-3.8V2.2H6v6.4H3V12.9z"/>
	<path class="st0" d="M213,6.3V4.9h0.9c0.4,0,0.6,0.3,0.6,0.7c0,0.6-0.3,0.7-0.5,0.7H213z M216.2,9.4c-0.3-0.6-1-1.5-1.5-2.2
		c0.7-0.1,1.2-0.7,1.2-1.6c0-1.1-0.8-1.7-1.8-1.7h-2.3v5.5h1.2V7.3h0.3c0.1,0,0.2,0.1,0.4,0.4c0.3,0.5,0.7,1.1,1.1,1.7H216.2z
		 M213.7,11.2c-2.7,0-4.5-1.8-4.5-4.6c0-3.4,2.4-4.7,4.5-4.7c2.1,0,4.5,1.3,4.5,4.7C218.2,9.4,216.4,11.2,213.7,11.2L213.7,11.2z
		 M213.7,12.6c3.5,0,5.8-2.3,5.8-5.9c0-4.4-3.1-6-5.8-6s-5.8,1.7-5.8,6C207.9,10.2,210.2,12.6,213.7,12.6L213.7,12.6z"/>
	<path class="st0" d="M185.4,31.3h5.9V18.4c0-3.2,2-5.4,4.9-5.4c2.6,0,3.8,1.6,3.8,5.2v13.1h6.1V16.6c0-2.7-0.2-3.8-1-5.2
		c-1.3-2.2-3.8-3.5-6.8-3.5c-3.3,0-5.4,1.2-7,3.8l-0.1-3.2h-5.7V31.3z M171.6,13.2c3.2,0,5.3,2.6,5.3,6.6c0,4-2.2,6.6-5.5,6.6
		c-2.8,0-4.4-2.5-4.4-7C167,15.6,168.9,13.2,171.6,13.2 M182.6,8.6h-5.7l-0.1,2.9c-1.9-2.5-3.7-3.5-6.7-3.5c-2.3,0-4.8,1-6.4,2.7
		c-1.8,1.9-2.9,5.2-2.9,8.8c0,4.6,1.1,7.7,3.3,9.8c1.6,1.5,3.9,2.4,6,2.4c2.8,0,4.9-1,6.6-3.3v2.1c0,4.1-1.5,5.8-5,5.8
		c-2.3,0-3.7-0.8-4.1-2.3h-6.5c0.1,2.1,0.7,3.3,2.3,4.6c1.7,1.3,5,2.3,8.1,2.3c3.4,0,6.9-1.1,8.7-2.8c1.7-1.6,2.4-3.8,2.4-8.1V8.6z
		 M152.5,5.8h5.9V0.7h-5.9V5.8z M152.5,31.3h5.9V8.6h-5.9V31.3z M149.8,15.6c-0.2-2.3-0.6-3.4-1.4-4.5c-1.5-2.1-4.6-3.2-8.4-3.2
		c-3.2,0-6.2,1-7.9,2.7c-1.2,1.2-1.9,3.1-1.9,5c0,3.7,1.8,5.2,8.2,6.6l0.7,0.1l0.8,0.2l0.7,0.1c0.7,0.2,1.6,0.5,2.1,0.7
		c1,0.5,1.5,1.1,1.5,1.9c0,1.4-1.6,2.4-3.8,2.4c-1.7,0-3.3-0.5-3.9-1.2c-0.6-0.6-0.8-1.2-1-2.3h-6.1c0.1,2.1,0.4,3.2,1.2,4.4
		c1.7,2.4,5,3.7,9.8,3.7c6.1,0,9.8-2.9,9.8-7.7c0-3.7-2-5.3-8.3-6.7l-0.7-0.2l-0.8-0.1l-0.7-0.2c-0.7-0.2-1.6-0.5-2.1-0.7
		c-1-0.5-1.4-1.1-1.4-1.9c0-1.2,1.5-2.2,3.5-2.2c2.6,0,4,1.1,4.2,3.2H149.8z M112.7,17.7c0.5-3,2.1-4.8,4.6-4.8
		c2.5,0,4.2,1.7,4.6,4.8H112.7z M121.7,24.8c-0.7,1.8-2,2.6-4.1,2.6c-2.8,0-4.5-1.9-5-5.5h15.5v-1.5c0.1-7.9-3.8-12.4-10.7-12.4
		c-3.1,0-5.5,1-7.5,2.9c-2.4,2.3-3.4,5.2-3.4,9.6c0,3.8,1.1,7.1,3.2,9c1.9,1.8,5,2.8,8.3,2.8c5.2,0,8.4-2.5,9.9-7.5H121.7z
		 M93.2,13.1c3.2,0,5.3,2.7,5.3,6.8c0,4.4-2,7-5.3,7c-2.9,0-4.8-2.6-4.8-6.7C88.4,15.7,90.1,13.1,93.2,13.1 M104.4,31.3V0.7h-6v10.6
		c-1.8-2.3-3.9-3.4-6.8-3.4c-2.2,0-4.5,0.9-6.1,2.4c-2.3,2.1-3.4,5.3-3.4,9.9c0,3.8,1.1,7.1,3,9.1c1.7,1.7,4.2,2.8,6.6,2.8
		c3.1,0,5-1.1,6.8-3.7l0.1,2.9H104.4z M65.7,5.8h5.9V0.7h-5.9V5.8z M65.7,31.3h5.9V8.6h-5.9V31.3z M42.7,31.3h5.9v-7.1l2.5-2.7
		l5.4,9.8h7.4l-8.3-13.9l8.1-8.8H56l-7.4,8.6V0.7h-5.9V31.3z M28.7,12.8c3.5,0,5.4,2.6,5.4,7.2c0,4.7-1.9,7.2-5.4,7.2
		c-3.6,0-5.4-2.6-5.4-7.5C23.3,15.4,25.3,12.8,28.7,12.8 M28.7,7.7c-7.3,0-11.7,4.6-11.7,12.3c0,7.6,4.4,12.2,11.7,12.2
		c7.3,0,11.7-4.6,11.7-12.2C40.4,12.4,36,7.7,28.7,7.7 M3,12.9H6v13.5c0,3.3,1.9,5.2,5.2,5.2h4.6V27l-1,0c-0.9,0-1.7-0.1-2.1-0.3
		c-0.5-0.2-0.6-0.8-0.6-2.3V12.9h3.7V8.6h-3.8V2.2H6v6.4H3V12.9z"/>
	<path class="st0" d="M213,6.3V4.9h0.9c0.4,0,0.6,0.3,0.6,0.7c0,0.6-0.3,0.7-0.5,0.7H213z M216.2,9.4c-0.3-0.6-1-1.5-1.5-2.2
		c0.7-0.1,1.2-0.7,1.2-1.6c0-1.1-0.8-1.7-1.8-1.7h-2.3v5.5h1.2V7.3h0.3c0.1,0,0.2,0.1,0.4,0.4c0.3,0.5,0.7,1.1,1.1,1.7H216.2z
		 M213.7,11.2c-2.7,0-4.5-1.8-4.5-4.6c0-3.4,2.4-4.7,4.5-4.7c2.1,0,4.5,1.3,4.5,4.7C218.2,9.4,216.4,11.2,213.7,11.2L213.7,11.2z
		 M213.7,12.6c3.5,0,5.8-2.3,5.8-5.9c0-4.4-3.1-6-5.8-6s-5.8,1.7-5.8,6C207.9,10.2,210.2,12.6,213.7,12.6L213.7,12.6z"/>
</g>
</svg>
